<svg width="77" height="50" viewBox="0 0 77 50" fill="none" xmlns="http://www.w3.org/2000/svg">
<g clip-path="url(#clip0_525_2989)">
<path d="M5 1C5 2.10457 5.89543 3 7 3H70C71.1046 3 72 2.10457 72 1V0H5V1Z" fill="#F2F7FF" stroke="#173E88"/>
<path d="M7 3H70V9H7V3Z" fill="#F2F7FF" stroke="#173E88"/>
<path fill-rule="evenodd" clip-rule="evenodd" d="M21.08 45.7662L20.8817 45.4935C20.861 45.5098 20.8404 45.5261 20.8197 45.5426C20.8057 45.5537 20.7917 45.565 20.7777 45.5762C20.8812 45.6249 20.9822 45.6884 21.08 45.7662Z" fill="#F2F7FF"/>
<path fill-rule="evenodd" clip-rule="evenodd" d="M21.08 45.7662L20.8817 45.4935L20.8197 45.5426L20.7777 45.5762C20.8812 45.6249 20.9822 45.6884 21.08 45.7662Z" fill="#F2F7FF"/>
<path fill-rule="evenodd" clip-rule="evenodd" d="M29.7501 26.25C30.3121 25.4773 30.3608 24.9217 30.1072 24.5C29.8667 24.1003 29.3545 23.8209 28.75 23.5911C28.3762 23.4489 27.967 23.3257 27.5651 23.2046C27.0941 23.0627 26.6329 22.9238 26.25 22.7609C26.0617 22.6808 25.8924 22.5949 25.75 22.5C25.1018 22.0679 24.1734 22.2893 23.2878 22.8417C22.5459 23.3043 21.8341 23.999 21.3419 24.7361C21.0619 25.1553 20.853 25.5883 20.7501 26C20.3501 27.6 21.2501 28.3333 21.7501 28.5C22.3111 28.7244 23.0427 28.7311 23.8454 28.6007C25.9041 28.2661 28.431 27.0294 29.7501 26.25Z" fill="#F2F7FF"/>
<path d="M17.1399 20.5725C15.4778 20.4668 13.4456 21.6804 11.6481 23.1453C9.99149 24.4953 8.5343 26.0588 7.75 27C7.25 27.5 6.25 28 6.25 26C6.41667 23.6667 7.45 19 10.25 19C10.9427 19 11.6158 19 12.25 19.0194C13.9767 19.0722 15.4145 19.2686 16.1721 20C16.4753 20.1271 16.8749 20.3252 17.322 20.5895C17.2563 20.5841 17.1958 20.5784 17.1399 20.5725Z" fill="#F2F7FF"/>
<path fill-rule="evenodd" clip-rule="evenodd" d="M28.7521 43C28.7686 42.8678 28.7791 42.7394 28.7839 42.6148C28.8604 40.642 27.3669 39.7458 25.7499 39.3387C25.5049 39.277 25.2569 39.2265 25.0112 39.1853C24.5906 39.1195 24.1908 39.0945 23.8121 39.1031C21.3367 39.1592 19.7664 40.6504 19.221 41.5594L19.163 41.6684C18.9863 42.0003 18.8539 42.249 18.7318 42.5375C18.6221 42.7965 18.5207 43.0876 18.4029 43.5C17.6029 46.2999 18.75 46.5 19.9029 46C20.5927 45.6659 20.5794 45.6987 20.5725 45.7158C20.5707 45.7204 20.5598 45.7209 20.5725 45.7158C20.6087 45.7015 20.65 45.679 20.7777 45.5762L20.8197 45.5426L20.8817 45.4935C22.7524 44.0231 24.5656 43.5351 26.3188 43.281C26.8517 43.2038 27.3791 43.1482 27.901 43.0931C28.1863 43.0631 28.4701 43.0331 28.7521 43Z" fill="#F2F7FF"/>
<path fill-rule="evenodd" clip-rule="evenodd" d="M22.2523 54.5C22.6875 51.7242 22.616 49.5216 22.2426 47.9853C21.9803 46.906 21.5691 46.1555 21.08 45.7662C20.9822 45.6884 20.8812 45.6249 20.7777 45.5762C20.65 45.679 20.6087 45.7015 20.5725 45.7158C20.5794 45.6987 20.5927 45.6659 19.9029 46C18.75 46.5 17.6029 46.2999 18.4029 43.5C18.5207 43.0876 18.6221 42.7965 18.7318 42.5375L17.25 40.5C14.25 37.5 10.25 40 9.74999 42.5C9.34999 44.5 10.5833 44 11.25 43.5C11.5715 42.3 12.7173 42 13.25 42C15.65 42 15.2498 46 14.7497 48C14.3497 51.6 15.9164 53.8334 16.7497 54.5L22.2523 54.5Z" fill="#F2F7FF"/>
<path fill-rule="evenodd" clip-rule="evenodd" d="M32.2248 53.1247C32.0145 47.9677 30.6162 44.6935 28.7839 42.6148C28.7791 42.7394 28.7686 42.8678 28.7521 43C28.4701 43.0331 28.1863 43.0631 27.901 43.0931C27.3791 43.1482 26.8517 43.2038 26.3188 43.281C24.5656 43.5351 22.7524 44.0231 20.8817 45.4935L21.08 45.7662C21.5691 46.1555 21.9803 46.906 22.2426 47.9853C22.616 49.5216 22.6875 51.7242 22.2523 54.5H32.2523C32.2523 54.0273 32.243 53.569 32.2248 53.1247Z" fill="#F2F7FF"/>
<path fill-rule="evenodd" clip-rule="evenodd" d="M35.2498 42.047C34.2806 43.6471 32.466 48.2071 32.7193 53.9488C32.7273 54.1314 32.7375 54.3151 32.7498 54.5H45.25C45.1902 53.6356 45.0784 52.5101 44.9077 51.2828C44.6099 49.1417 44.1331 46.6909 43.4411 44.7768C43.0145 43.5967 42.5061 42.6207 41.9075 42.047C39.3663 44.9556 37.6774 44.4432 35.3006 42.0973L35.2498 42.047Z" fill="#F2F7FF"/>
<path fill-rule="evenodd" clip-rule="evenodd" d="M42.7498 41C41.6026 39.7093 38.8019 37.9745 35.7492 39.8086C35.2541 40.1061 34.7523 40.4975 34.2498 41C34.5981 41.3791 34.9302 41.7294 35.2498 42.047L35.3006 42.0973C37.6774 44.4432 39.3663 44.9556 41.9075 42.047C42.178 41.7374 42.4581 41.389 42.7498 41Z" fill="#F2F7FF"/>
<path d="M38.2498 27C38.2498 23.8 35.2498 22.1669 33.7498 22.5002C36.9341 19.7432 38.8484 19.3113 42.7498 22.5002C39.1498 21.5356 38.2498 25.5981 38.2498 27Z" fill="#F2F7FF"/>
<path fill-rule="evenodd" clip-rule="evenodd" d="M32.7701 27.8015C32.7212 27.9313 32.6714 28.0639 32.6205 28.1996C32.1598 27.3532 31.7613 26.7275 31.5256 26.3575L31.4572 26.25L30.1072 24.5C30.3608 24.9217 30.3121 25.4773 29.7501 26.25C28.431 27.0294 25.9041 28.2661 23.8454 28.6007C25.7123 30.6891 24.57 36.3767 23.7502 39L23.8121 39.1031C24.1908 39.0945 24.5906 39.1195 25.0112 39.1853C25.2569 39.2265 25.5049 39.277 25.7499 39.3387C27.3669 39.7458 28.8604 40.642 28.7839 42.6148C30.6162 44.6935 32.0145 47.9677 32.2248 53.1247L32.7193 53.9488C32.466 48.2071 34.2806 43.6471 35.2498 42.047C34.9302 41.7294 34.5981 41.3791 34.2498 41C34.7523 40.4975 35.2541 40.1061 35.7492 39.8086C38.8019 37.9745 41.6026 39.7093 42.7498 41C42.4581 41.389 42.178 41.7374 41.9075 42.047C42.5061 42.6207 43.0145 43.5967 43.4411 44.7768C44.9332 42.99 46.7804 39.3108 45.7495 34.5002C45.2067 31.9671 44.5985 30.1543 44.0669 28.7062C43.9502 28.3882 43.8372 28.0879 43.7293 27.8013C42.9713 25.7867 42.4704 24.4555 42.7498 22.5002C39.1498 21.5356 38.2498 25.5981 38.2498 27C38.2498 23.8 35.2498 22.1669 33.7498 22.5002C34.0291 24.4555 33.5281 25.7869 32.7701 27.8015Z" fill="#F2F7FF"/>
<path fill-rule="evenodd" clip-rule="evenodd" d="M55.92 45.7662L56.1183 45.4935C56.139 45.5098 56.1596 45.5261 56.1803 45.5426C56.1943 45.5537 56.2083 45.565 56.2223 45.5762C56.1188 45.6249 56.0178 45.6884 55.92 45.7662Z" fill="#F2F7FF"/>
<path fill-rule="evenodd" clip-rule="evenodd" d="M55.92 45.7662L56.1183 45.4935L56.1803 45.5426L56.2223 45.5762C56.1188 45.6249 56.0178 45.6884 55.92 45.7662Z" fill="#F2F7FF"/>
<path fill-rule="evenodd" clip-rule="evenodd" d="M47.2499 26.25C46.6879 25.4773 46.6392 24.9217 46.8928 24.5C47.282 23.8531 48.3831 23.5214 49.4349 23.2046C49.9059 23.0627 50.3671 22.9238 50.75 22.7609C50.9383 22.6808 51.1076 22.5949 51.25 22.5C51.9074 22.0617 52.853 22.2958 53.75 22.8654C54.4583 23.3153 55.1363 23.9744 55.6181 24.6769C55.9182 25.1145 56.1421 25.5689 56.2499 26C56.6499 27.6 55.7499 28.3333 55.2499 28.5C54.6889 28.7244 53.9573 28.7311 53.1546 28.6007C51.0959 28.2661 48.569 27.0294 47.2499 26.25Z" fill="#F2F7FF"/>
<path d="M59.8601 20.5725C61.5447 20.4654 63.6095 21.7134 65.4247 23.2048C67.0511 24.5411 68.4772 26.0726 69.25 27C69.75 27.5 70.75 28 70.75 26C70.5833 23.6667 69.55 19 66.75 19C66.0573 19 65.3842 19 64.75 19.0194C63.0233 19.0722 61.5855 19.2686 60.8279 20C60.5247 20.1271 60.1251 20.3252 59.678 20.5895C59.7437 20.5841 59.8042 20.5784 59.8601 20.5725Z" fill="#F2F7FF"/>
<path fill-rule="evenodd" clip-rule="evenodd" d="M48.2479 43C48.2314 42.8678 48.2209 42.7394 48.2161 42.6148C48.1396 40.642 49.6331 39.7458 51.2501 39.3387C51.4951 39.277 51.7431 39.2265 51.9888 39.1853C52.4094 39.1195 52.8092 39.0945 53.1879 39.1031C55.6633 39.1592 57.2336 40.6504 57.779 41.5594L57.837 41.6684C58.0137 42.0003 58.1461 42.249 58.2682 42.5375C58.3779 42.7965 58.4793 43.0876 58.5971 43.5C59.3971 46.2999 58.25 46.5 57.0971 46C56.4073 45.6659 56.4206 45.6987 56.4275 45.7158C56.4293 45.7204 56.4402 45.7209 56.4275 45.7158C56.3913 45.7015 56.35 45.679 56.2223 45.5762L56.1803 45.5426L56.1183 45.4935C54.2476 44.0231 52.4344 43.5351 50.6812 43.281C50.1483 43.2038 49.6209 43.1482 49.099 43.0931C48.8137 43.0631 48.5299 43.0331 48.2479 43Z" fill="#F2F7FF"/>
<path fill-rule="evenodd" clip-rule="evenodd" d="M54.7477 54.5C54.3125 51.7242 54.384 49.5216 54.7574 47.9853C55.0197 46.906 55.4309 46.1555 55.92 45.7662C56.0178 45.6884 56.1188 45.6249 56.2223 45.5762C56.35 45.679 56.3913 45.7015 56.4275 45.7158C56.4206 45.6987 56.4073 45.6659 57.0971 46C58.25 46.5 59.3971 46.2999 58.5971 43.5C58.4793 43.0876 58.3779 42.7965 58.2682 42.5375L59.75 40.5C62.75 37.5 66.75 40 67.25 42.5C67.65 44.5 66.4167 44 65.75 43.5C65.4285 42.3 64.2827 42 63.75 42C61.35 42 61.7502 46 62.2503 48C62.6503 51.6 61.0836 53.8334 60.2503 54.5L54.7477 54.5Z" fill="#F2F7FF"/>
<path fill-rule="evenodd" clip-rule="evenodd" d="M44.7752 53.1247C44.8014 52.4819 44.846 51.8684 44.9077 51.2828C45.3408 47.1701 46.6121 44.4344 48.2161 42.6148C48.2209 42.7394 48.2314 42.8678 48.2479 43C48.5299 43.0331 48.8137 43.0631 49.099 43.0931C49.6209 43.1482 50.1483 43.2038 50.6812 43.281C52.4344 43.5351 54.2476 44.0231 56.1183 45.4935L55.92 45.7662C55.4309 46.1555 55.0197 46.906 54.7574 47.9853C54.384 49.5216 54.3125 51.7242 54.7477 54.5H44.7477C44.7477 54.0273 44.757 53.569 44.7752 53.1247Z" fill="#F2F7FF"/>
<path d="M21.7501 28.5C21.2501 28.3333 20.3501 27.6 20.7501 26C20.853 25.5883 21.0619 25.1553 21.3419 24.7361L21.25 24.5C20.355 22.71 18.6339 21.3651 17.322 20.5895C17.2563 20.5841 17.1958 20.5784 17.1399 20.5725C15.4778 20.4668 13.4456 21.6804 11.6481 23.1453H11.9675C14.4675 23.6453 14.75 29.5 14.75 33.5C14.75 36.7 16.5833 39.6667 17.25 40.5L18.7318 42.5375C18.8539 42.249 18.9863 42.0003 19.163 41.6684L19.221 41.5594C19.7664 40.6504 21.3367 39.1592 23.8121 39.1031L23.7502 39C24.57 36.3767 25.7123 30.6891 23.8454 28.6007C23.0427 28.7311 22.3111 28.7244 21.7501 28.5Z" fill="#F2F7FF"/>
<path d="M56.2499 26C56.6499 27.6 55.7499 28.3333 55.2499 28.5C54.6889 28.7244 53.9573 28.7311 53.1546 28.6007C51.2877 30.6891 52.43 36.3767 53.2498 39L53.1879 39.1031C55.6633 39.1592 57.2336 40.6504 57.779 41.5594L57.837 41.6684C58.0137 42.0003 58.1461 42.249 58.2682 42.5375L59.75 40.5C60.4167 39.6667 62.25 36.7 62.25 33.5C62.25 29.5 62.5325 23.6453 65.0325 23.1453L65.4247 23.2048C63.6095 21.7134 61.5447 20.4654 59.8601 20.5725C59.8042 20.5784 59.7437 20.5841 59.678 20.5895C58.3661 21.3651 56.645 22.71 55.75 24.5L55.6181 24.6769C55.9182 25.1145 56.1421 25.5689 56.2499 26Z" fill="#F2F7FF"/>
<path fill-rule="evenodd" clip-rule="evenodd" d="M44.9077 51.2828C44.6099 49.1417 44.1331 46.6909 43.4411 44.7768C44.9332 42.99 46.7804 39.3108 45.7495 34.5002C45.2067 31.9671 44.5985 30.1543 44.0669 28.7062L44.3795 28.1996C44.8402 27.3532 45.2387 26.7275 45.4744 26.3575L45.5428 26.25L46.8928 24.5C46.6392 24.9217 46.6879 25.4773 47.2499 26.25C48.569 27.0294 51.0959 28.2661 53.1546 28.6007C51.2877 30.6891 52.43 36.3767 53.2498 39L53.1879 39.1031C52.8092 39.0945 52.4094 39.1195 51.9888 39.1853C51.7431 39.2265 51.4951 39.277 51.2501 39.3387C49.6331 39.7458 48.1396 40.642 48.2161 42.6148C46.6121 44.4344 45.3408 47.1701 44.9077 51.2828Z" fill="#F2F7FF"/>
<path fill-rule="evenodd" clip-rule="evenodd" d="M42.7498 22.5002C38.8484 19.3113 36.9341 19.7432 33.7498 22.5002C34.0291 24.4555 33.5281 25.7869 32.7701 27.8015C32.7212 27.9313 32.6714 28.0639 32.6205 28.1996C32.1598 27.3532 31.7613 26.7275 31.5256 26.3575L31.4572 26.25L30.1072 24.5C29.8667 24.1003 29.3545 23.8209 28.75 23.5911C28.3762 23.4489 27.967 23.3257 27.5651 23.2046C27.0941 23.0627 26.6329 22.9238 26.25 22.7609V22.5C26.4167 18.3333 28.25 9.89995 34.25 9.49995C35.4883 9.36236 37.749 9.72456 38.5 11.8806C39.251 9.72456 41.5117 9.36236 42.75 9.49995C48.75 9.89995 50.5833 18.3333 50.75 22.5V22.7609C50.3671 22.9238 49.9059 23.0627 49.4349 23.2046C48.3831 23.5214 47.282 23.8531 46.8928 24.5L45.5428 26.25L45.4744 26.3575C45.2387 26.7275 44.8402 27.3532 44.3795 28.1996L44.0669 28.7062C43.9502 28.3882 43.8372 28.0879 43.7293 27.8013C42.9713 25.7867 42.4704 24.4555 42.7498 22.5002Z" fill="#F2F7FF"/>
<path fill-rule="evenodd" clip-rule="evenodd" d="M51.25 22.5C51.1076 22.5949 50.9383 22.6808 50.75 22.7609V22.5C52.35 15.3 57.75 10.5 60.25 9H64.75C66.9167 10.6175 69.95 14.8672 64.75 18.9262C64.2746 18.9776 63.7735 19 63.25 19C61.5055 19 59.75 16 60.25 14.5C56.25 16.5 54.25 20.6667 53.75 22.5V22.8654C52.853 22.2958 51.9074 22.0617 51.25 22.5Z" fill="#F2F7FF"/>
<path d="M64.75 9C69.15 9 69.75 12.3333 69.75 14C69.3248 17.4017 67.4531 18.6338 64.75 18.9262C69.95 14.8672 66.9167 10.6175 64.75 9Z" fill="#F2F7FF"/>
<path fill-rule="evenodd" clip-rule="evenodd" d="M26.25 22.7609C26.0617 22.6808 25.8924 22.5949 25.75 22.5C25.1018 22.0679 24.1734 22.2893 23.2878 22.8417L23.25 22.5C22.75 20.6667 20.75 16.5 16.75 14.5C17.25 16 15.4945 19 13.75 19C13.2265 19 12.7254 18.9776 12.25 18.9262C7.05 14.8672 10.0833 10.6175 12.25 9H16.75C19.25 10.5 24.65 15.3 26.25 22.5V22.7609Z" fill="#F2F7FF"/>
<path d="M7.25 14C7.25 12.3333 7.85 9 12.25 9C10.0833 10.6175 7.05 14.8672 12.25 18.9262C9.5469 18.6338 7.67522 17.4017 7.25 14Z" fill="#F2F7FF"/>
<path fill-rule="evenodd" clip-rule="evenodd" d="M23.2878 22.8417C22.5459 23.3043 21.8341 23.999 21.3419 24.7361L21.25 24.5C20.355 22.71 18.6339 21.3651 17.322 20.5895C16.8749 20.3252 16.4753 20.1271 16.1721 20C15.4145 19.2686 13.9767 19.0722 12.25 19.0194V18.9262C12.7254 18.9776 13.2265 19 13.75 19C15.4945 19 17.25 16 16.75 14.5C20.75 16.5 22.75 20.6667 23.25 22.5L23.2878 22.8417Z" fill="#F2F7FF"/>
<path fill-rule="evenodd" clip-rule="evenodd" d="M55.6181 24.6769C55.1363 23.9744 54.4583 23.3153 53.75 22.8654V22.5C54.25 20.6667 56.25 16.5 60.25 14.5C59.75 16 61.5055 19 63.25 19C63.7735 19 64.2746 18.9776 64.75 18.9262V19.0194C63.0233 19.0722 61.5855 19.2686 60.8279 20C60.5247 20.1271 60.1251 20.3252 59.678 20.5895C58.3661 21.3651 56.645 22.71 55.75 24.5L55.6181 24.6769Z" fill="#F2F7FF"/>
<path fill-rule="evenodd" clip-rule="evenodd" d="M34.25 9.49995C28.25 9.89995 26.4167 18.3333 26.25 22.5C24.65 15.3 19.25 10.5 16.75 9H60.25C57.75 10.5 52.35 15.3 50.75 22.5C50.5833 18.3333 48.75 9.89995 42.75 9.49995C41.5117 9.36236 39.251 9.72456 38.5 11.8806C37.749 9.72456 35.4883 9.36236 34.25 9.49995Z" fill="#F2F7FF"/>
<path d="M21.08 45.7662L20.8817 45.4935M21.08 45.7662C20.9822 45.6884 20.8812 45.6249 20.7777 45.5762M21.08 45.7662C21.5691 46.1555 21.9803 46.906 22.2426 47.9853C22.616 49.5216 22.6875 51.7242 22.2523 54.5M20.8817 45.4935C20.861 45.5098 20.8404 45.5261 20.8197 45.5426M20.8817 45.4935L20.8197 45.5426M20.8817 45.4935C22.7524 44.0231 24.5656 43.5351 26.3188 43.281C26.8517 43.2038 27.3791 43.1482 27.901 43.0931C28.1863 43.0631 28.4701 43.0331 28.7521 43C28.7686 42.8678 28.7791 42.7394 28.7839 42.6148M20.8197 45.5426C20.8057 45.5537 20.7917 45.565 20.7777 45.5762M20.8197 45.5426L20.7777 45.5762M20.7777 45.5762C20.65 45.679 20.6087 45.7015 20.5725 45.7158M30.1072 24.5C30.3608 24.9217 30.3121 25.4773 29.7501 26.25C28.431 27.0294 25.9041 28.2661 23.8454 28.6007M30.1072 24.5C29.8667 24.1003 29.3545 23.8209 28.75 23.5911M30.1072 24.5L31.4572 26.25L31.5256 26.3575C31.7613 26.7275 32.1598 27.3532 32.6205 28.1996M28.75 23.5911C28.3762 23.4489 27.967 23.3257 27.5651 23.2046C27.0941 23.0627 26.6329 22.9238 26.25 22.7609M28.75 23.5911V23.5C29.15 15.1 32.25 13.3333 33.75 13.5C33.2141 15.5 34.5267 16.3333 35.25 16.5C36.1843 16.9004 37.8669 17.0443 38.5 15.2367C39.1331 17.0443 40.8157 16.9004 41.75 16.5C42.4733 16.3333 43.7859 15.5 43.25 13.5C44.75 13.3333 47.85 15.1 48.25 23.5M26.25 22.7609C26.0617 22.6808 25.8924 22.5949 25.75 22.5C25.1018 22.0679 24.1734 22.2893 23.2878 22.8417M26.25 22.7609V22.5M23.2878 22.8417C22.5459 23.3043 21.8341 23.999 21.3419 24.7361M23.2878 22.8417L23.25 22.5C22.75 20.6667 20.75 16.5 16.75 14.5M21.3419 24.7361C21.0619 25.1553 20.853 25.5883 20.7501 26C20.3501 27.6 21.2501 28.3333 21.7501 28.5C22.3111 28.7244 23.0427 28.7311 23.8454 28.6007M21.3419 24.7361L21.25 24.5C20.355 22.71 18.6339 21.3651 17.322 20.5895M23.8454 28.6007C25.7123 30.6891 24.57 36.3767 23.7502 39L23.8121 39.1031M17.1399 20.5725C15.4778 20.4668 13.4456 21.6804 11.6481 23.1453M17.1399 20.5725C17.1958 20.5784 17.2563 20.5841 17.322 20.5895M17.1399 20.5725C17.2011 20.5763 17.2618 20.582 17.322 20.5895M17.1399 20.5725C16.2833 20.4817 16.5195 20.3353 16.1721 20M11.6481 23.1453C9.99149 24.4953 8.5343 26.0588 7.75 27C7.25 27.5 6.25 28 6.25 26C6.41667 23.6667 7.45 19 10.25 19C10.9427 19 11.6158 19 12.25 19.0194M11.6481 23.1453H11.9675C14.4675 23.6453 14.75 29.5 14.75 33.5C14.75 36.7 16.5833 39.6667 17.25 40.5M12.25 19.0194C13.9767 19.0722 15.4145 19.2686 16.1721 20M12.25 19.0194V18.9262M16.1721 20C16.4753 20.1271 16.8749 20.3252 17.322 20.5895M28.7839 42.6148C28.8604 40.642 27.3669 39.7458 25.7499 39.3387M28.7839 42.6148C30.6162 44.6935 32.0145 47.9677 32.2248 53.1247M25.7499 39.3387C25.5049 39.277 25.2569 39.2265 25.0112 39.1853M25.7499 39.3387C25.497 39.2734 25.2508 39.2227 25.0112 39.1853M25.0112 39.1853C24.5906 39.1195 24.1908 39.0945 23.8121 39.1031M23.8121 39.1031C21.3367 39.1592 19.7664 40.6504 19.221 41.5594L19.163 41.6684C18.9863 42.0003 18.8539 42.249 18.7318 42.5375M18.7318 42.5375C18.6221 42.7965 18.5207 43.0876 18.4029 43.5C17.6029 46.2999 18.75 46.5 19.9029 46C20.5927 45.6659 20.5794 45.6987 20.5725 45.7158M18.7318 42.5375L17.25 40.5M20.5725 45.7158C20.5598 45.7209 20.5707 45.7204 20.5725 45.7158ZM22.2523 54.5L16.7497 54.5C15.9164 53.8334 14.3497 51.6 14.7497 48C15.2498 46 15.65 42 13.25 42C12.7173 42 11.5715 42.3 11.25 43.5C10.5833 44 9.34999 44.5 9.74999 42.5C10.25 40 14.25 37.5 17.25 40.5M22.2523 54.5H32.2523C32.2523 54.0273 32.243 53.569 32.2248 53.1247M32.2248 53.1247L32.7193 53.9488M35.2498 42.047C34.2806 43.6471 32.466 48.2071 32.7193 53.9488M35.2498 42.047L35.3006 42.0973C37.6774 44.4432 39.3663 44.9556 41.9075 42.047M35.2498 42.047C34.9302 41.7294 34.5981 41.3791 34.2498 41C34.7523 40.4975 35.2541 40.1061 35.7492 39.8086C38.8019 37.9745 41.6026 39.7093 42.7498 41C42.4581 41.389 42.178 41.7374 41.9075 42.047M32.7193 53.9488C32.7273 54.1314 32.7375 54.3151 32.7498 54.5H45.25C45.1902 53.6356 45.0784 52.5101 44.9077 51.2828M44.9077 51.2828C44.6099 49.1417 44.1331 46.6909 43.4411 44.7768M44.9077 51.2828C44.846 51.8684 44.8014 52.4819 44.7752 53.1247C44.757 53.569 44.7477 54.0273 44.7477 54.5H54.7477M44.9077 51.2828C45.3408 47.1701 46.6121 44.4344 48.2161 42.6148M43.4411 44.7768C43.0145 43.5967 42.5061 42.6207 41.9075 42.047M43.4411 44.7768C44.9332 42.99 46.7804 39.3108 45.7495 34.5002C45.2067 31.9671 44.5985 30.1543 44.0669 28.7062M33.7498 22.5002C35.2498 22.1669 38.2498 23.8 38.2498 27C38.2498 25.5981 39.1498 21.5356 42.7498 22.5002M33.7498 22.5002C36.9341 19.7432 38.8484 19.3113 42.7498 22.5002M33.7498 22.5002C34.0291 24.4555 33.5281 25.7869 32.7701 27.8015C32.7212 27.9313 32.6714 28.0639 32.6205 28.1996M42.7498 22.5002C42.4704 24.4555 42.9713 25.7867 43.7293 27.8013C43.8372 28.0879 43.9502 28.3882 44.0669 28.7062M32.6205 28.1996C32.0481 29.7292 31.358 31.6629 30.75 34.5002C29.55 40.1002 32.25 44.1669 33.75 45.5002M44.0669 28.7062L44.3795 28.1996C44.8402 27.3532 45.2387 26.7275 45.4744 26.3575L45.5428 26.25L46.8928 24.5M55.92 45.7662L56.1183 45.4935M55.92 45.7662C56.0178 45.6884 56.1188 45.6249 56.2223 45.5762M55.92 45.7662C55.4309 46.1555 55.0197 46.906 54.7574 47.9853C54.384 49.5216 54.3125 51.7242 54.7477 54.5M56.1183 45.4935C56.139 45.5098 56.1596 45.5261 56.1803 45.5426M56.1183 45.4935L56.1803 45.5426M56.1183 45.4935C54.2476 44.0231 52.4344 43.5351 50.6812 43.281C50.1483 43.2038 49.6209 43.1482 49.099 43.0931C48.8137 43.0631 48.5299 43.0331 48.2479 43C48.2314 42.8678 48.2209 42.7394 48.2161 42.6148M56.1803 45.5426C56.1943 45.5537 56.2083 45.565 56.2223 45.5762M56.1803 45.5426L56.2223 45.5762M56.2223 45.5762C56.35 45.679 56.3913 45.7015 56.4275 45.7158M46.8928 24.5C46.6392 24.9217 46.6879 25.4773 47.2499 26.25C48.569 27.0294 51.0959 28.2661 53.1546 28.6007M46.8928 24.5C47.282 23.8531 48.3831 23.5214 49.4349 23.2046C49.9059 23.0627 50.3671 22.9238 50.75 22.7609M50.75 22.7609C50.9383 22.6808 51.1076 22.5949 51.25 22.5C51.9074 22.0617 52.853 22.2958 53.75 22.8654M50.75 22.7609V22.5M53.75 22.8654C54.4583 23.3153 55.1363 23.9744 55.6181 24.6769M53.75 22.8654V22.5C54.25 20.6667 56.25 16.5 60.25 14.5M55.6181 24.6769C55.9182 25.1145 56.1421 25.5689 56.2499 26C56.6499 27.6 55.7499 28.3333 55.2499 28.5C54.6889 28.7244 53.9573 28.7311 53.1546 28.6007M55.6181 24.6769L55.75 24.5C56.645 22.71 58.3661 21.3651 59.678 20.5895M53.1546 28.6007C51.2877 30.6891 52.43 36.3767 53.2498 39L53.1879 39.1031M59.8601 20.5725C61.5447 20.4654 63.6095 21.7134 65.4247 23.2048M59.8601 20.5725C59.8042 20.5784 59.7437 20.5841 59.678 20.5895M59.8601 20.5725C59.7989 20.5763 59.7382 20.582 59.678 20.5895M59.8601 20.5725C60.7167 20.4817 60.4805 20.3353 60.8279 20M65.4247 23.2048C67.0511 24.5411 68.4772 26.0726 69.25 27C69.75 27.5 70.75 28 70.75 26C70.5833 23.6667 69.55 19 66.75 19C66.0573 19 65.3842 19 64.75 19.0194M65.4247 23.2048L65.0325 23.1453C62.5325 23.6453 62.25 29.5 62.25 33.5C62.25 36.7 60.4167 39.6667 59.75 40.5M64.75 19.0194C63.0233 19.0722 61.5855 19.2686 60.8279 20M64.75 19.0194V18.9262M60.8279 20C60.5247 20.1271 60.1251 20.3252 59.678 20.5895M48.2161 42.6148C48.1396 40.642 49.6331 39.7458 51.2501 39.3387M51.2501 39.3387C51.4951 39.277 51.7431 39.2265 51.9888 39.1853M51.2501 39.3387C51.503 39.2734 51.7492 39.2227 51.9888 39.1853M51.9888 39.1853C52.4094 39.1195 52.8092 39.0945 53.1879 39.1031M53.1879 39.1031C55.6633 39.1592 57.2336 40.6504 57.779 41.5594L57.837 41.6684C58.0137 42.0003 58.1461 42.249 58.2682 42.5375M58.2682 42.5375C58.3779 42.7965 58.4793 43.0876 58.5971 43.5C59.3971 46.2999 58.25 46.5 57.0971 46C56.4073 45.6659 56.4206 45.6987 56.4275 45.7158M58.2682 42.5375L59.75 40.5M56.4275 45.7158C56.4402 45.7209 56.4293 45.7204 56.4275 45.7158ZM54.7477 54.5L60.2503 54.5C61.0836 53.8334 62.6503 51.6 62.2503 48C61.7502 46 61.35 42 63.75 42C64.2827 42 65.4285 42.3 65.75 43.5C66.4167 44 67.65 44.5 67.25 42.5C66.75 40 62.75 37.5 59.75 40.5M26.25 22.5C26.4167 18.3333 28.25 9.89995 34.25 9.49995C35.4883 9.36236 37.749 9.72456 38.5 11.8806C39.251 9.72456 41.5117 9.36236 42.75 9.49995C48.75 9.89995 50.5833 18.3333 50.75 22.5M26.25 22.5C24.65 15.3 19.25 10.5 16.75 9M50.75 22.5C52.35 15.3 57.75 10.5 60.25 9M60.25 9H64.75M60.25 9H16.75M64.75 9C66.9167 10.6175 69.95 14.8672 64.75 18.9262M64.75 9C69.15 9 69.75 12.3333 69.75 14C69.3248 17.4017 67.4531 18.6338 64.75 18.9262M64.75 18.9262C64.2746 18.9776 63.7735 19 63.25 19C61.5055 19 59.75 16 60.25 14.5M60.25 14.5C61.0833 13.3333 63.05 11.7 64.25 14.5M16.75 14.5C17.25 16 15.4945 19 13.75 19C13.2265 19 12.7254 18.9776 12.25 18.9262M16.75 14.5C15.9167 13.3333 13.95 11.7 12.75 14.5M12.25 18.9262C7.05 14.8672 10.0833 10.6175 12.25 9M12.25 18.9262C9.5469 18.6338 7.67522 17.4017 7.25 14C7.25 12.3333 7.85 9 12.25 9M12.25 9H16.75" stroke="#173E88"/>
<path d="M36.0304 4C36.2383 2.30385 37.4887 1 39 1C40.5113 1 41.7617 2.30385 41.9696 4C41.9896 4.1633 42 4.33024 42 4.5C42 4.66976 41.9896 4.8367 41.9696 5C41.7617 6.69615 40.5113 8 39 8C37.4887 8 36.2383 6.69615 36.0304 5C36.0104 4.8367 36 4.66976 36 4.5C36 4.33024 36.0104 4.1633 36.0304 4Z" fill="#F2F7FF" stroke="#173E88"/>
<path d="M58.2511 99.5L57.9531 61.5H58C58.5523 61.5 59 61.0523 59 60.5C59 59.9477 58.5523 59.5 58 59.5C59.6569 59.5 61 58.1569 61 56.5H62C62.5523 56.5 63 56.0523 63 55.5C63 54.9477 62.5523 54.5 62 54.5L60.2503 54.5C61.0836 53.8334 62.6503 51.6 62.2503 48C61.7502 46 61.35 42 63.75 42C64.2827 42 65.4285 42.3 65.75 43.5C66.4167 44 67.65 44.5 67.25 42.5C66.75 40 62.75 37.5 59.75 40.5C60.4167 39.6667 62.25 36.7 62.25 33.5C62.25 29.5 62.5325 23.6453 65.0325 23.1453L65.4247 23.2048C67.0511 24.5411 68.4772 26.0726 69.25 27C69.75 27.5 70.75 28 70.75 26C70.5833 23.6667 69.55 19 66.75 19C66.0573 19 65.3842 19 64.75 19.0194V18.9262C67.4531 18.6338 69.3248 17.4017 69.75 14C69.75 12.3333 69.15 9 64.75 9H70V3C71.1046 3 72 2.10457 72 1V0H5V1C5 2.10457 5.89543 3 7 3V9H12.25C7.85 9 7.25 12.3333 7.25 14C7.67522 17.4017 9.5469 18.6338 12.25 18.9262V19.0194C11.6158 19 10.9427 19 10.25 19C7.45 19 6.41667 23.6667 6.25 26C6.25 28 7.25 27.5 7.75 27C8.5343 26.0588 9.99149 24.4953 11.6481 23.1453H11.9675C14.4675 23.6453 14.75 29.5 14.75 33.5C14.75 36.7 16.5833 39.6667 17.25 40.5C14.25 37.5 10.25 40 9.74999 42.5C9.34999 44.5 10.5833 44 11.25 43.5C11.5715 42.3 12.7173 42 13.25 42C15.65 42 15.2498 46 14.7497 48C14.3497 51.6 15.9164 53.8334 16.7497 54.5L15 54.5C14.4477 54.5 14 54.9477 14 55.5C14 56.0523 14.4477 56.5 15 56.5H16C16 58.1569 17.3431 59.5 19 59.5C18.4477 59.5 18 59.9477 18 60.5C18 61.0523 18.4477 61.5 19 61.5H19.0469L18.7489 99.5" stroke="#173E88" stroke-linecap="round"/>
</g>
<defs>
<clipPath id="clip0_525_2989">
<rect width="77" height="50" fill="white"/>
</clipPath>
</defs>
</svg>
