<svg width="77" height="50" viewBox="0 0 77 50" fill="none" xmlns="http://www.w3.org/2000/svg">
<g clip-path="url(#clip0_525_2990)">
<mask id="mask0_525_2990" style="mask-type:alpha" maskUnits="userSpaceOnUse" x="1" y="26" width="75" height="74">
<rect x="1.5" y="26.3588" width="74" height="73.6412" fill="#D9D9D9"/>
</mask>
<g mask="url(#mask0_525_2990)">
<path d="M16.9576 28.1998L39 28.1998H61.0424L64.5 744.361H39H13.5L16.9576 28.1998Z" fill="#F2F7FF" stroke="#173E88"/>
</g>
<path fill-rule="evenodd" clip-rule="evenodd" d="M13.7792 7.49886C13.9675 7.49349 14.1561 7.49351 14.3446 7.49886H13.7792Z" fill="#F2F7FF"/>
<path fill-rule="evenodd" clip-rule="evenodd" d="M62.6554 7.49886H63.2208C63.0325 7.49349 62.8439 7.49351 62.6554 7.49886Z" fill="#F2F7FF"/>
<path fill-rule="evenodd" clip-rule="evenodd" d="M52.9856 19H24.0144C23.9502 19.5058 23.8534 20.0068 23.7245 20.5C23.5915 21.0095 23.4242 21.5107 23.2236 22H53.7764C53.5758 21.5107 53.4085 21.0095 53.2755 20.5C53.1466 20.0068 53.0498 19.5058 52.9856 19Z" fill="#F2F7FF"/>
<path fill-rule="evenodd" clip-rule="evenodd" d="M39 17C40.933 17 42.5 15.0812 42.5 12.7143C42.5 12.1048 42.3961 11.525 42.2088 11H35.7912C35.6039 11.525 35.5 12.1048 35.5 12.7143C35.5 15.0812 37.067 17 39 17Z" fill="#F2F7FF"/>
<path fill-rule="evenodd" clip-rule="evenodd" d="M29 17C30.3807 17 31.5 15.0812 31.5 12.7143C31.5 12.1048 31.4258 11.525 31.292 11H26.708C26.5742 11.525 26.5 12.1048 26.5 12.7143C26.5 15.0812 27.6193 17 29 17Z" fill="#F2F7FF"/>
<path fill-rule="evenodd" clip-rule="evenodd" d="M49 17C50.3807 17 51.5 15.0812 51.5 12.7143C51.5 12.1048 51.4258 11.525 51.292 11H46.708C46.5742 11.525 46.5 12.1048 46.5 12.7143C46.5 15.0812 47.6193 17 49 17Z" fill="#F2F7FF"/>
<path fill-rule="evenodd" clip-rule="evenodd" d="M13.7792 7.49886C13.9675 7.49349 14.1561 7.49351 14.3446 7.49886H13.7792ZM14.3446 7.49886C15.3185 7.52649 16.2908 7.69632 17.2164 8C17.3869 8.05597 17.5559 8.11649 17.7231 8.1815C18.3456 8.42363 18.9406 8.72668 19.5 9.08528C20.0634 9.4465 20.5906 9.86408 21.073 10.3326C21.2926 10.5458 21.5018 10.7685 21.7002 11C22.3707 11.7823 22.9175 12.6646 23.3198 13.6165C23.8413 14.8503 24.1095 16.17 24.1087 17.5091C24.1087 18.0086 24.0771 18.5066 24.0144 19C23.9502 19.5058 23.8534 20.0068 23.7245 20.5C23.5915 21.0095 23.4242 21.5107 23.2236 22L23.2055 22.0438C22.6092 23.4814 21.7352 24.7877 20.6333 25.8881C19.5315 26.9884 18.2234 27.8612 16.7838 28.4567C15.3442 29.0522 13.8012 29.3587 12.243 29.3587C10.4382 29.3587 8.65116 29.0037 6.98378 28.314C5.3164 27.6243 3.80138 26.6134 2.52523 25.339C1.24907 24.0646 0.236773 22.5516 -0.453877 20.8865C-1.14453 19.2214 -1.5 17.4367 -1.5 15.6344C-1.5 13.5882 -1.09643 11.5444 -0.312327 9.654C0.471775 7.76358 1.62105 6.04591 3.06988 4.59905C4.51871 3.15218 6.23873 2.00447 8.13171 1.22143C10.0247 0.438396 12.0403 0 14.0893 0H31.0011C36.5151 0 38.2979 4.99924 38.5 7.49886H14.3446Z" fill="#F2F7FF"/>
<path fill-rule="evenodd" clip-rule="evenodd" d="M62.6554 7.49886H63.2208C63.0325 7.49349 62.8439 7.49351 62.6554 7.49886Z" fill="#F2F7FF"/>
<path d="M55.2998 11C54.6293 11.7823 54.0825 12.6646 53.6802 13.6165C53.1587 14.8503 52.8905 16.17 52.8913 17.5091C52.8913 18.0086 52.9229 18.5066 52.9856 19C53.0498 19.5058 53.1466 20.0068 53.2755 20.5C53.4085 21.0095 53.5758 21.5107 53.7764 22L53.7945 22.0438C54.3908 23.4814 55.2648 24.7877 56.3667 25.8881C57.4685 26.9884 58.7766 27.8612 60.2162 28.4567C61.6558 29.0522 63.1988 29.3587 64.757 29.3587C66.5618 29.3587 68.3488 29.0037 70.0162 28.314C71.6836 27.6243 73.1986 26.6134 74.4748 25.339C75.7509 24.0646 76.7632 22.5516 77.4539 20.8865C78.1445 19.2214 78.5 17.4367 78.5 15.6344C78.5 13.5882 78.0964 11.5444 77.3123 9.654C76.5282 7.76358 75.379 6.04591 73.9301 4.59905C72.4813 3.15218 70.7613 2.00447 68.8683 1.22143C66.9753 0.438396 64.9597 0 62.9107 0H45.9989C40.4849 0 38.7021 4.99924 38.5 7.49886H62.6554C61.6815 7.52649 60.7092 7.69632 59.7836 8C59.6131 8.05597 59.4441 8.11649 59.2769 8.1815C58.6544 8.42363 58.0594 8.72668 57.5 9.08528C56.9366 9.4465 56.4094 9.86408 55.927 10.3326C55.7074 10.5458 55.4982 10.7685 55.2998 11ZM63.2208 7.49886C63.0325 7.49349 62.8439 7.49351 62.6554 7.49886H63.2208Z" fill="#F2F7FF"/>
<path fill-rule="evenodd" clip-rule="evenodd" d="M59.7836 8C60.7092 7.69632 61.6815 7.52649 62.6554 7.49886H38.5H14.3446C15.3185 7.52649 16.2908 7.69632 17.2164 8C17.3869 8.05597 17.5559 8.11649 17.7231 8.1815C18.3456 8.42363 18.9406 8.72668 19.5 9.08528C20.0634 9.4465 20.5906 9.86408 21.073 10.3326C21.2926 10.5458 21.5018 10.7685 21.7002 11H26.708H31.292H35.7912H42.2088H46.708H51.292H55.2998C55.4982 10.7685 55.7074 10.5458 55.927 10.3326C56.4094 9.86408 56.9366 9.4465 57.5 9.08528C58.0594 8.72668 58.6544 8.42363 59.2769 8.1815C59.4441 8.11649 59.6131 8.05597 59.7836 8Z" fill="#F2F7FF"/>
<path d="M53.7764 22H23.2236L23.2055 22.0438C22.6092 23.4814 21.7352 24.7877 20.6333 25.8881C19.5315 26.9884 18.2234 27.8612 16.7838 28.4567H60.2162C58.7766 27.8612 57.4685 26.9884 56.3667 25.8881C55.2648 24.7877 54.3908 23.4814 53.7945 22.0438L53.7764 22Z" fill="#F2F7FF"/>
<path d="M24.0144 19H52.9856C52.9229 18.5066 52.8913 18.0086 52.8913 17.5091C52.8905 16.17 53.1587 14.8503 53.6802 13.6165C54.0825 12.6646 54.6293 11.7823 55.2998 11H51.292C51.4258 11.525 51.5 12.1048 51.5 12.7143C51.5 15.0812 50.3807 17 49 17C47.6193 17 46.5 15.0812 46.5 12.7143C46.5 12.1048 46.5742 11.525 46.708 11H42.2088C42.3961 11.525 42.5 12.1048 42.5 12.7143C42.5 15.0812 40.933 17 39 17C37.067 17 35.5 15.0812 35.5 12.7143C35.5 12.1048 35.6039 11.525 35.7912 11H31.292C31.4258 11.525 31.5 12.1048 31.5 12.7143C31.5 15.0812 30.3807 17 29 17C27.6193 17 26.5 15.0812 26.5 12.7143C26.5 12.1048 26.5742 11.525 26.708 11H21.7002C22.3707 11.7823 22.9175 12.6646 23.3198 13.6165C23.8413 14.8503 24.1095 16.17 24.1087 17.5091C24.1087 18.0086 24.0771 18.5066 24.0144 19Z" fill="#F2F7FF"/>
<path d="M31.0011 0C36.5151 0 38.2979 4.99924 38.5 7.49886C38.7021 4.99924 40.4849 0 45.9989 0H31.0011Z" fill="#F2F7FF"/>
<path d="M13.7792 7.49886C13.9675 7.49349 14.1561 7.49351 14.3446 7.49886M13.7792 7.49886H14.3446M13.7792 7.49886C11.5342 7.49886 9.38113 8.38946 7.79369 9.97475C6.20624 11.56 5.31443 13.7101 5.31443 15.9521C5.31443 16.8996 5.50131 17.8379 5.86442 18.7133C6.22753 19.5888 6.75974 20.3842 7.43068 21.0542C8.10161 21.7243 8.89813 22.2557 9.77474 22.6184C10.6514 22.981 11.4487 23.1676 12.3976 23.1676C13.2022 23.1676 13.999 23.0093 14.7423 22.7018C15.4857 22.3943 16.1612 21.9436 16.7301 21.3754C17.2991 20.8073 17.7504 20.1327 18.0583 19.3903C18.3663 18.648 18.5247 17.8523 18.5247 17.0488C18.5247 16.3894 18.391 15.737 18.1315 15.1307C17.8721 14.5244 17.4923 13.9769 17.0152 13.5212C16.538 13.0655 15.9734 12.711 15.3553 12.4793C14.7372 12.2475 14.1286 12.1383 13.469 12.1677C12.9306 12.1677 12.3975 12.2736 11.9001 12.4793C11.4027 12.6851 10.9508 12.9866 10.5701 13.3668C10.1894 13.747 9.88739 14.1983 9.68136 14.6951C9.47533 15.1918 9.36928 15.7242 9.36928 16.2618C9.36928 16.7181 9.45927 17.17 9.63412 17.5915C9.80898 18.0131 10.0653 18.3962 10.3884 18.7188C10.7115 19.0415 11.095 19.2974 11.5172 19.472C11.9393 19.6467 12.3918 19.7365 12.8487 19.7365C13.2242 19.7365 13.596 19.6627 13.9428 19.5192C14.2897 19.3757 14.6049 19.1654 14.8704 18.9002C15.1359 18.6351 15.3465 18.3204 15.4902 17.9739C15.6339 17.6275 15.7078 17.2562 15.7078 16.8813M14.3446 7.49886C15.3185 7.52649 16.2908 7.69632 17.2164 8C17.3869 8.05597 17.5559 8.11649 17.7231 8.1815C18.3456 8.42363 18.9406 8.72668 19.5 9.08528M14.3446 7.49886H38.5M62.6554 7.49886H63.2208M62.6554 7.49886C62.8439 7.49351 63.0325 7.49349 63.2208 7.49886M62.6554 7.49886H38.5M62.6554 7.49886C61.6815 7.52649 60.7092 7.69632 59.7836 8C59.6131 8.05597 59.4441 8.11649 59.2769 8.1815C58.6544 8.42363 58.0594 8.72668 57.5 9.08528M63.2208 7.49886C65.4658 7.49886 67.6189 8.38946 69.2063 9.97475C70.7938 11.56 71.6856 13.7101 71.6856 15.9521C71.6856 16.8996 71.4987 17.8379 71.1356 18.7133C70.7725 19.5888 70.2403 20.3842 69.5693 21.0542C68.8984 21.7243 68.1019 22.2557 67.2253 22.6184C66.3486 22.981 65.5513 23.1676 64.6024 23.1676C63.7978 23.1676 63.001 23.0093 62.2577 22.7018C61.5143 22.3943 60.8388 21.9436 60.2699 21.3754C59.7009 20.8073 59.2496 20.1327 58.9417 19.3903C58.6337 18.648 58.4753 17.8523 58.4753 17.0488C58.4753 16.3894 58.609 15.737 58.8685 15.1307C59.1279 14.5244 59.5077 13.9769 59.9848 13.5212C60.462 13.0655 61.0266 12.711 61.6447 12.4793C62.2628 12.2475 62.8714 12.1383 63.531 12.1677C64.0694 12.1677 64.6025 12.2736 65.0999 12.4793C65.5973 12.6851 66.0492 12.9866 66.4299 13.3668C66.8106 13.747 67.1126 14.1983 67.3186 14.6951C67.5247 15.1918 67.6307 15.7242 67.6307 16.2618C67.6307 16.7181 67.5407 17.17 67.3659 17.5915C67.191 18.0131 66.9347 18.3962 66.6116 18.7188C66.2885 19.0415 65.905 19.2974 65.4828 19.472C65.0607 19.6467 64.6082 19.7365 64.1513 19.7365C63.7758 19.7365 63.404 19.6627 63.0572 19.5192C62.7103 19.3757 62.3951 19.1654 62.1296 18.9002C61.8641 18.6351 61.6535 18.3204 61.5098 17.9739C61.3661 17.6275 61.2922 17.2562 61.2922 16.8813M52.9856 19H24.0144M52.9856 19C52.9229 18.5066 52.8913 18.0086 52.8913 17.5091C52.8905 16.17 53.1587 14.8503 53.6802 13.6165C54.0825 12.6646 54.6293 11.7823 55.2998 11M52.9856 19C53.0498 19.5058 53.1466 20.0068 53.2755 20.5M24.0144 19C24.0771 18.5066 24.1087 18.0086 24.1087 17.5091C24.1095 16.17 23.8413 14.8503 23.3198 13.6165C22.9175 12.6646 22.3707 11.7823 21.7002 11M24.0144 19C23.9502 19.5058 23.8534 20.0068 23.7245 20.5M23.2236 22H53.7764M23.2236 22L23.2055 22.0438C22.6092 23.4814 21.7352 24.7877 20.6333 25.8881C19.5315 26.9884 18.2234 27.8612 16.7838 28.4567M23.2236 22C23.4242 21.5107 23.5915 21.0095 23.7245 20.5M53.7764 22L53.7945 22.0438C54.3908 23.4814 55.2648 24.7877 56.3667 25.8881C57.4685 26.9884 58.7766 27.8612 60.2162 28.4567M53.7764 22C53.5758 21.5107 53.4085 21.0095 53.2755 20.5M42.2088 11C42.3961 11.525 42.5 12.1048 42.5 12.7143C42.5 15.0812 40.933 17 39 17C37.067 17 35.5 15.0812 35.5 12.7143C35.5 12.1048 35.6039 11.525 35.7912 11M42.2088 11H35.7912M42.2088 11H46.708M35.7912 11H31.292M31.292 11C31.4258 11.525 31.5 12.1048 31.5 12.7143C31.5 15.0812 30.3807 17 29 17C27.6193 17 26.5 15.0812 26.5 12.7143C26.5 12.1048 26.5742 11.525 26.708 11M31.292 11H26.708M26.708 11H21.7002M51.292 11C51.4258 11.525 51.5 12.1048 51.5 12.7143C51.5 15.0812 50.3807 17 49 17C47.6193 17 46.5 15.0812 46.5 12.7143C46.5 12.1048 46.5742 11.525 46.708 11M51.292 11H46.708M51.292 11H55.2998M21.7002 11C21.5018 10.7685 21.2926 10.5458 21.073 10.3326C20.5906 9.86408 20.0634 9.4465 19.5 9.08528M16.7838 28.4567C15.3442 29.0522 13.8012 29.3587 12.243 29.3587C10.4382 29.3587 8.65116 29.0037 6.98378 28.314C5.3164 27.6243 3.80138 26.6134 2.52523 25.339C1.24907 24.0646 0.236773 22.5516 -0.453877 20.8865C-1.14453 19.2214 -1.5 17.4367 -1.5 15.6344C-1.5 13.5882 -1.09643 11.5444 -0.312327 9.654C0.471775 7.76358 1.62105 6.04591 3.06988 4.59905C4.51871 3.15218 6.23873 2.00447 8.13171 1.22143C10.0247 0.438396 12.0403 0 14.0893 0H31.0011M16.7838 28.4567H60.2162M31.0011 0C36.5151 0 38.2979 4.99924 38.5 7.49886M31.0011 0H45.9989M38.5 7.49886C38.7021 4.99924 40.4849 0 45.9989 0M55.2998 11C55.4982 10.7685 55.7074 10.5458 55.927 10.3326C56.4094 9.86408 56.9366 9.4465 57.5 9.08528M60.2162 28.4567C61.6558 29.0522 63.1988 29.3587 64.757 29.3587C66.5618 29.3587 68.3488 29.0037 70.0162 28.314C71.6836 27.6243 73.1986 26.6134 74.4748 25.339C75.7509 24.0646 76.7632 22.5516 77.4539 20.8865C78.1445 19.2214 78.5 17.4367 78.5 15.6344C78.5 13.5882 78.0964 11.5444 77.3123 9.654C76.5282 7.76358 75.379 6.04591 73.9301 4.59905C72.4813 3.15218 70.7613 2.00447 68.8683 1.22143C66.9753 0.438396 64.9597 0 62.9107 0H45.9989M13.4827 14.6503C13.7749 14.6503 14.0643 14.7078 14.3342 14.8195C14.6042 14.9311 14.8495 15.0948 15.0561 15.3012C15.2627 15.5075 15.4266 15.7525 15.5385 16.0221C15.6503 16.2917 15.7078 16.5806 15.7078 16.8724M63.5173 14.6503C63.2251 14.6503 62.9357 14.7078 62.6658 14.8195C62.3958 14.9311 62.1505 15.0948 61.9439 15.3012C61.7373 15.5075 61.5734 15.7525 61.4615 16.0221C61.3497 16.2917 61.2922 16.5806 61.2922 16.8724M19.5 9.08528H57.5M23.7245 20.5H53.2755" stroke="#173E88"/>
<path fill-rule="evenodd" clip-rule="evenodd" d="M16.9564 28.4567H16.7838C16.8417 28.4328 16.8993 28.4084 16.9567 28.3836L16.9564 28.4567Z" fill="#F2F7FF"/>
<path fill-rule="evenodd" clip-rule="evenodd" d="M16.9564 28.4567L16.9567 28.3836C16.8993 28.4084 16.8417 28.4328 16.7838 28.4567H16.9564Z" fill="#D9D9D9"/>
<path d="M16.9564 28.4567H16.7838M16.9564 28.4567L16.9567 28.3836C16.8993 28.4084 16.8417 28.4328 16.7838 28.4567M16.9564 28.4567L16.611 100M16.7838 28.4567C15.3442 29.0522 13.8012 29.3587 12.243 29.3587C10.4382 29.3587 8.65116 29.0037 6.98378 28.314C5.78947 27.82 4.67333 27.1612 3.66715 26.3588C3.2686 26.0409 2.8873 25.7006 2.52523 25.339C1.24907 24.0646 0.236773 22.5516 -0.453877 20.8865C-1.14453 19.2214 -1.5 17.4367 -1.5 15.6344C-1.5 13.5882 -1.09643 11.5444 -0.312327 9.654C0.471775 7.76358 1.62105 6.04591 3.06988 4.59905C4.51871 3.15218 6.23873 2.00447 8.13171 1.22143C10.0247 0.438396 12.0403 0 14.0893 0H62.9107C64.9597 0 66.9753 0.438396 68.8683 1.22143C70.7613 2.00447 72.4813 3.15218 73.9301 4.59905C75.379 6.04591 76.5282 7.76358 77.3123 9.654C78.0964 11.5444 78.5 13.5882 78.5 15.6344C78.5 17.4367 78.1445 19.2214 77.4539 20.8865C76.7632 22.5516 75.7509 24.0646 74.4748 25.339C74.1127 25.7006 73.7314 26.0409 73.3328 26.3588C72.3267 27.1612 71.2105 27.82 70.0162 28.314C68.3488 29.0037 66.5618 29.3587 64.757 29.3587C63.494 29.3587 62.2411 29.1574 61.0451 28.764L61.389 100" stroke="#173E88" stroke-linecap="round"/>
</g>
<defs>
<clipPath id="clip0_525_2990">
<rect width="77" height="50" fill="white"/>
</clipPath>
</defs>
</svg>
