<svg width="76" height="50" viewBox="0 0 76 50" fill="none" xmlns="http://www.w3.org/2000/svg">
<g clip-path="url(#clip0_525_2988)">
<mask id="mask0_525_2988" style="mask-type:alpha" maskUnits="userSpaceOnUse" x="1" y="33" width="74" height="67">
<rect x="1" y="33" width="74" height="67" fill="#D9D9D9"/>
</mask>
<g mask="url(#mask0_525_2988)">
<path d="M14.7288 34.675L38.5 34.675H62.2712L66 686.25H38.5H11L14.7288 34.675Z" fill="#F2F7FF" stroke="#173E88"/>
</g>
<path d="M0 0H76V3H0V0Z" fill="#F2F7FF" stroke="#173E88"/>
<path d="M3 3H73V9H3V3Z" fill="#F2F7FF" stroke="#173E88"/>
<path d="M5 9H71V9C71 12.3137 68.3137 15 65 15H11C7.68629 15 5 12.3137 5 9V9Z" fill="#F2F7FF" stroke="#173E88"/>
<path d="M8 15H68V17H8V15Z" fill="#F2F7FF" stroke="#173E88"/>
<path d="M8 17H68L65 19H11L8 17Z" fill="#F2F7FF" stroke="#173E88"/>
<path d="M11 19H65V29H11V19Z" fill="#F2F7FF" stroke="#173E88"/>
<rect x="8" y="29" width="60" height="2" rx="1" fill="#F2F7FF" stroke="#173E88"/>
<path d="M10 31H66V31C66 33.2091 64.2091 35 62 35H14C11.7909 35 10 33.2091 10 31V31Z" fill="#F2F7FF" stroke="#173E88"/>
<path d="M14.355 100L14.727 35H14C12.5194 35 11.2267 34.1956 10.5351 33C10.1948 32.4117 10 31.7286 10 31H9C8.44771 31 8 30.5523 8 30C8 29.4477 8.44772 29 9 29H11V19L8 17V15H11C7.68629 15 5 12.3137 5 9H3V3H0V0H76V3H73V9H71C71 12.3137 68.3137 15 65 15H68V17L65 19V29H67C67.5523 29 68 29.4477 68 30C68 30.5523 67.5523 31 67 31H66C66 31.7286 65.8052 32.4117 65.4649 33C64.8161 34.1215 63.6385 34.8988 62.273 34.9908L62.645 100" stroke="#173E88" stroke-linecap="round"/>
</g>
<defs>
<clipPath id="clip0_525_2988">
<rect width="76" height="50" fill="white"/>
</clipPath>
</defs>
</svg>
