<svg width="161" height="33" viewBox="0 0 161 33" fill="none" xmlns="http://www.w3.org/2000/svg">
<path d="M6.50781 11.5273L3.25586 23.5H0.501953L4.98438 9.28125H6.70312L6.50781 11.5273ZM9.07617 23.5L5.82422 11.5273L5.59961 9.28125H7.33789L11.8398 23.5H9.07617ZM9.16406 18.207V20.3848H2.64062V18.207H9.16406ZM15.3438 9.28125H19.7676C20.7116 9.28125 21.5156 9.44401 22.1797 9.76953C22.8438 10.0951 23.3483 10.5768 23.6934 11.2148C24.0449 11.8529 24.2207 12.6374 24.2207 13.5684C24.2207 14.3105 24.1133 14.9551 23.8984 15.502C23.6901 16.0423 23.3906 16.4948 23 16.8594C22.6159 17.224 22.1504 17.5072 21.6035 17.709L20.8125 18.1582H17.1504L17.1406 15.9805H19.709C20.1322 15.9805 20.4837 15.8861 20.7637 15.6973C21.0501 15.5085 21.2617 15.248 21.3984 14.916C21.5417 14.5775 21.6133 14.1901 21.6133 13.7539C21.6133 13.2786 21.5482 12.8717 21.418 12.5332C21.2943 12.1882 21.0957 11.9245 20.8223 11.7422C20.5553 11.5599 20.2038 11.4688 19.7676 11.4688H17.9609V23.5H15.3438V9.28125ZM21.8867 23.5L19.2207 17.1328H21.9648L24.6797 23.3633V23.5H21.8867ZM35.166 18.8125H37.7734C37.7279 19.8607 37.513 20.7493 37.1289 21.4785C36.7513 22.2012 36.2077 22.7513 35.498 23.1289C34.7949 23.5065 33.9388 23.6953 32.9297 23.6953C32.1615 23.6953 31.4746 23.5618 30.8691 23.2949C30.2637 23.0215 29.7493 22.6276 29.3262 22.1133C28.9095 21.599 28.5905 20.9674 28.3691 20.2188C28.1543 19.4635 28.0469 18.6009 28.0469 17.6309V15.1602C28.0469 14.1901 28.1608 13.3275 28.3887 12.5723C28.6165 11.8171 28.9421 11.179 29.3652 10.6582C29.7949 10.1374 30.3158 9.74349 30.9277 9.47656C31.5397 9.20964 32.2298 9.07617 32.998 9.07617C34.0137 9.07617 34.8633 9.26823 35.5469 9.65234C36.2305 10.0365 36.7578 10.5996 37.1289 11.3418C37.5 12.0775 37.7181 12.9759 37.7832 14.0371H35.1758C35.1497 13.347 35.0651 12.8001 34.9219 12.3965C34.7786 11.9863 34.554 11.6934 34.248 11.5176C33.9421 11.3418 33.5254 11.2539 32.998 11.2539C32.5879 11.2539 32.2331 11.3288 31.9336 11.4785C31.6341 11.6283 31.39 11.8626 31.2012 12.1816C31.0124 12.4941 30.8724 12.8945 30.7812 13.3828C30.6901 13.8711 30.6445 14.457 30.6445 15.1406V17.6309C30.6445 18.2884 30.6836 18.8613 30.7617 19.3496C30.8398 19.8379 30.9635 20.2448 31.1328 20.5703C31.3086 20.8893 31.543 21.1302 31.8359 21.293C32.1289 21.4492 32.4935 21.5273 32.9297 21.5273C33.457 21.5273 33.877 21.4492 34.1895 21.293C34.502 21.1302 34.7331 20.8535 34.8828 20.4629C35.0391 20.0658 35.1335 19.5156 35.166 18.8125ZM49.5391 15.1211V17.2988H43.6309V15.1211H49.5391ZM44.3145 9.28125V23.5H41.6973V9.28125H44.3145ZM51.502 9.28125V23.5H48.9043V9.28125H51.502Z" fill="#173E88"/>
<path d="M69.3531 5.25H73.5406V20.9688C73.5406 22.7083 73.2177 24.1198 72.5719 25.2031C71.926 26.2865 71.0458 27.0781 69.9312 27.5781C68.8167 28.0677 67.5615 28.3125 66.1656 28.3125C64.7385 28.3125 63.4677 28.0677 62.3531 27.5781C61.2385 27.0781 60.3635 26.2865 59.7281 25.2031C59.1031 24.1198 58.7906 22.7083 58.7906 20.9688V5.25H62.9625V20.9688C62.9625 22 63.0875 22.7969 63.3375 23.3594C63.5979 23.9219 63.9625 24.3073 64.4312 24.5156C64.9 24.724 65.4781 24.8281 66.1656 24.8281C66.8531 24.8281 67.4312 24.724 67.9 24.5156C68.3687 24.3073 68.7281 23.9219 68.9781 23.3594C69.2281 22.7969 69.3531 22 69.3531 20.9688V5.25ZM84.7875 5.25V28H80.6312V5.25H84.7875Z" fill="#173E88"/>
<path d="M91 8C91 3.58172 94.5817 0 99 0H153C157.418 0 161 3.58172 161 8V25C161 29.4183 157.418 33 153 33H99C94.5817 33 91 29.4183 91 25V8Z" fill="#D4E0F5"/>
<path d="M109.599 23.096L104.223 10.592H106.263L110.439 20.888L114.639 10.592H116.631L111.231 23.096H109.599ZM121.765 23V8.048L118.597 9.032L118.141 7.496L122.245 6.08H123.637V23H121.765ZM127.894 23V20.48H130.102V23H127.894ZM140.029 23.288C135.685 23.288 132.949 19.352 132.949 14.648V14.6C132.949 9.896 135.757 5.912 140.077 5.912C144.397 5.912 147.133 9.848 147.133 14.552V14.6C147.133 19.304 144.349 23.288 140.029 23.288ZM140.077 21.56C143.245 21.56 145.165 18.32 145.165 14.648V14.6C145.165 10.952 143.173 7.64 140.029 7.64C136.885 7.64 134.917 10.856 134.917 14.552V14.6C134.917 18.248 136.909 21.56 140.077 21.56Z" fill="#173E88"/>
</svg>
