<svg width="174" height="706" viewBox="0 0 174 706" fill="none" xmlns="http://www.w3.org/2000/svg">
<path d="M41 115C41 116.105 41.8954 117 43 117H106C107.105 117 108 116.105 108 115V114H41V115Z" fill="#F2F7FF" stroke="#173E88" stroke-width="0.5"/>
<path d="M43 117H106V123H43V117Z" fill="#F2F7FF" stroke="#173E88" stroke-width="0.5"/>
<path fill-rule="evenodd" clip-rule="evenodd" d="M57.08 159.766L56.8817 159.494C56.861 159.51 56.8404 159.526 56.8197 159.543C56.8057 159.554 56.7917 159.565 56.7777 159.576C56.8812 159.625 56.9822 159.688 57.08 159.766Z" fill="#F2F7FF"/>
<path fill-rule="evenodd" clip-rule="evenodd" d="M57.08 159.766L56.8817 159.494L56.8197 159.543L56.7777 159.576C56.8812 159.625 56.9822 159.688 57.08 159.766Z" fill="#F2F7FF"/>
<path fill-rule="evenodd" clip-rule="evenodd" d="M65.7501 140.25C66.3121 139.477 66.3608 138.922 66.1072 138.5C65.8667 138.1 65.3545 137.821 64.75 137.591C64.3762 137.449 63.967 137.326 63.5651 137.205C63.0941 137.063 62.6329 136.924 62.25 136.761C62.0617 136.681 61.8924 136.595 61.75 136.5C61.1018 136.068 60.1734 136.289 59.2878 136.842C58.5459 137.304 57.8341 137.999 57.3419 138.736C57.0619 139.155 56.853 139.588 56.7501 140C56.3501 141.6 57.2501 142.333 57.7501 142.5C58.3111 142.724 59.0427 142.731 59.8454 142.601C61.9041 142.266 64.431 141.029 65.7501 140.25Z" fill="#F2F7FF"/>
<path d="M53.1399 134.572C51.4778 134.467 49.4456 135.68 47.6481 137.145C45.9915 138.495 44.5343 140.059 43.75 141C43.25 141.5 42.25 142 42.25 140C42.4167 137.667 43.45 133 46.25 133C46.9427 133 47.6158 133 48.25 133.019C49.9767 133.072 51.4145 133.269 52.1721 134C52.4753 134.127 52.8749 134.325 53.322 134.59C53.2563 134.584 53.1958 134.578 53.1399 134.572Z" fill="#F2F7FF"/>
<path fill-rule="evenodd" clip-rule="evenodd" d="M64.7521 157C64.7686 156.868 64.7791 156.739 64.7839 156.615C64.8604 154.642 63.3669 153.746 61.7499 153.339C61.5049 153.277 61.2569 153.227 61.0112 153.185C60.5906 153.119 60.1908 153.094 59.8121 153.103C57.3367 153.159 55.7664 154.65 55.221 155.559L55.163 155.668C54.9863 156 54.8539 156.249 54.7318 156.537C54.6221 156.797 54.5207 157.088 54.4029 157.5C53.6029 160.3 54.75 160.5 55.9029 160C56.5927 159.666 56.5794 159.699 56.5725 159.716C56.5598 159.721 56.5707 159.72 56.5725 159.716C56.6087 159.702 56.65 159.679 56.7777 159.576L56.8197 159.543L56.8817 159.494C58.7524 158.023 60.5656 157.535 62.3188 157.281C62.8517 157.204 63.3791 157.148 63.901 157.093C64.1863 157.063 64.4701 157.033 64.7521 157Z" fill="#F2F7FF"/>
<path fill-rule="evenodd" clip-rule="evenodd" d="M58.2523 168.5C58.6875 165.724 58.616 163.522 58.2426 161.985C57.9803 160.906 57.5691 160.156 57.08 159.766C56.9822 159.688 56.8812 159.625 56.7777 159.576C56.65 159.679 56.6087 159.702 56.5725 159.716C56.5794 159.699 56.5927 159.666 55.9029 160C54.75 160.5 53.6029 160.3 54.4029 157.5C54.5207 157.088 54.6221 156.797 54.7318 156.537L53.25 154.5C50.25 151.5 46.25 154 45.75 156.5C45.35 158.5 46.5833 158 47.25 157.5C47.5715 156.3 48.7173 156 49.25 156C51.65 156 51.2498 160 50.7497 162C50.3497 165.6 51.9164 167.833 52.7497 168.5L58.2523 168.5Z" fill="#F2F7FF"/>
<path fill-rule="evenodd" clip-rule="evenodd" d="M68.2248 167.125C68.0145 161.968 66.6162 158.694 64.7839 156.615C64.7791 156.739 64.7686 156.868 64.7521 157C64.4701 157.033 64.1863 157.063 63.901 157.093C63.3791 157.148 62.8517 157.204 62.3188 157.281C60.5656 157.535 58.7524 158.023 56.8817 159.494L57.08 159.766C57.5691 160.156 57.9803 160.906 58.2426 161.985C58.616 163.522 58.6875 165.724 58.2523 168.5H68.2523C68.2523 168.027 68.243 167.569 68.2248 167.125Z" fill="#F2F7FF"/>
<path fill-rule="evenodd" clip-rule="evenodd" d="M71.2498 156.047C70.2806 157.647 68.466 162.207 68.7193 167.949C68.7273 168.131 68.7375 168.315 68.7498 168.5H81.25C81.1902 167.636 81.0784 166.51 80.9077 165.283C80.6099 163.142 80.1331 160.691 79.4411 158.777C79.0145 157.597 78.5061 156.621 77.9075 156.047C75.3663 158.956 73.6774 158.443 71.3006 156.097L71.2498 156.047Z" fill="#F2F7FF"/>
<path fill-rule="evenodd" clip-rule="evenodd" d="M78.7498 155C77.6026 153.709 74.8019 151.974 71.7492 153.809C71.2541 154.106 70.7523 154.497 70.2498 155C70.5981 155.379 70.9302 155.729 71.2498 156.047L71.3006 156.097C73.6774 158.443 75.3663 158.956 77.9075 156.047C78.178 155.737 78.4581 155.389 78.7498 155Z" fill="#F2F7FF"/>
<path d="M74.2498 141C74.2498 137.8 71.2498 136.167 69.7498 136.5C72.9341 133.743 74.8484 133.311 78.7498 136.5C75.1498 135.536 74.2498 139.598 74.2498 141Z" fill="#F2F7FF"/>
<path fill-rule="evenodd" clip-rule="evenodd" d="M68.7701 141.802C68.7212 141.931 68.6714 142.064 68.6205 142.2C68.1598 141.353 67.7613 140.728 67.5256 140.357L67.4572 140.25L66.1072 138.5C66.3608 138.922 66.3121 139.477 65.7501 140.25C64.431 141.029 61.9041 142.266 59.8454 142.601C61.7123 144.689 60.57 150.377 59.7502 153L59.8121 153.103C60.1908 153.094 60.5906 153.119 61.0112 153.185C61.2569 153.227 61.5049 153.277 61.7499 153.339C63.3669 153.746 64.8604 154.642 64.7839 156.615C66.6162 158.694 68.0145 161.968 68.2248 167.125L68.7193 167.949C68.466 162.207 70.2806 157.647 71.2498 156.047C70.9302 155.729 70.5981 155.379 70.2498 155C70.7523 154.497 71.2541 154.106 71.7492 153.809C74.8019 151.974 77.6026 153.709 78.7498 155C78.4581 155.389 78.178 155.737 77.9075 156.047C78.5061 156.621 79.0145 157.597 79.4411 158.777C80.9332 156.99 82.7804 153.311 81.7495 148.5C81.2067 145.967 80.5985 144.154 80.0669 142.706C79.9502 142.388 79.8372 142.088 79.7293 141.801C78.9713 139.787 78.4704 138.456 78.7498 136.5C75.1498 135.536 74.2498 139.598 74.2498 141C74.2498 137.8 71.2498 136.167 69.7498 136.5C70.0291 138.456 69.5281 139.787 68.7701 141.802Z" fill="#F2F7FF"/>
<path fill-rule="evenodd" clip-rule="evenodd" d="M91.92 159.766L92.1183 159.494C92.139 159.51 92.1596 159.526 92.1803 159.543C92.1943 159.554 92.2083 159.565 92.2223 159.576C92.1188 159.625 92.0178 159.688 91.92 159.766Z" fill="#F2F7FF"/>
<path fill-rule="evenodd" clip-rule="evenodd" d="M91.92 159.766L92.1183 159.494L92.1803 159.543L92.2223 159.576C92.1188 159.625 92.0178 159.688 91.92 159.766Z" fill="#F2F7FF"/>
<path fill-rule="evenodd" clip-rule="evenodd" d="M83.2499 140.25C82.6879 139.477 82.6392 138.922 82.8928 138.5C83.282 137.853 84.3831 137.521 85.4349 137.205C85.9059 137.063 86.3671 136.924 86.75 136.761C86.9383 136.681 87.1076 136.595 87.25 136.5C87.9075 136.062 88.853 136.296 89.75 136.865C90.4583 137.315 91.1363 137.974 91.6181 138.677C91.9182 139.114 92.1421 139.569 92.2499 140C92.6499 141.6 91.7499 142.333 91.2499 142.5C90.6889 142.724 89.9573 142.731 89.1546 142.601C87.0959 142.266 84.569 141.029 83.2499 140.25Z" fill="#F2F7FF"/>
<path d="M95.8601 134.572C97.5447 134.465 99.6095 135.713 101.425 137.205C103.051 138.541 104.477 140.073 105.25 141C105.75 141.5 106.75 142 106.75 140C106.583 137.667 105.55 133 102.75 133C102.057 133 101.384 133 100.75 133.019C99.0233 133.072 97.5855 133.269 96.8279 134C96.5247 134.127 96.1251 134.325 95.678 134.59C95.7437 134.584 95.8042 134.578 95.8601 134.572Z" fill="#F2F7FF"/>
<path fill-rule="evenodd" clip-rule="evenodd" d="M84.2479 157C84.2314 156.868 84.2209 156.739 84.2161 156.615C84.1396 154.642 85.6331 153.746 87.2501 153.339C87.4951 153.277 87.7431 153.227 87.9888 153.185C88.4094 153.119 88.8092 153.094 89.1879 153.103C91.6633 153.159 93.2337 154.65 93.779 155.559L93.837 155.668C94.0137 156 94.1461 156.249 94.2682 156.537C94.3779 156.797 94.4793 157.088 94.5971 157.5C95.3971 160.3 94.25 160.5 93.0971 160C92.4073 159.666 92.4206 159.699 92.4275 159.716C92.4293 159.72 92.4402 159.721 92.4275 159.716C92.3913 159.702 92.35 159.679 92.2223 159.576L92.1803 159.543L92.1183 159.494C90.2476 158.023 88.4344 157.535 86.6812 157.281C86.1483 157.204 85.6209 157.148 85.099 157.093C84.8137 157.063 84.5299 157.033 84.2479 157Z" fill="#F2F7FF"/>
<path fill-rule="evenodd" clip-rule="evenodd" d="M90.7477 168.5C90.3125 165.724 90.384 163.522 90.7574 161.985C91.0197 160.906 91.4309 160.156 91.92 159.766C92.0178 159.688 92.1188 159.625 92.2223 159.576C92.35 159.679 92.3913 159.702 92.4275 159.716C92.4206 159.699 92.4073 159.666 93.0971 160C94.25 160.5 95.3971 160.3 94.5971 157.5C94.4793 157.088 94.3779 156.797 94.2682 156.537L95.75 154.5C98.75 151.5 102.75 154 103.25 156.5C103.65 158.5 102.417 158 101.75 157.5C101.428 156.3 100.283 156 99.75 156C97.35 156 97.7502 160 98.2503 162C98.6503 165.6 97.0836 167.833 96.2503 168.5L90.7477 168.5Z" fill="#F2F7FF"/>
<path fill-rule="evenodd" clip-rule="evenodd" d="M80.7752 167.125C80.8014 166.482 80.846 165.868 80.9077 165.283C81.3408 161.17 82.6121 158.434 84.2161 156.615C84.2209 156.739 84.2314 156.868 84.2479 157C84.5299 157.033 84.8137 157.063 85.099 157.093C85.6209 157.148 86.1483 157.204 86.6812 157.281C88.4344 157.535 90.2476 158.023 92.1183 159.494L91.92 159.766C91.4309 160.156 91.0197 160.906 90.7574 161.985C90.384 163.522 90.3125 165.724 90.7477 168.5H80.7477C80.7477 168.027 80.757 167.569 80.7752 167.125Z" fill="#F2F7FF"/>
<path d="M57.7501 142.5C57.2501 142.333 56.3501 141.6 56.7501 140C56.853 139.588 57.0619 139.155 57.3419 138.736L57.25 138.5C56.355 136.71 54.6339 135.365 53.322 134.59C53.2563 134.584 53.1958 134.578 53.1399 134.572C51.4778 134.467 49.4456 135.68 47.6481 137.145H47.9675C50.4675 137.645 50.75 143.5 50.75 147.5C50.75 150.7 52.5833 153.667 53.25 154.5L54.7318 156.537C54.8539 156.249 54.9863 156 55.163 155.668L55.221 155.559C55.7664 154.65 57.3367 153.159 59.8121 153.103L59.7502 153C60.57 150.377 61.7123 144.689 59.8454 142.601C59.0427 142.731 58.3111 142.724 57.7501 142.5Z" fill="#F2F7FF"/>
<path d="M92.2499 140C92.6499 141.6 91.7499 142.333 91.2499 142.5C90.6889 142.724 89.9573 142.731 89.1546 142.601C87.2877 144.689 88.43 150.377 89.2498 153L89.1879 153.103C91.6633 153.159 93.2337 154.65 93.779 155.559L93.837 155.668C94.0137 156 94.1461 156.249 94.2682 156.537L95.75 154.5C96.4167 153.667 98.25 150.7 98.25 147.5C98.25 143.5 98.5325 137.645 101.032 137.145L101.425 137.205C99.6095 135.713 97.5447 134.465 95.8601 134.572C95.8042 134.578 95.7437 134.584 95.678 134.59C94.3661 135.365 92.645 136.71 91.75 138.5L91.6181 138.677C91.9182 139.114 92.1421 139.569 92.2499 140Z" fill="#F2F7FF"/>
<path fill-rule="evenodd" clip-rule="evenodd" d="M80.9077 165.283C80.6099 163.142 80.1331 160.691 79.4411 158.777C80.9332 156.99 82.7804 153.311 81.7495 148.5C81.2067 145.967 80.5985 144.154 80.0669 142.706L80.3795 142.2C80.8402 141.353 81.2387 140.728 81.4744 140.357L81.5428 140.25L82.8928 138.5C82.6392 138.922 82.6879 139.477 83.2499 140.25C84.569 141.029 87.0959 142.266 89.1546 142.601C87.2877 144.689 88.43 150.377 89.2498 153L89.1879 153.103C88.8092 153.094 88.4094 153.119 87.9888 153.185C87.7431 153.227 87.4951 153.277 87.2501 153.339C85.6331 153.746 84.1396 154.642 84.2161 156.615C82.6121 158.434 81.3408 161.17 80.9077 165.283Z" fill="#F2F7FF"/>
<path fill-rule="evenodd" clip-rule="evenodd" d="M78.7498 136.5C74.8484 133.311 72.9341 133.743 69.7498 136.5C70.0291 138.456 69.5281 139.787 68.7701 141.802C68.7212 141.931 68.6714 142.064 68.6205 142.2C68.1598 141.353 67.7613 140.728 67.5256 140.357L67.4572 140.25L66.1072 138.5C65.8667 138.1 65.3545 137.821 64.75 137.591C64.3762 137.449 63.967 137.326 63.5651 137.205C63.0941 137.063 62.6329 136.924 62.25 136.761V136.5C62.4167 132.333 64.25 123.9 70.25 123.5C71.4883 123.362 73.749 123.725 74.5 125.881C75.251 123.725 77.5117 123.362 78.75 123.5C84.75 123.9 86.5833 132.333 86.75 136.5V136.761C86.3671 136.924 85.9059 137.063 85.4349 137.205C84.3831 137.521 83.282 137.853 82.8928 138.5L81.5428 140.25L81.4744 140.357C81.2387 140.728 80.8402 141.353 80.3795 142.2L80.0669 142.706C79.9502 142.388 79.8372 142.088 79.7293 141.801C78.9713 139.787 78.4704 138.456 78.7498 136.5Z" fill="#F2F7FF"/>
<path fill-rule="evenodd" clip-rule="evenodd" d="M87.25 136.5C87.1076 136.595 86.9383 136.681 86.75 136.761V136.5C88.35 129.3 93.75 124.5 96.25 123H100.75C102.917 124.617 105.95 128.867 100.75 132.926C100.275 132.978 99.7735 133 99.25 133C97.5055 133 95.75 130 96.25 128.5C92.25 130.5 90.25 134.667 89.75 136.5V136.865C88.853 136.296 87.9075 136.062 87.25 136.5Z" fill="#F2F7FF"/>
<path d="M100.75 123C105.15 123 105.75 126.333 105.75 128C105.325 131.402 103.453 132.634 100.75 132.926C105.95 128.867 102.917 124.617 100.75 123Z" fill="#F2F7FF"/>
<path fill-rule="evenodd" clip-rule="evenodd" d="M62.25 136.761C62.0617 136.681 61.8924 136.595 61.75 136.5C61.1018 136.068 60.1734 136.289 59.2878 136.842L59.25 136.5C58.75 134.667 56.75 130.5 52.75 128.5C53.25 130 51.4945 133 49.75 133C49.2265 133 48.7254 132.978 48.25 132.926C43.05 128.867 46.0833 124.617 48.25 123H52.75C55.25 124.5 60.65 129.3 62.25 136.5V136.761Z" fill="#F2F7FF"/>
<path d="M43.25 128C43.25 126.333 43.85 123 48.25 123C46.0833 124.617 43.05 128.867 48.25 132.926C45.5469 132.634 43.6752 131.402 43.25 128Z" fill="#F2F7FF"/>
<path fill-rule="evenodd" clip-rule="evenodd" d="M59.2878 136.842C58.5459 137.304 57.8341 137.999 57.3419 138.736L57.25 138.5C56.355 136.71 54.6339 135.365 53.322 134.59C52.8749 134.325 52.4753 134.127 52.1721 134C51.4145 133.269 49.9767 133.072 48.25 133.019V132.926C48.7254 132.978 49.2265 133 49.75 133C51.4945 133 53.25 130 52.75 128.5C56.75 130.5 58.75 134.667 59.25 136.5L59.2878 136.842Z" fill="#F2F7FF"/>
<path fill-rule="evenodd" clip-rule="evenodd" d="M91.6181 138.677C91.1363 137.974 90.4583 137.315 89.75 136.865V136.5C90.25 134.667 92.25 130.5 96.25 128.5C95.75 130 97.5055 133 99.25 133C99.7735 133 100.275 132.978 100.75 132.926V133.019C99.0233 133.072 97.5855 133.269 96.8279 134C96.5247 134.127 96.1251 134.325 95.678 134.59C94.3661 135.365 92.645 136.71 91.75 138.5L91.6181 138.677Z" fill="#F2F7FF"/>
<path fill-rule="evenodd" clip-rule="evenodd" d="M70.25 123.5C64.25 123.9 62.4167 132.333 62.25 136.5C60.65 129.3 55.25 124.5 52.75 123H96.25C93.75 124.5 88.35 129.3 86.75 136.5C86.5833 132.333 84.75 123.9 78.75 123.5C77.5117 123.362 75.251 123.725 74.5 125.881C73.749 123.725 71.4883 123.362 70.25 123.5Z" fill="#F2F7FF"/>
<path d="M57.08 159.766L56.8817 159.494M57.08 159.766C56.9822 159.688 56.8812 159.625 56.7777 159.576M57.08 159.766C57.5691 160.156 57.9803 160.906 58.2426 161.985C58.616 163.522 58.6875 165.724 58.2523 168.5M56.8817 159.494C56.861 159.51 56.8404 159.526 56.8197 159.543M56.8817 159.494L56.8197 159.543M56.8817 159.494C58.7524 158.023 60.5656 157.535 62.3188 157.281C62.8517 157.204 63.3791 157.148 63.901 157.093C64.1863 157.063 64.4701 157.033 64.7521 157C64.7686 156.868 64.7791 156.739 64.7839 156.615M56.8197 159.543C56.8057 159.554 56.7917 159.565 56.7777 159.576M56.8197 159.543L56.7777 159.576M56.7777 159.576C56.65 159.679 56.6087 159.702 56.5725 159.716M66.1072 138.5C66.3608 138.922 66.3121 139.477 65.7501 140.25C64.431 141.029 61.9041 142.266 59.8454 142.601M66.1072 138.5C65.8667 138.1 65.3545 137.821 64.75 137.591M66.1072 138.5L67.4572 140.25L67.5256 140.357C67.7613 140.728 68.1598 141.353 68.6205 142.2M64.75 137.591C64.3762 137.449 63.967 137.326 63.5651 137.205C63.0941 137.063 62.6329 136.924 62.25 136.761M64.75 137.591V137.5C65.15 129.1 68.25 127.333 69.75 127.5C69.2141 129.5 70.5267 130.333 71.25 130.5C72.1843 130.9 73.8669 131.044 74.5 129.237C75.1331 131.044 76.8157 130.9 77.75 130.5C78.4733 130.333 79.7859 129.5 79.25 127.5C80.75 127.333 83.85 129.1 84.25 137.5M62.25 136.761C62.0617 136.681 61.8924 136.595 61.75 136.5C61.1018 136.068 60.1734 136.289 59.2878 136.842M62.25 136.761V136.5M59.2878 136.842C58.5459 137.304 57.8341 137.999 57.3419 138.736M59.2878 136.842L59.25 136.5C58.75 134.667 56.75 130.5 52.75 128.5M57.3419 138.736C57.0619 139.155 56.853 139.588 56.7501 140C56.3501 141.6 57.2501 142.333 57.7501 142.5C58.3111 142.724 59.0427 142.731 59.8454 142.601M57.3419 138.736L57.25 138.5C56.355 136.71 54.6339 135.365 53.322 134.59M59.8454 142.601C61.7123 144.689 60.57 150.377 59.7502 153L59.8121 153.103M53.1399 134.572C51.4778 134.467 49.4456 135.68 47.6481 137.145M53.1399 134.572C53.1958 134.578 53.2563 134.584 53.322 134.59M53.1399 134.572C53.2011 134.576 53.2618 134.582 53.322 134.59M53.1399 134.572C52.2833 134.482 52.5195 134.335 52.1721 134M47.6481 137.145C45.9915 138.495 44.5343 140.059 43.75 141C43.25 141.5 42.25 142 42.25 140C42.4167 137.667 43.45 133 46.25 133C46.9427 133 47.6158 133 48.25 133.019M47.6481 137.145H47.9675C50.4675 137.645 50.75 143.5 50.75 147.5C50.75 150.7 52.5833 153.667 53.25 154.5M48.25 133.019C49.9767 133.072 51.4145 133.269 52.1721 134M48.25 133.019V132.926M52.1721 134C52.4753 134.127 52.8749 134.325 53.322 134.59M64.7839 156.615C64.8604 154.642 63.3669 153.746 61.7499 153.339M64.7839 156.615C66.6162 158.694 68.0145 161.968 68.2248 167.125M61.7499 153.339C61.5049 153.277 61.2569 153.227 61.0112 153.185M61.7499 153.339C61.497 153.273 61.2508 153.223 61.0112 153.185M61.0112 153.185C60.5906 153.119 60.1908 153.094 59.8121 153.103M59.8121 153.103C57.3367 153.159 55.7664 154.65 55.221 155.559L55.163 155.668C54.9863 156 54.8539 156.249 54.7318 156.537M54.7318 156.537C54.6221 156.797 54.5207 157.088 54.4029 157.5C53.6029 160.3 54.75 160.5 55.9029 160C56.5927 159.666 56.5794 159.699 56.5725 159.716M54.7318 156.537L53.25 154.5M56.5725 159.716C56.5598 159.721 56.5707 159.72 56.5725 159.716ZM58.2523 168.5L52.7497 168.5C51.9164 167.833 50.3497 165.6 50.7497 162C51.2498 160 51.65 156 49.25 156C48.7173 156 47.5715 156.3 47.25 157.5C46.5833 158 45.35 158.5 45.75 156.5C46.25 154 50.25 151.5 53.25 154.5M58.2523 168.5H68.2523C68.2523 168.027 68.243 167.569 68.2248 167.125M68.2248 167.125L68.7193 167.949M71.2498 156.047C70.2806 157.647 68.466 162.207 68.7193 167.949M71.2498 156.047L71.3006 156.097C73.6774 158.443 75.3663 158.956 77.9075 156.047M71.2498 156.047C70.9302 155.729 70.5981 155.379 70.2498 155C70.7523 154.497 71.2541 154.106 71.7492 153.809C74.8019 151.974 77.6026 153.709 78.7498 155C78.4581 155.389 78.178 155.737 77.9075 156.047M68.7193 167.949C68.7273 168.131 68.7375 168.315 68.7498 168.5H81.25C81.1902 167.636 81.0784 166.51 80.9077 165.283M80.9077 165.283C80.6099 163.142 80.1331 160.691 79.4411 158.777M80.9077 165.283C80.846 165.868 80.8014 166.482 80.7752 167.125C80.757 167.569 80.7477 168.027 80.7477 168.5H90.7477M80.9077 165.283C81.3408 161.17 82.6121 158.434 84.2161 156.615M79.4411 158.777C79.0145 157.597 78.5061 156.621 77.9075 156.047M79.4411 158.777C80.9332 156.99 82.7804 153.311 81.7495 148.5C81.2067 145.967 80.5985 144.154 80.0669 142.706M69.7498 136.5C71.2498 136.167 74.2498 137.8 74.2498 141C74.2498 139.598 75.1498 135.536 78.7498 136.5M69.7498 136.5C72.9341 133.743 74.8484 133.311 78.7498 136.5M69.7498 136.5C70.0291 138.456 69.5281 139.787 68.7701 141.802C68.7212 141.931 68.6714 142.064 68.6205 142.2M78.7498 136.5C78.4704 138.456 78.9713 139.787 79.7293 141.801C79.8372 142.088 79.9502 142.388 80.0669 142.706M68.6205 142.2C68.0481 143.729 67.358 145.663 66.75 148.5C65.55 154.1 68.25 158.167 69.75 159.5M80.0669 142.706L80.3795 142.2C80.8402 141.353 81.2387 140.728 81.4744 140.357L81.5428 140.25L82.8928 138.5M91.92 159.766L92.1183 159.494M91.92 159.766C92.0178 159.688 92.1188 159.625 92.2223 159.576M91.92 159.766C91.4309 160.156 91.0197 160.906 90.7574 161.985C90.384 163.522 90.3125 165.724 90.7477 168.5M92.1183 159.494C92.139 159.51 92.1596 159.526 92.1803 159.543M92.1183 159.494L92.1803 159.543M92.1183 159.494C90.2476 158.023 88.4344 157.535 86.6812 157.281C86.1483 157.204 85.6209 157.148 85.099 157.093C84.8137 157.063 84.5299 157.033 84.2479 157C84.2314 156.868 84.2209 156.739 84.2161 156.615M92.1803 159.543C92.1943 159.554 92.2083 159.565 92.2223 159.576M92.1803 159.543L92.2223 159.576M92.2223 159.576C92.35 159.679 92.3913 159.702 92.4275 159.716M82.8928 138.5C82.6392 138.922 82.6879 139.477 83.2499 140.25C84.569 141.029 87.0959 142.266 89.1546 142.601M82.8928 138.5C83.282 137.853 84.3831 137.521 85.4349 137.205C85.9059 137.063 86.3671 136.924 86.75 136.761M86.75 136.761C86.9383 136.681 87.1076 136.595 87.25 136.5C87.9074 136.062 88.853 136.296 89.75 136.865M86.75 136.761V136.5M89.75 136.865C90.4583 137.315 91.1363 137.974 91.6181 138.677M89.75 136.865V136.5C90.25 134.667 92.25 130.5 96.25 128.5M91.6181 138.677C91.9182 139.114 92.1421 139.569 92.2499 140C92.6499 141.6 91.7499 142.333 91.2499 142.5C90.6889 142.724 89.9573 142.731 89.1546 142.601M91.6181 138.677L91.75 138.5C92.645 136.71 94.3661 135.365 95.678 134.59M89.1546 142.601C87.2877 144.689 88.43 150.377 89.2498 153L89.1879 153.103M95.8601 134.572C97.5447 134.465 99.6095 135.713 101.425 137.205M95.8601 134.572C95.8042 134.578 95.7437 134.584 95.678 134.59M95.8601 134.572C95.7989 134.576 95.7382 134.582 95.678 134.59M95.8601 134.572C96.7167 134.482 96.4805 134.335 96.8279 134M101.425 137.205C103.051 138.541 104.477 140.073 105.25 141C105.75 141.5 106.75 142 106.75 140C106.583 137.667 105.55 133 102.75 133C102.057 133 101.384 133 100.75 133.019M101.425 137.205L101.032 137.145C98.5325 137.645 98.25 143.5 98.25 147.5C98.25 150.7 96.4167 153.667 95.75 154.5M100.75 133.019C99.0233 133.072 97.5855 133.269 96.8279 134M100.75 133.019V132.926M96.8279 134C96.5247 134.127 96.1251 134.325 95.678 134.59M84.2161 156.615C84.1396 154.642 85.6331 153.746 87.2501 153.339M87.2501 153.339C87.4951 153.277 87.7431 153.227 87.9888 153.185M87.2501 153.339C87.503 153.273 87.7492 153.223 87.9888 153.185M87.9888 153.185C88.4094 153.119 88.8092 153.094 89.1879 153.103M89.1879 153.103C91.6633 153.159 93.2336 154.65 93.779 155.559L93.837 155.668C94.0137 156 94.1461 156.249 94.2682 156.537M94.2682 156.537C94.3779 156.797 94.4793 157.088 94.5971 157.5C95.3971 160.3 94.25 160.5 93.0971 160C92.4073 159.666 92.4206 159.699 92.4275 159.716M94.2682 156.537L95.75 154.5M92.4275 159.716C92.4402 159.721 92.4293 159.72 92.4275 159.716ZM90.7477 168.5L96.2503 168.5C97.0836 167.833 98.6503 165.6 98.2503 162C97.7502 160 97.35 156 99.75 156C100.283 156 101.428 156.3 101.75 157.5C102.417 158 103.65 158.5 103.25 156.5C102.75 154 98.75 151.5 95.75 154.5M62.25 136.5C62.4167 132.333 64.25 123.9 70.25 123.5C71.4883 123.362 73.749 123.725 74.5 125.881C75.251 123.725 77.5117 123.362 78.75 123.5C84.75 123.9 86.5833 132.333 86.75 136.5M62.25 136.5C60.65 129.3 55.25 124.5 52.75 123M86.75 136.5C88.35 129.3 93.75 124.5 96.25 123M96.25 123H100.75M96.25 123H52.75M100.75 123C102.917 124.617 105.95 128.867 100.75 132.926M100.75 123C105.15 123 105.75 126.333 105.75 128C105.325 131.402 103.453 132.634 100.75 132.926M100.75 132.926C100.275 132.978 99.7735 133 99.25 133C97.5055 133 95.75 130 96.25 128.5M96.25 128.5C97.0833 127.333 99.05 125.7 100.25 128.5M52.75 128.5C53.25 130 51.4945 133 49.75 133C49.2265 133 48.7254 132.978 48.25 132.926M52.75 128.5C51.9167 127.333 49.95 125.7 48.75 128.5M48.25 132.926C43.05 128.867 46.0833 124.617 48.25 123M48.25 132.926C45.5469 132.634 43.6752 131.402 43.25 128C43.25 126.333 43.85 123 48.25 123M48.25 123H52.75" stroke="#173E88" stroke-width="0.5"/>
<rect x="50" y="168.5" width="49" height="2" rx="1" fill="#F2F7FF" stroke="#173E88" stroke-width="0.5"/>
<path d="M52 170.5H97C97 172.157 95.6569 173.5 94 173.5H55C53.3431 173.5 52 172.157 52 170.5Z" fill="#F2F7FF" stroke="#173E88" stroke-width="0.5"/>
<rect x="54" y="173.5" width="41" height="2" rx="1" fill="#F2F7FF" stroke="#173E88" stroke-width="0.5"/>
<path d="M54.1864 175.5L74.5 175.5H94.8136L98 544H74.5H51L54.1864 175.5Z" fill="#F2F7FF" stroke="#173E88" stroke-width="0.5"/>
<rect x="46" y="544" width="57" height="4" rx="2" fill="#F2F7FF" stroke="#173E88" stroke-width="0.5"/>
<path d="M47.5 548H101.5C98.9439 550.531 99.5867 551.797 101.5 554H47.5C48.9989 551.657 49.3253 550.343 47.5 548Z" fill="#F2F7FF" stroke="#173E88" stroke-width="0.5"/>
<rect x="40" y="554" width="69" height="5" rx="2.5" fill="#F2F7FF" stroke="#173E88" stroke-width="0.5"/>
<path d="M40 559H109V566H40V559Z" fill="#F2F7FF" stroke="#173E88" stroke-width="0.5"/>
<path d="M72.5304 118C72.7383 116.304 73.9887 115 75.5 115C77.0113 115 78.2617 116.304 78.4696 118C78.4896 118.163 78.5 118.33 78.5 118.5C78.5 118.67 78.4896 118.837 78.4696 119C78.2617 120.696 77.0113 122 75.5 122C73.9887 122 72.7383 120.696 72.5304 119C72.5104 118.837 72.5 118.67 72.5 118.5C72.5 118.33 72.5104 118.163 72.5304 118Z" fill="#F2F7FF" stroke="#173E88" stroke-width="0.5"/>
<path d="M25 566H124L122 569H26.5L25 566Z" fill="#F2F7FF" stroke="#173E88" stroke-width="0.5"/>
<rect x="28" y="569" width="93" height="3" fill="#F2F7FF" stroke="#173E88" stroke-width="0.5"/>
<rect x="29" y="572" width="91" height="5" fill="#F2F7FF" stroke="#173E88" stroke-width="0.5"/>
<rect x="31" y="577" width="87" height="3" fill="#F2F7FF" stroke="#173E88" stroke-width="0.5"/>
<path d="M32 580H117C117 581.657 115.657 583 114 583H35C33.3431 583 32 581.657 32 580Z" fill="#F2F7FF" stroke="#173E88" stroke-width="0.5"/>
<rect x="36" y="583" width="77" height="3" rx="1.5" fill="#F2F7FF" stroke="#173E88" stroke-width="0.5"/>
<rect x="39" y="586" width="71" height="89" fill="#F2F7FF" stroke="#173E88" stroke-width="0.5"/>
<rect x="38" y="675" width="73" height="3" fill="#F2F7FF" stroke="#173E88" stroke-width="0.5"/>
<path d="M35 681C35 679.343 36.3431 678 38 678H111C112.657 678 114 679.343 114 681H35Z" fill="#F2F7FF" stroke="#173E88" stroke-width="0.5"/>
<rect x="34" y="681" width="81" height="3" fill="#F2F7FF" stroke="#173E88" stroke-width="0.5"/>
<rect x="34" y="684" width="81" height="21" fill="#F2F7FF" stroke="#173E88" stroke-width="0.5"/>
<g clip-path="url(#clip0_377_13492)">
<rect width="174" height="2" fill="#F2F7FF" stroke="#173E88" stroke-width="0.5"/>
<path d="M0 2H174V7H4.5C4.5 5 1.5 5.5 0 2Z" fill="#F2F7FF" stroke="#173E88" stroke-width="0.5"/>
<rect x="4" y="7" width="170" height="2" rx="1" fill="#F2F7FF" stroke="#173E88" stroke-width="0.5"/>
<rect x="7" y="9" width="167" height="8" fill="#F2F7FF" stroke="#173E88" stroke-width="0.5"/>
<path d="M14 17H174V25H14V17Z" fill="#F2F7FF"/>
<path d="M14 17H174V25H14V17Z" stroke="#173E88" stroke-width="0.5"/>
<path opacity="0.56" d="M22 17H35L34 22H23L22 17Z" fill="#F2F7FF" stroke="#173E88" stroke-width="0.5"/>
<path opacity="0.56" d="M45 17H58L57 22H46L45 17Z" fill="#F2F7FF" stroke="#173E88" stroke-width="0.5"/>
<path opacity="0.56" d="M68 17H81L80 22H69L68 17Z" fill="#F2F7FF" stroke="#173E88" stroke-width="0.5"/>
<path opacity="0.56" d="M91 17H104L103 22H92L91 17Z" fill="#F2F7FF" stroke="#173E88" stroke-width="0.5"/>
<path opacity="0.56" d="M114 17H127L126 22H115L114 17Z" fill="#F2F7FF" stroke="#173E88" stroke-width="0.5"/>
<path opacity="0.56" d="M137 17H150L149 22H138L137 17Z" fill="#F2F7FF" stroke="#173E88" stroke-width="0.5"/>
<path opacity="0.56" d="M160 17H173L172 22H161L160 17Z" fill="#F2F7FF" stroke="#173E88" stroke-width="0.5"/>
<path fill-rule="evenodd" clip-rule="evenodd" d="M174 25H33C33.5 26.6667 35.5 30 39.5 30H174V25Z" fill="#F2F7FF" stroke="#173E88" stroke-width="0.5"/>
<path d="M43 30H174V39H43V30Z" fill="#F2F7FF"/>
<path d="M43 30H174V39H43V30Z" stroke="#173E88" stroke-width="0.5"/>
<rect opacity="0.56" x="51" y="30" width="3" height="9" fill="#F2F7FF" stroke="#173E88" stroke-width="0.5"/>
<rect opacity="0.56" x="61" y="30" width="3" height="9" fill="#F2F7FF" stroke="#173E88" stroke-width="0.5"/>
<rect opacity="0.56" x="71" y="30" width="3" height="9" fill="#F2F7FF" stroke="#173E88" stroke-width="0.5"/>
<rect opacity="0.56" x="81" y="30" width="3" height="9" fill="#F2F7FF" stroke="#173E88" stroke-width="0.5"/>
<rect opacity="0.56" x="91" y="30" width="3" height="9" fill="#F2F7FF" stroke="#173E88" stroke-width="0.5"/>
<rect opacity="0.56" x="101" y="30" width="3" height="9" fill="#F2F7FF" stroke="#173E88" stroke-width="0.5"/>
<rect opacity="0.56" x="111" y="30" width="3" height="9" fill="#F2F7FF" stroke="#173E88" stroke-width="0.5"/>
<rect opacity="0.56" x="121" y="30" width="3" height="9" fill="#F2F7FF" stroke="#173E88" stroke-width="0.5"/>
<rect opacity="0.56" x="131" y="30" width="3" height="9" fill="#F2F7FF" stroke="#173E88" stroke-width="0.5"/>
<rect opacity="0.56" x="141" y="30" width="3" height="9" fill="#F2F7FF" stroke="#173E88" stroke-width="0.5"/>
<rect opacity="0.56" x="151" y="30" width="3" height="9" fill="#F2F7FF" stroke="#173E88" stroke-width="0.5"/>
<rect opacity="0.56" x="161" y="30" width="3" height="9" fill="#F2F7FF" stroke="#173E88" stroke-width="0.5"/>
<rect opacity="0.56" x="171" y="30" width="3" height="9" fill="#F2F7FF" stroke="#173E88" stroke-width="0.5"/>
<path fill-rule="evenodd" clip-rule="evenodd" d="M42 39H174V45H46.5C44.5 45 42.6667 41 42 39Z" fill="#F2F7FF" stroke="#173E88" stroke-width="0.5"/>
<path d="M54 45H174V79H54V45Z" fill="#F2F7FF" stroke="#173E88" stroke-width="0.5"/>
<path d="M44 79H174V83H44V79Z" fill="#F2F7FF" stroke="#173E88" stroke-width="0.5"/>
<path d="M46 83H174V87H48.4242L46 83Z" fill="#F2F7FF" stroke="#173E88" stroke-width="0.5"/>
<path d="M50 87H174V97H50V87Z" fill="#F2F7FF" stroke="#173E88" stroke-width="0.5"/>
<path d="M52 97H174V107H52V97Z" fill="#F2F7FF" stroke="#173E88" stroke-width="0.5"/>
<path d="M54 107H174V114H54V107Z" fill="#F2F7FF" stroke="#173E88" stroke-width="0.5"/>
</g>
<defs>
<clipPath id="clip0_377_13492">
<rect width="174" height="114" fill="white"/>
</clipPath>
</defs>
</svg>
