<svg width="325" height="349" viewBox="0 0 325 349" fill="none" xmlns="http://www.w3.org/2000/svg">
<g clip-path="url(#clip0_664_4709)">
<rect x="94.7188" y="11" width="136.562" height="7.18746" rx="3.59373" stroke="#173E88" stroke-width="0.596934"/>
<rect x="99.8311" y="18.1875" width="126.338" height="3.59373" rx="1.79687" stroke="#173E88" stroke-width="0.596934"/>
<rect x="102.251" y="21.7812" width="121.499" height="14.3749" rx="1.79687" stroke="#173E88" stroke-width="0.596934"/>
<path d="M106.446 36.1562H219.553V36.1562C219.553 42.1105 214.726 46.9374 208.772 46.9374H117.227C111.273 46.9374 106.446 42.1105 106.446 36.1562V36.1562Z" stroke="#173E88" stroke-width="0.596934"/>
<path d="M116.01 46.9375H209.99V50.1719C209.99 53.149 207.577 55.5625 204.6 55.5625H121.4C118.423 55.5625 116.01 53.149 116.01 50.1719V46.9375Z" stroke="#173E88" stroke-width="0.596934"/>
<rect x="121.004" y="55.5625" width="83.9917" height="11.4043" stroke="#173E88" stroke-width="0.596934"/>
<rect x="117.722" y="66.9668" width="90.5557" height="7.18746" rx="3.59373" stroke="#173E88" stroke-width="0.596934"/>
<path d="M162.999 782.812V783.111H163.297V782.812H162.999ZM109.812 782.812L109.513 782.808L109.508 783.111H109.812V782.812ZM121.007 74.1553V73.8568H120.713L120.708 74.1506L121.007 74.1553ZM162.999 74.1553H163.297V73.8568H162.999V74.1553ZM204.993 74.1543L205.292 74.1496L205.287 73.8558H204.993V74.1543ZM216.188 782.812V783.111H216.492L216.487 782.808L216.188 782.812ZM163.001 782.812H162.703V783.111H163.001V782.812ZM163.001 74.1543V73.8558H162.703V74.1543H163.001ZM162.999 782.812V782.514H109.812V782.812V783.111H162.999V782.812ZM109.812 782.812L110.11 782.817L121.305 74.16L121.007 74.1553L120.708 74.1506L109.513 782.808L109.812 782.812ZM121.007 74.1553V74.4537H162.999V74.1553V73.8568H121.007V74.1553ZM162.999 74.1553H162.701V782.812H162.999H163.297V74.1553H162.999ZM204.993 74.1543L204.695 74.159L215.89 782.817L216.188 782.812L216.487 782.808L205.292 74.1496L204.993 74.1543ZM216.188 782.812V782.514H163.001V782.812V783.111H216.188V782.812ZM163.001 782.812H163.299V74.1543H163.001H162.703V782.812H163.001ZM163.001 74.1543V74.4528H204.993V74.1543V73.8558H163.001V74.1543Z" fill="#173E88"/>
<path d="M109.998 781.686H137.54M216.008 781.686H189.852M163.696 781.686H137.54M163.696 781.686H189.852M163.696 781.686V74.1543M137.54 781.686L140.53 74.1543M189.852 781.686L186.862 74.1543M205.59 94.9077L205.289 74.1543H186.862M205.59 94.9077L206.722 169.578M205.59 94.9077H120.921M206.722 169.578L207.855 244.247M206.722 169.578H119.734M207.855 244.247L208.988 318.917M207.855 244.247H118.546M208.988 318.917L210.12 393.587M208.988 318.917H117.358M210.12 393.587L211.253 468.257M210.12 393.587H116.171M211.253 468.257L212.386 542.927M211.253 468.257H114.983M212.386 542.927L213.518 617.596M212.386 542.927H113.795M213.518 617.596L214.651 692.266H111.42L112.608 617.596M213.518 617.596H112.608M112.608 617.596L113.795 542.927M113.795 542.927L114.983 468.257M114.983 468.257L116.171 393.587M116.171 393.587L117.358 318.917M117.358 318.917L118.546 244.247M118.546 244.247L119.734 169.578M119.734 169.578L120.921 94.9077M120.921 94.9077L121.236 74.1543H140.53M140.53 74.1543H163.696M163.696 74.1543H186.862" stroke="#173E88" stroke-width="0.596934" stroke-linecap="round"/>
<path d="M225.448 18.1874L228.763 18.1875C230.747 18.1875 232.355 16.5785 232.355 14.5937C232.355 12.609 230.747 11 228.763 11H99.4295C97.4454 11 95.8369 12.609 95.8369 14.5937C95.8369 16.5785 97.4454 18.1875 99.4295 18.1875L102.743 18.1874M225.448 18.1874H102.743M225.448 18.1874V18.1874ZM225.448 18.1874C226.435 18.194 227.245 18.996 227.245 19.9843C227.245 20.9767 226.44 21.7812 225.448 21.7812L223.03 21.7812C224.022 21.7812 224.826 22.5857 224.826 23.578V34.3592C224.826 35.3516 224.022 36.1561 223.03 36.1561L220.631 36.1561C220.631 42.1039 215.816 46.9268 209.873 46.9373H211.071V50.1717C211.071 53.016 208.87 55.3602 206.078 55.5624M102.743 18.1874V18.1874ZM102.743 18.1874C101.757 18.194 100.947 18.996 100.947 19.9843C100.947 20.9767 101.751 21.7812 102.743 21.7812L105.162 21.7812C104.17 21.7812 103.366 22.5857 103.366 23.578V34.3592C103.366 35.3516 104.17 36.1561 105.162 36.1561L107.56 36.1561C107.56 42.1039 112.375 46.9268 118.319 46.9373H117.121V50.1717C117.121 53.0158 119.321 55.3599 122.113 55.5624M122.113 55.5624C122.2 55.5687 122.287 55.5666 122.376 55.5644M122.113 55.5624L122.376 55.5644M122.113 55.5624H122.479M122.113 55.5624V66.9667M122.376 55.5644C122.41 55.5636 122.445 55.5627 122.479 55.5624M122.376 55.5644L122.479 55.5624M205.712 55.5624C205.747 55.5627 205.781 55.5636 205.816 55.5644M205.712 55.5624L205.816 55.5644M205.712 55.5624H206.078M205.816 55.5644C205.904 55.5665 205.991 55.5687 206.078 55.5624M205.816 55.5644L206.078 55.5624M206.078 55.5624V66.9667M122.113 66.9667L122.316 66.9651M122.113 66.9667C122.164 66.9647 122.26 66.9638 122.316 66.9651M122.113 66.9667C122.113 66.9667 122.1 66.9672 122.113 66.9667ZM122.113 66.9667C122.171 66.9618 122.246 66.9635 122.316 66.9651M122.113 66.9667L122.395 66.9665M122.113 66.9667C120.275 67.1245 118.833 68.6804 118.833 70.5602C118.833 72.545 120.441 74.154 122.425 74.154H205.767C207.751 74.154 209.36 72.545 209.36 70.5602C209.36 68.6799 207.917 67.1238 206.078 66.9667M122.316 66.9651L122.395 66.9665M122.316 66.9651C122.343 66.9657 122.37 66.9663 122.395 66.9665M122.316 66.9651V66.9651ZM205.797 66.9665L205.877 66.9651M205.797 66.9665C205.822 66.9663 205.849 66.9657 205.877 66.9651M205.797 66.9665L206.078 66.9667M205.877 66.9651L206.078 66.9667M205.877 66.9651C205.947 66.9635 206.021 66.9618 206.078 66.9667" stroke="#173E88" stroke-width="1.7908"/>
<path d="M138.653 781.688H164.809H190.965H217.121L214.632 617.598L213.499 542.929L212.366 468.259L211.234 393.589L210.101 318.919L208.968 244.249L207.836 169.58L206.703 94.9097L206.403 74.1562H187.975H164.809H141.643H122.349L122.034 94.9097L120.847 169.58L119.659 244.249L118.472 318.919L117.284 393.589L116.096 468.259L114.909 542.929L113.721 617.598L111.111 781.688H138.653Z" stroke="#173E88" stroke-width="1.7908" stroke-linecap="round"/>
</g>
<defs>
<clipPath id="clip0_664_4709">
<rect width="325" height="349" fill="white"/>
</clipPath>
</defs>
</svg>
