<svg width="325" height="416" viewBox="0 0 325 416" fill="none" xmlns="http://www.w3.org/2000/svg">
<g clip-path="url(#clip0_664_4709)">
<rect x="94.7188" y="150" width="136.562" height="7.18746" rx="3.59373" stroke="#173E88" stroke-width="0.596934"/>
<rect x="99.8311" y="157.188" width="126.338" height="3.59373" rx="1.79687" stroke="#173E88" stroke-width="0.596934"/>
<rect x="102.251" y="160.781" width="121.499" height="14.3749" rx="1.79687" stroke="#173E88" stroke-width="0.596934"/>
<path d="M106.446 175.156H219.553V175.156C219.553 181.111 214.726 185.937 208.772 185.937H117.227C111.273 185.937 106.446 181.111 106.446 175.156V175.156Z" stroke="#173E88" stroke-width="0.596934"/>
<path d="M116.01 185.938H209.99V189.172C209.99 192.149 207.577 194.562 204.6 194.562H121.4C118.423 194.562 116.01 192.149 116.01 189.172V185.938Z" stroke="#173E88" stroke-width="0.596934"/>
<rect x="121.004" y="194.562" width="83.9917" height="11.4043" stroke="#173E88" stroke-width="0.596934"/>
<rect x="117.722" y="205.967" width="90.5557" height="7.18746" rx="3.59373" stroke="#173E88" stroke-width="0.596934"/>
<path d="M162.999 921.812V922.111H163.297V921.812H162.999ZM109.812 921.812L109.513 921.808L109.508 922.111H109.812V921.812ZM121.007 213.155V212.857H120.713L120.708 213.151L121.007 213.155ZM162.999 213.155H163.297V212.857H162.999V213.155ZM204.993 213.154L205.292 213.15L205.287 212.856H204.993V213.154ZM216.188 921.812V922.111H216.492L216.487 921.808L216.188 921.812ZM163.001 921.812H162.703V922.111H163.001V921.812ZM163.001 213.154V212.856H162.703V213.154H163.001ZM162.999 921.812V921.514H109.812V921.812V922.111H162.999V921.812ZM109.812 921.812L110.11 921.817L121.305 213.16L121.007 213.155L120.708 213.151L109.513 921.808L109.812 921.812ZM121.007 213.155V213.454H162.999V213.155V212.857H121.007V213.155ZM162.999 213.155H162.701V921.812H162.999H163.297V213.155H162.999ZM204.993 213.154L204.695 213.159L215.89 921.817L216.188 921.812L216.487 921.808L205.292 213.15L204.993 213.154ZM216.188 921.812V921.514H163.001V921.812V922.111H216.188V921.812ZM163.001 921.812H163.299V213.154H163.001H162.703V921.812H163.001ZM163.001 213.154V213.453H204.993V213.154V212.856H163.001V213.154Z" fill="#173E88"/>
<path d="M109.998 920.686H137.54M216.008 920.686H189.852M163.696 920.686H137.54M163.696 920.686H189.852M163.696 920.686V213.154M137.54 920.686L140.53 213.154M189.852 920.686L186.862 213.154M205.59 233.908L205.289 213.154H186.862M205.59 233.908L206.722 308.578M205.59 233.908H120.921M206.722 308.578L207.855 383.247M206.722 308.578H119.734M207.855 383.247L208.988 457.917M207.855 383.247H118.546M208.988 457.917L210.12 532.587M208.988 457.917H117.358M210.12 532.587L211.253 607.257M210.12 532.587H116.171M211.253 607.257L212.386 681.927M211.253 607.257H114.983M212.386 681.927L213.518 756.596M212.386 681.927H113.795M213.518 756.596L214.651 831.266H111.42L112.608 756.596M213.518 756.596H112.608M112.608 756.596L113.795 681.927M113.795 681.927L114.983 607.257M114.983 607.257L116.171 532.587M116.171 532.587L117.358 457.917M117.358 457.917L118.546 383.247M118.546 383.247L119.734 308.578M119.734 308.578L120.921 233.908M120.921 233.908L121.236 213.154H140.53M140.53 213.154H163.696M163.696 213.154H186.862" stroke="#173E88" stroke-width="0.596934" stroke-linecap="round"/>
<path d="M225.448 157.187L228.763 157.187C230.747 157.187 232.355 155.578 232.355 153.594C232.355 151.609 230.747 150 228.763 150H99.4295C97.4454 150 95.8369 151.609 95.8369 153.594C95.8369 155.578 97.4454 157.187 99.4295 157.187L102.743 157.187M225.448 157.187H102.743M225.448 157.187V157.187ZM225.448 157.187C226.435 157.194 227.245 157.996 227.245 158.984C227.245 159.977 226.44 160.781 225.448 160.781L223.03 160.781C224.022 160.781 224.826 161.586 224.826 162.578V173.359C224.826 174.352 224.022 175.156 223.03 175.156L220.631 175.156C220.631 181.104 215.816 185.927 209.873 185.937H211.071V189.172C211.071 192.016 208.87 194.36 206.078 194.562M102.743 157.187V157.187ZM102.743 157.187C101.757 157.194 100.947 157.996 100.947 158.984C100.947 159.977 101.751 160.781 102.743 160.781L105.162 160.781C104.17 160.781 103.366 161.586 103.366 162.578V173.359C103.366 174.352 104.17 175.156 105.162 175.156L107.56 175.156C107.56 181.104 112.375 185.927 118.319 185.937H117.121V189.172C117.121 192.016 119.321 194.36 122.113 194.562M122.113 194.562C122.2 194.569 122.287 194.567 122.376 194.564M122.113 194.562L122.376 194.564M122.113 194.562H122.479M122.113 194.562V205.967M122.376 194.564C122.41 194.564 122.445 194.563 122.479 194.562M122.376 194.564L122.479 194.562M205.712 194.562C205.747 194.563 205.781 194.564 205.816 194.564M205.712 194.562L205.816 194.564M205.712 194.562H206.078M205.816 194.564C205.904 194.567 205.991 194.569 206.078 194.562M205.816 194.564L206.078 194.562M206.078 194.562V205.967M122.113 205.967L122.316 205.965M122.113 205.967C122.164 205.965 122.26 205.964 122.316 205.965M122.113 205.967C122.113 205.967 122.1 205.967 122.113 205.967ZM122.113 205.967C122.171 205.962 122.246 205.963 122.316 205.965M122.113 205.967L122.395 205.967M122.113 205.967C120.275 206.125 118.833 207.68 118.833 209.56C118.833 211.545 120.441 213.154 122.425 213.154H205.767C207.751 213.154 209.36 211.545 209.36 209.56C209.36 207.68 207.917 206.124 206.078 205.967M122.316 205.965L122.395 205.967M122.316 205.965C122.343 205.966 122.37 205.966 122.395 205.967M122.316 205.965V205.965ZM205.797 205.967L205.877 205.965M205.797 205.967C205.822 205.966 205.849 205.966 205.877 205.965M205.797 205.967L206.078 205.967M205.877 205.965L206.078 205.967M205.877 205.965C205.947 205.963 206.021 205.962 206.078 205.967" stroke="#173E88" stroke-width="1.7908"/>
<path d="M138.653 920.688H164.809H190.965H217.121L214.632 756.598L213.499 681.929L212.366 607.259L211.234 532.589L210.101 457.919L208.968 383.249L207.836 308.58L206.703 233.91L206.403 213.156H187.975H164.809H141.643H122.349L122.034 233.91L120.847 308.58L119.659 383.249L118.472 457.919L117.284 532.589L116.096 607.259L114.909 681.929L113.721 756.598L111.111 920.688H138.653Z" stroke="#173E88" stroke-width="1.7908" stroke-linecap="round"/>
<rect x="140.727" y="37.75" width="46.4848" height="46.5" rx="23.2424" fill="#F0F5FF"/>
<rect x="140.727" y="37.75" width="46.4848" height="46.5" rx="23.2424" stroke="#173E88" stroke-width="1.5"/>
<path d="M163.977 25L163.977 37.75" stroke="#3561B9" stroke-width="1.5"/>
<path d="M163.977 85L163.977 97.75" stroke="#3561B9" stroke-width="1.5"/>
<path d="M187.227 61H199.977" stroke="#3561B9" stroke-width="1.5"/>
<path d="M127.977 61H140.727" stroke="#3561B9" stroke-width="1.5"/>
<path d="M167.38 68C167.246 68 167.16 67.9333 167.12 67.8L166.52 65.84C166.493 65.7867 166.46 65.76 166.42 65.76H161.5C161.46 65.76 161.426 65.7867 161.4 65.84L160.82 67.8C160.78 67.9333 160.693 68 160.56 68H158.02C157.94 68 157.88 67.98 157.84 67.94C157.8 67.8867 157.793 67.8133 157.82 67.72L162.14 54.2C162.18 54.0667 162.266 54 162.4 54H165.54C165.673 54 165.76 54.0667 165.8 54.2L170.12 67.72C170.133 67.7467 170.14 67.78 170.14 67.82C170.14 67.94 170.066 68 169.92 68H167.38ZM162.12 63.46C162.106 63.54 162.133 63.58 162.2 63.58H165.72C165.8 63.58 165.826 63.54 165.8 63.46L164 57.52C163.986 57.4667 163.966 57.4467 163.94 57.46C163.913 57.46 163.893 57.48 163.88 57.52L162.12 63.46Z" fill="#173E88"/>
<line x1="163.47" y1="106" x2="163.47" y2="1147" stroke="#3561B9" stroke-dasharray="10 10"/>
</g>
<defs>
<clipPath id="clip0_664_4709">
<rect width="325" height="416" fill="white"/>
</clipPath>
</defs>
</svg>
