<svg width="77" height="101" viewBox="0 0 77 101" fill="none" xmlns="http://www.w3.org/2000/svg">
<mask id="mask0_606_15978" style="mask-type:alpha" maskUnits="userSpaceOnUse" x="1" y="60" width="75" height="40">
<rect x="1.5" y="60" width="74" height="40" fill="#D9D9D9"/>
</mask>
<g mask="url(#mask0_606_15978)">
<path d="M19.0508 61.5L38.5 61.5H57.9492L61 450.5H38.5H16L19.0508 61.5Z" fill="#F0F5FF" stroke="#2855AD" stroke-width="0.5"/>
</g>
<path d="M5 1.5C5 2.60457 5.89543 3.5 7 3.5H70C71.1046 3.5 72 2.60457 72 1.5V0.5H5V1.5Z" fill="#F0F5FF" stroke="#2855AD" stroke-width="0.5"/>
<path d="M7 3.5H70V9.5H7V3.5Z" fill="#F0F5FF" stroke="#2855AD" stroke-width="0.5"/>
<path fill-rule="evenodd" clip-rule="evenodd" d="M21.08 46.2662L20.8817 45.9935C20.861 46.0098 20.8404 46.0261 20.8197 46.0426C20.8057 46.0537 20.7917 46.065 20.7777 46.0762C20.8812 46.1249 20.9822 46.1884 21.08 46.2662Z" fill="#F0F5FF"/>
<path fill-rule="evenodd" clip-rule="evenodd" d="M21.08 46.2662L20.8817 45.9935L20.8197 46.0426L20.7777 46.0762C20.8812 46.1249 20.9822 46.1884 21.08 46.2662Z" fill="#F0F5FF"/>
<path fill-rule="evenodd" clip-rule="evenodd" d="M29.7501 26.75C30.3121 25.9773 30.3608 25.4217 30.1072 25C29.8667 24.6003 29.3545 24.3209 28.75 24.0911C28.3762 23.9489 27.967 23.8257 27.5651 23.7046C27.0941 23.5627 26.6329 23.4238 26.25 23.2609C26.0617 23.1808 25.8924 23.0949 25.75 23C25.1018 22.5679 24.1734 22.7893 23.2878 23.3417C22.5459 23.8043 21.8341 24.499 21.3419 25.2361C21.0619 25.6553 20.853 26.0883 20.7501 26.5C20.3501 28.1 21.2501 28.8333 21.7501 29C22.3111 29.2244 23.0427 29.2311 23.8454 29.1007C25.9041 28.7661 28.431 27.5294 29.7501 26.75Z" fill="#F0F5FF"/>
<path d="M17.1399 21.0725C15.4778 20.9668 13.4456 22.1804 11.6481 23.6453C9.99149 24.9953 8.5343 26.5588 7.75 27.5C7.25 28 6.25 28.5 6.25 26.5C6.41667 24.1667 7.45 19.5 10.25 19.5C10.9427 19.5 11.6158 19.5 12.25 19.5194C13.9767 19.5722 15.4145 19.7686 16.1721 20.5C16.4753 20.6271 16.8749 20.8252 17.322 21.0895C17.2563 21.0841 17.1958 21.0784 17.1399 21.0725Z" fill="#F0F5FF"/>
<path fill-rule="evenodd" clip-rule="evenodd" d="M28.7521 43.5C28.7686 43.3678 28.7791 43.2394 28.7839 43.1148C28.8604 41.142 27.3669 40.2458 25.7499 39.8387C25.5049 39.777 25.2569 39.7265 25.0112 39.6853C24.5906 39.6195 24.1908 39.5945 23.8121 39.6031C21.3367 39.6592 19.7664 41.1504 19.221 42.0594L19.163 42.1684C18.9863 42.5003 18.8539 42.749 18.7318 43.0375C18.6221 43.2965 18.5207 43.5876 18.4029 44C17.6029 46.7999 18.75 47 19.9029 46.5C20.5927 46.1659 20.5794 46.1987 20.5725 46.2158C20.5598 46.2209 20.5707 46.2204 20.5725 46.2158C20.6087 46.2015 20.65 46.179 20.7777 46.0762L20.8197 46.0426L20.8817 45.9935C22.7524 44.5231 24.5656 44.0351 26.3188 43.781C26.8517 43.7038 27.3791 43.6482 27.901 43.5931C28.1863 43.563 28.4701 43.5331 28.7521 43.5Z" fill="#F0F5FF"/>
<path fill-rule="evenodd" clip-rule="evenodd" d="M22.2523 55C22.6875 52.2242 22.616 50.0216 22.2426 48.4853C21.9803 47.406 21.5691 46.6555 21.08 46.2662C20.9822 46.1884 20.8812 46.1249 20.7777 46.0762C20.65 46.179 20.6087 46.2015 20.5725 46.2158C20.5794 46.1987 20.5927 46.1659 19.9029 46.5C18.75 47 17.6029 46.7999 18.4029 44C18.5207 43.5876 18.6221 43.2965 18.7318 43.0375L17.25 41C14.25 38 10.25 40.5 9.74999 43C9.34999 45 10.5833 44.5 11.25 44C11.5715 42.8 12.7173 42.5 13.25 42.5C15.65 42.5 15.2498 46.5 14.7497 48.5C14.3497 52.1 15.9164 54.3334 16.7497 55L22.2523 55Z" fill="#F0F5FF"/>
<path fill-rule="evenodd" clip-rule="evenodd" d="M32.2248 53.6247C32.0145 48.4677 30.6162 45.1935 28.7839 43.1148C28.7791 43.2394 28.7686 43.3678 28.7521 43.5C28.4701 43.5331 28.1863 43.563 27.901 43.5931C27.3791 43.6482 26.8517 43.7038 26.3188 43.781C24.5656 44.0351 22.7524 44.5231 20.8817 45.9935L21.08 46.2662C21.5691 46.6555 21.9803 47.406 22.2426 48.4853C22.616 50.0216 22.6875 52.2242 22.2523 55H32.2523C32.2523 54.5273 32.243 54.069 32.2248 53.6247Z" fill="#F0F5FF"/>
<path fill-rule="evenodd" clip-rule="evenodd" d="M35.2498 42.547C34.2806 44.1471 32.466 48.7071 32.7193 54.4488C32.7273 54.6314 32.7375 54.8151 32.7498 55H45.25C45.1902 54.1356 45.0784 53.0101 44.9077 51.7828C44.6099 49.6417 44.1331 47.1909 43.4411 45.2768C43.0145 44.0967 42.5061 43.1207 41.9075 42.547C39.3663 45.4556 37.6774 44.9432 35.3006 42.5973L35.2498 42.547Z" fill="#F0F5FF"/>
<path fill-rule="evenodd" clip-rule="evenodd" d="M42.7498 41.5C41.6026 40.2093 38.8019 38.4745 35.7492 40.3086C35.2541 40.6061 34.7523 40.9975 34.2498 41.5C34.5981 41.8791 34.9302 42.2294 35.2498 42.547L35.3006 42.5973C37.6774 44.9432 39.3663 45.4556 41.9075 42.547C42.178 42.2374 42.4581 41.889 42.7498 41.5Z" fill="#F0F5FF"/>
<path d="M38.2498 27.5C38.2498 24.3 35.2498 22.6669 33.7498 23.0002C36.9341 20.2432 38.8484 19.8113 42.7498 23.0002C39.1498 22.0356 38.2498 26.0981 38.2498 27.5Z" fill="#F0F5FF"/>
<path fill-rule="evenodd" clip-rule="evenodd" d="M32.7701 28.3015C32.7212 28.4313 32.6714 28.5639 32.6205 28.6996C32.1598 27.8532 31.7613 27.2275 31.5256 26.8575L31.4572 26.75L30.1072 25C30.3608 25.4217 30.3121 25.9773 29.7501 26.75C28.431 27.5294 25.9041 28.7661 23.8454 29.1007C25.7123 31.1891 24.57 36.8767 23.7502 39.5L23.8121 39.6031C24.1908 39.5945 24.5906 39.6195 25.0112 39.6853C25.2569 39.7265 25.5049 39.777 25.7499 39.8387C27.3669 40.2458 28.8604 41.142 28.7839 43.1148C30.6162 45.1935 32.0145 48.4677 32.2248 53.6247L32.7193 54.4488C32.466 48.7071 34.2806 44.1471 35.2498 42.547C34.9302 42.2294 34.5981 41.8791 34.2498 41.5C34.7523 40.9975 35.2541 40.6061 35.7492 40.3086C38.8019 38.4745 41.6026 40.2093 42.7498 41.5C42.4581 41.889 42.178 42.2374 41.9075 42.547C42.5061 43.1207 43.0145 44.0967 43.4411 45.2768C44.9332 43.49 46.7804 39.8108 45.7495 35.0002C45.2067 32.4671 44.5985 30.6543 44.0669 29.2062C43.9502 28.8882 43.8372 28.5879 43.7293 28.3013C42.9713 26.2867 42.4704 24.9555 42.7498 23.0002C39.1498 22.0356 38.2498 26.0981 38.2498 27.5C38.2498 24.3 35.2498 22.6669 33.7498 23.0002C34.0291 24.9555 33.5281 26.2869 32.7701 28.3015Z" fill="#F0F5FF"/>
<path fill-rule="evenodd" clip-rule="evenodd" d="M55.92 46.2662L56.1183 45.9935C56.139 46.0098 56.1596 46.0261 56.1803 46.0426C56.1943 46.0537 56.2083 46.065 56.2223 46.0762C56.1188 46.1249 56.0178 46.1884 55.92 46.2662Z" fill="#F0F5FF"/>
<path fill-rule="evenodd" clip-rule="evenodd" d="M55.92 46.2662L56.1183 45.9935L56.1803 46.0426L56.2223 46.0762C56.1188 46.1249 56.0178 46.1884 55.92 46.2662Z" fill="#F0F5FF"/>
<path fill-rule="evenodd" clip-rule="evenodd" d="M47.2499 26.75C46.6879 25.9773 46.6392 25.4217 46.8928 25C47.282 24.3531 48.3831 24.0214 49.4349 23.7046C49.9059 23.5627 50.3671 23.4238 50.75 23.2609C50.9383 23.1808 51.1076 23.0949 51.25 23C51.9075 22.5617 52.853 22.7958 53.75 23.3654C54.4583 23.8153 55.1363 24.4744 55.6181 25.1769C55.9182 25.6145 56.1421 26.0689 56.2499 26.5C56.6499 28.1 55.7499 28.8333 55.2499 29C54.6889 29.2244 53.9573 29.2311 53.1546 29.1007C51.0959 28.7661 48.569 27.5294 47.2499 26.75Z" fill="#F0F5FF"/>
<path d="M59.8601 21.0725C61.5447 20.9654 63.6095 22.2134 65.4247 23.7048C67.0511 25.0411 68.4772 26.5726 69.25 27.5C69.75 28 70.75 28.5 70.75 26.5C70.5833 24.1667 69.55 19.5 66.75 19.5C66.0573 19.5 65.3842 19.5 64.75 19.5194C63.0233 19.5722 61.5855 19.7686 60.8279 20.5C60.5247 20.6271 60.1251 20.8252 59.678 21.0895C59.7437 21.0841 59.8042 21.0784 59.8601 21.0725Z" fill="#F0F5FF"/>
<path fill-rule="evenodd" clip-rule="evenodd" d="M48.2479 43.5C48.2314 43.3678 48.2209 43.2394 48.2161 43.1148C48.1396 41.142 49.6331 40.2458 51.2501 39.8387C51.4951 39.777 51.7431 39.7265 51.9888 39.6853C52.4094 39.6195 52.8092 39.5945 53.1879 39.6031C55.6633 39.6592 57.2337 41.1504 57.779 42.0594L57.837 42.1684C58.0137 42.5003 58.1461 42.749 58.2682 43.0375C58.3779 43.2965 58.4793 43.5876 58.5971 44C59.3971 46.7999 58.25 47 57.0971 46.5C56.4073 46.1659 56.4206 46.1987 56.4275 46.2158C56.4293 46.2204 56.4402 46.2209 56.4275 46.2158C56.3913 46.2015 56.35 46.179 56.2223 46.0762L56.1803 46.0426L56.1183 45.9935C54.2476 44.5231 52.4344 44.0351 50.6812 43.781C50.1483 43.7038 49.6209 43.6482 49.099 43.5931C48.8137 43.563 48.5299 43.5331 48.2479 43.5Z" fill="#F0F5FF"/>
<path fill-rule="evenodd" clip-rule="evenodd" d="M54.7477 55C54.3125 52.2242 54.384 50.0216 54.7574 48.4853C55.0197 47.406 55.4309 46.6555 55.92 46.2662C56.0178 46.1884 56.1188 46.1249 56.2223 46.0762C56.35 46.179 56.3913 46.2015 56.4275 46.2158C56.4206 46.1987 56.4073 46.1659 57.0971 46.5C58.25 47 59.3971 46.7999 58.5971 44C58.4793 43.5876 58.3779 43.2965 58.2682 43.0375L59.75 41C62.75 38 66.75 40.5 67.25 43C67.65 45 66.4167 44.5 65.75 44C65.4285 42.8 64.2827 42.5 63.75 42.5C61.35 42.5 61.7502 46.5 62.2503 48.5C62.6503 52.1 61.0836 54.3334 60.2503 55L54.7477 55Z" fill="#F0F5FF"/>
<path fill-rule="evenodd" clip-rule="evenodd" d="M44.7752 53.6247C44.8014 52.9819 44.846 52.3684 44.9077 51.7828C45.3408 47.6701 46.6121 44.9344 48.2161 43.1148C48.2209 43.2394 48.2314 43.3678 48.2479 43.5C48.5299 43.5331 48.8137 43.563 49.099 43.5931C49.6209 43.6482 50.1483 43.7038 50.6812 43.781C52.4344 44.0351 54.2476 44.5231 56.1183 45.9935L55.92 46.2662C55.4309 46.6555 55.0197 47.406 54.7574 48.4853C54.384 50.0216 54.3125 52.2242 54.7477 55H44.7477C44.7477 54.5273 44.757 54.069 44.7752 53.6247Z" fill="#F0F5FF"/>
<path d="M21.7501 29C21.2501 28.8333 20.3501 28.1 20.7501 26.5C20.853 26.0883 21.0619 25.6553 21.3419 25.2361L21.25 25C20.355 23.21 18.6339 21.8651 17.322 21.0895C17.2563 21.0841 17.1958 21.0784 17.1399 21.0725C15.4778 20.9668 13.4456 22.1804 11.6481 23.6453H11.9675C14.4675 24.1453 14.75 30 14.75 34C14.75 37.2 16.5833 40.1667 17.25 41L18.7318 43.0375C18.8539 42.749 18.9863 42.5003 19.163 42.1684L19.221 42.0594C19.7664 41.1504 21.3367 39.6592 23.8121 39.6031L23.7502 39.5C24.57 36.8767 25.7123 31.1891 23.8454 29.1007C23.0427 29.2311 22.3111 29.2244 21.7501 29Z" fill="#F0F5FF"/>
<path d="M56.2499 26.5C56.6499 28.1 55.7499 28.8333 55.2499 29C54.6889 29.2244 53.9573 29.2311 53.1546 29.1007C51.2877 31.1891 52.43 36.8767 53.2498 39.5L53.1879 39.6031C55.6633 39.6592 57.2337 41.1504 57.779 42.0594L57.837 42.1684C58.0137 42.5003 58.1461 42.749 58.2682 43.0375L59.75 41C60.4167 40.1667 62.25 37.2 62.25 34C62.25 30 62.5325 24.1453 65.0325 23.6453L65.4247 23.7048C63.6095 22.2134 61.5447 20.9654 59.8601 21.0725C59.8042 21.0784 59.7437 21.0841 59.678 21.0895C58.3661 21.8651 56.645 23.21 55.75 25L55.6181 25.1769C55.9182 25.6145 56.1421 26.0689 56.2499 26.5Z" fill="#F0F5FF"/>
<path fill-rule="evenodd" clip-rule="evenodd" d="M44.9077 51.7828C44.6099 49.6417 44.1331 47.1909 43.4411 45.2768C44.9332 43.49 46.7804 39.8108 45.7495 35.0002C45.2067 32.4671 44.5985 30.6543 44.0669 29.2062L44.3795 28.6996C44.8402 27.8532 45.2387 27.2275 45.4744 26.8575L45.5428 26.75L46.8928 25C46.6392 25.4217 46.6879 25.9773 47.2499 26.75C48.569 27.5294 51.0959 28.7661 53.1546 29.1007C51.2877 31.1891 52.43 36.8767 53.2498 39.5L53.1879 39.6031C52.8092 39.5945 52.4094 39.6195 51.9888 39.6853C51.7431 39.7265 51.4951 39.777 51.2501 39.8387C49.6331 40.2458 48.1396 41.142 48.2161 43.1148C46.6121 44.9344 45.3408 47.6701 44.9077 51.7828Z" fill="#F0F5FF"/>
<path fill-rule="evenodd" clip-rule="evenodd" d="M42.7498 23.0002C38.8484 19.8113 36.9341 20.2432 33.7498 23.0002C34.0291 24.9555 33.5281 26.2869 32.7701 28.3015C32.7212 28.4313 32.6714 28.5639 32.6205 28.6996C32.1598 27.8532 31.7613 27.2275 31.5256 26.8575L31.4572 26.75L30.1072 25C29.8667 24.6003 29.3545 24.3209 28.75 24.0911C28.3762 23.9489 27.967 23.8257 27.5651 23.7046C27.0941 23.5627 26.6329 23.4238 26.25 23.2609V23C26.4167 18.8333 28.25 10.4 34.25 9.99995C35.4883 9.86236 37.749 10.2246 38.5 12.3806C39.251 10.2246 41.5117 9.86236 42.75 9.99995C48.75 10.4 50.5833 18.8333 50.75 23V23.2609C50.3671 23.4238 49.9059 23.5627 49.4349 23.7046C48.3831 24.0214 47.282 24.3531 46.8928 25L45.5428 26.75L45.4744 26.8575C45.2387 27.2275 44.8402 27.8532 44.3795 28.6996L44.0669 29.2062C43.9502 28.8882 43.8372 28.5879 43.7293 28.3013C42.9713 26.2867 42.4704 24.9555 42.7498 23.0002Z" fill="#F0F5FF"/>
<path fill-rule="evenodd" clip-rule="evenodd" d="M51.25 23C51.1076 23.0949 50.9383 23.1808 50.75 23.2609V23C52.35 15.8 57.75 11 60.25 9.5H64.75C66.9167 11.1175 69.95 15.3672 64.75 19.4262C64.2746 19.4776 63.7735 19.5 63.25 19.5C61.5055 19.5 59.75 16.5 60.25 15C56.25 17 54.25 21.1667 53.75 23V23.3654C52.853 22.7958 51.9075 22.5617 51.25 23Z" fill="#F0F5FF"/>
<path d="M64.75 9.5C69.15 9.5 69.75 12.8333 69.75 14.5C69.3248 17.9017 67.4531 19.1338 64.75 19.4262C69.95 15.3672 66.9167 11.1175 64.75 9.5Z" fill="#F0F5FF"/>
<path fill-rule="evenodd" clip-rule="evenodd" d="M26.25 23.2609C26.0617 23.1808 25.8924 23.0949 25.75 23C25.1018 22.5679 24.1734 22.7893 23.2878 23.3417L23.25 23C22.75 21.1667 20.75 17 16.75 15C17.25 16.5 15.4945 19.5 13.75 19.5C13.2265 19.5 12.7254 19.4776 12.25 19.4262C7.05 15.3672 10.0833 11.1175 12.25 9.5H16.75C19.25 11 24.65 15.8 26.25 23V23.2609Z" fill="#F0F5FF"/>
<path d="M7.25 14.5C7.25 12.8333 7.85 9.5 12.25 9.5C10.0833 11.1175 7.05 15.3672 12.25 19.4262C9.5469 19.1338 7.67522 17.9017 7.25 14.5Z" fill="#F0F5FF"/>
<path fill-rule="evenodd" clip-rule="evenodd" d="M23.2878 23.3417C22.5459 23.8043 21.8341 24.499 21.3419 25.2361L21.25 25C20.355 23.21 18.6339 21.8651 17.322 21.0895C16.8749 20.8252 16.4753 20.6271 16.1721 20.5C15.4145 19.7686 13.9767 19.5722 12.25 19.5194V19.4262C12.7254 19.4776 13.2265 19.5 13.75 19.5C15.4945 19.5 17.25 16.5 16.75 15C20.75 17 22.75 21.1667 23.25 23L23.2878 23.3417Z" fill="#F0F5FF"/>
<path fill-rule="evenodd" clip-rule="evenodd" d="M55.6181 25.1769C55.1363 24.4744 54.4583 23.8153 53.75 23.3654V23C54.25 21.1667 56.25 17 60.25 15C59.75 16.5 61.5055 19.5 63.25 19.5C63.7735 19.5 64.2746 19.4776 64.75 19.4262V19.5194C63.0233 19.5722 61.5855 19.7686 60.8279 20.5C60.5247 20.6271 60.1251 20.8252 59.678 21.0895C58.3661 21.8651 56.645 23.21 55.75 25L55.6181 25.1769Z" fill="#F0F5FF"/>
<path fill-rule="evenodd" clip-rule="evenodd" d="M34.25 9.99995C28.25 10.4 26.4167 18.8333 26.25 23C24.65 15.8 19.25 11 16.75 9.5H60.25C57.75 11 52.35 15.8 50.75 23C50.5833 18.8333 48.75 10.4 42.75 9.99995C41.5117 9.86236 39.251 10.2246 38.5 12.3806C37.749 10.2246 35.4883 9.86236 34.25 9.99995Z" fill="#F0F5FF"/>
<path d="M21.08 46.2662L20.8817 45.9935M21.08 46.2662C20.9822 46.1884 20.8812 46.1249 20.7777 46.0762M21.08 46.2662C21.5691 46.6555 21.9803 47.406 22.2426 48.4853C22.616 50.0216 22.6875 52.2242 22.2523 55M20.8817 45.9935C20.861 46.0098 20.8404 46.0261 20.8197 46.0426M20.8817 45.9935L20.8197 46.0426M20.8817 45.9935C22.7524 44.5231 24.5656 44.0351 26.3188 43.781C26.8517 43.7038 27.3791 43.6482 27.901 43.5931C28.1863 43.5631 28.4701 43.5331 28.7521 43.5C28.7686 43.3678 28.7791 43.2394 28.7839 43.1148M20.8197 46.0426C20.8057 46.0537 20.7917 46.065 20.7777 46.0762M20.8197 46.0426L20.7777 46.0762M20.7777 46.0762C20.65 46.179 20.6087 46.2015 20.5725 46.2158M30.1072 25C30.3608 25.4217 30.3121 25.9773 29.7501 26.75C28.431 27.5294 25.9041 28.7661 23.8454 29.1007M30.1072 25C29.8667 24.6003 29.3545 24.3209 28.75 24.0911M30.1072 25L31.4572 26.75L31.5256 26.8575C31.7613 27.2275 32.1598 27.8532 32.6205 28.6996M28.75 24.0911C28.3762 23.9489 27.967 23.8257 27.5651 23.7046C27.0941 23.5627 26.6329 23.4238 26.25 23.2609M28.75 24.0911V24C29.15 15.6 32.25 13.8333 33.75 14C33.2141 16 34.5267 16.8333 35.25 17C36.1843 17.4004 37.8669 17.5443 38.5 15.7367C39.1331 17.5443 40.8157 17.4004 41.75 17C42.4733 16.8333 43.7859 16 43.25 14C44.75 13.8333 47.85 15.6 48.25 24M26.25 23.2609C26.0617 23.1808 25.8924 23.0949 25.75 23C25.1018 22.5679 24.1734 22.7893 23.2878 23.3417M26.25 23.2609V23M23.2878 23.3417C22.5459 23.8043 21.8341 24.499 21.3419 25.2361M23.2878 23.3417L23.25 23C22.75 21.1667 20.75 17 16.75 15M21.3419 25.2361C21.0619 25.6553 20.853 26.0883 20.7501 26.5C20.3501 28.1 21.2501 28.8333 21.7501 29C22.3111 29.2244 23.0427 29.2311 23.8454 29.1007M21.3419 25.2361L21.25 25C20.355 23.21 18.6339 21.8651 17.322 21.0895M23.8454 29.1007C25.7123 31.1891 24.57 36.8767 23.7502 39.5L23.8121 39.6031M17.1399 21.0725C15.4778 20.9668 13.4456 22.1804 11.6481 23.6453M17.1399 21.0725C17.1958 21.0784 17.2563 21.0841 17.322 21.0895M17.1399 21.0725C17.2011 21.0763 17.2618 21.082 17.322 21.0895M17.1399 21.0725C16.2833 20.9817 16.5195 20.8353 16.1721 20.5M11.6481 23.6453C9.99149 24.9953 8.5343 26.5588 7.75 27.5C7.25 28 6.25 28.5 6.25 26.5C6.41667 24.1667 7.45 19.5 10.25 19.5C10.9427 19.5 11.6158 19.5 12.25 19.5194M11.6481 23.6453H11.9675C14.4675 24.1453 14.75 30 14.75 34C14.75 37.2 16.5833 40.1667 17.25 41M12.25 19.5194C13.9767 19.5722 15.4145 19.7686 16.1721 20.5M12.25 19.5194V19.4262M16.1721 20.5C16.4753 20.6271 16.8749 20.8252 17.322 21.0895M28.7839 43.1148C28.8604 41.142 27.3669 40.2458 25.7499 39.8387M28.7839 43.1148C30.6162 45.1935 32.0145 48.4677 32.2248 53.6247M25.7499 39.8387C25.5049 39.777 25.2569 39.7265 25.0112 39.6853M25.7499 39.8387C25.497 39.7734 25.2508 39.7227 25.0112 39.6853M25.0112 39.6853C24.5906 39.6195 24.1908 39.5945 23.8121 39.6031M23.8121 39.6031C21.3367 39.6592 19.7664 41.1504 19.221 42.0594L19.163 42.1684C18.9863 42.5003 18.8539 42.749 18.7318 43.0375M18.7318 43.0375C18.6221 43.2965 18.5207 43.5876 18.4029 44C17.6029 46.7999 18.75 47 19.9029 46.5C20.5927 46.1659 20.5794 46.1987 20.5725 46.2158M18.7318 43.0375L17.25 41M20.5725 46.2158C20.5598 46.2209 20.5707 46.2204 20.5725 46.2158ZM22.2523 55L16.7497 55C15.9164 54.3334 14.3497 52.1 14.7497 48.5C15.2498 46.5 15.65 42.5 13.25 42.5C12.7173 42.5 11.5715 42.8 11.25 44C10.5833 44.5 9.34999 45 9.74999 43C10.25 40.5 14.25 38 17.25 41M22.2523 55H32.2523C32.2523 54.5273 32.243 54.069 32.2248 53.6247M32.2248 53.6247L32.7193 54.4488M35.2498 42.547C34.2806 44.1471 32.466 48.7071 32.7193 54.4488M35.2498 42.547L35.3006 42.5973C37.6774 44.9432 39.3663 45.4556 41.9075 42.547M35.2498 42.547C34.9302 42.2294 34.5981 41.8791 34.2498 41.5C34.7523 40.9975 35.2541 40.6061 35.7492 40.3086C38.8019 38.4745 41.6026 40.2093 42.7498 41.5C42.4581 41.889 42.178 42.2374 41.9075 42.547M32.7193 54.4488C32.7273 54.6314 32.7375 54.8151 32.7498 55H45.25C45.1902 54.1356 45.0784 53.0101 44.9077 51.7828M44.9077 51.7828C44.6099 49.6417 44.1331 47.1909 43.4411 45.2768M44.9077 51.7828C44.846 52.3684 44.8014 52.9819 44.7752 53.6247C44.757 54.069 44.7477 54.5273 44.7477 55H54.7477M44.9077 51.7828C45.3408 47.6701 46.6121 44.9344 48.2161 43.1148M43.4411 45.2768C43.0145 44.0967 42.5061 43.1207 41.9075 42.547M43.4411 45.2768C44.9332 43.49 46.7804 39.8108 45.7495 35.0002C45.2067 32.4671 44.5985 30.6543 44.0669 29.2062M33.7498 23.0002C35.2498 22.6669 38.2498 24.3 38.2498 27.5C38.2498 26.0981 39.1498 22.0356 42.7498 23.0002M33.7498 23.0002C36.9341 20.2432 38.8484 19.8113 42.7498 23.0002M33.7498 23.0002C34.0291 24.9555 33.5281 26.2869 32.7701 28.3015C32.7212 28.4313 32.6714 28.5639 32.6205 28.6996M42.7498 23.0002C42.4704 24.9555 42.9713 26.2867 43.7293 28.3013C43.8372 28.5879 43.9502 28.8882 44.0669 29.2062M32.6205 28.6996C32.0481 30.2292 31.358 32.1629 30.75 35.0002C29.55 40.6002 32.25 44.6669 33.75 46.0002M44.0669 29.2062L44.3795 28.6996C44.8402 27.8532 45.2387 27.2275 45.4744 26.8575L45.5428 26.75L46.8928 25M55.92 46.2662L56.1183 45.9935M55.92 46.2662C56.0178 46.1884 56.1188 46.1249 56.2223 46.0762M55.92 46.2662C55.4309 46.6555 55.0197 47.406 54.7574 48.4853C54.384 50.0216 54.3125 52.2242 54.7477 55M56.1183 45.9935C56.139 46.0098 56.1596 46.0261 56.1803 46.0426M56.1183 45.9935L56.1803 46.0426M56.1183 45.9935C54.2476 44.5231 52.4344 44.0351 50.6812 43.781C50.1483 43.7038 49.6209 43.6482 49.099 43.5931C48.8137 43.5631 48.5299 43.5331 48.2479 43.5C48.2314 43.3678 48.2209 43.2394 48.2161 43.1148M56.1803 46.0426C56.1943 46.0537 56.2083 46.065 56.2223 46.0762M56.1803 46.0426L56.2223 46.0762M56.2223 46.0762C56.35 46.179 56.3913 46.2015 56.4275 46.2158M46.8928 25C46.6392 25.4217 46.6879 25.9773 47.2499 26.75C48.569 27.5294 51.0959 28.7661 53.1546 29.1007M46.8928 25C47.282 24.3531 48.3831 24.0214 49.4349 23.7046C49.9059 23.5627 50.3671 23.4238 50.75 23.2609M50.75 23.2609C50.9383 23.1808 51.1076 23.0949 51.25 23C51.9074 22.5617 52.853 22.7958 53.75 23.3654M50.75 23.2609V23M53.75 23.3654C54.4583 23.8153 55.1363 24.4744 55.6181 25.1769M53.75 23.3654V23C54.25 21.1667 56.25 17 60.25 15M55.6181 25.1769C55.9182 25.6145 56.1421 26.0689 56.2499 26.5C56.6499 28.1 55.7499 28.8333 55.2499 29C54.6889 29.2244 53.9573 29.2311 53.1546 29.1007M55.6181 25.1769L55.75 25C56.645 23.21 58.3661 21.8651 59.678 21.0895M53.1546 29.1007C51.2877 31.1891 52.43 36.8767 53.2498 39.5L53.1879 39.6031M59.8601 21.0725C61.5447 20.9654 63.6095 22.2134 65.4247 23.7048M59.8601 21.0725C59.8042 21.0784 59.7437 21.0841 59.678 21.0895M59.8601 21.0725C59.7989 21.0763 59.7382 21.082 59.678 21.0895M59.8601 21.0725C60.7167 20.9817 60.4805 20.8353 60.8279 20.5M65.4247 23.7048C67.0511 25.0411 68.4772 26.5726 69.25 27.5C69.75 28 70.75 28.5 70.75 26.5C70.5833 24.1667 69.55 19.5 66.75 19.5C66.0573 19.5 65.3842 19.5 64.75 19.5194M65.4247 23.7048L65.0325 23.6453C62.5325 24.1453 62.25 30 62.25 34C62.25 37.2 60.4167 40.1667 59.75 41M64.75 19.5194C63.0233 19.5722 61.5855 19.7686 60.8279 20.5M64.75 19.5194V19.4262M60.8279 20.5C60.5247 20.6271 60.1251 20.8252 59.678 21.0895M48.2161 43.1148C48.1396 41.142 49.6331 40.2458 51.2501 39.8387M51.2501 39.8387C51.4951 39.777 51.7431 39.7265 51.9888 39.6853M51.2501 39.8387C51.503 39.7734 51.7492 39.7227 51.9888 39.6853M51.9888 39.6853C52.4094 39.6195 52.8092 39.5945 53.1879 39.6031M53.1879 39.6031C55.6633 39.6592 57.2336 41.1504 57.779 42.0594L57.837 42.1684C58.0137 42.5003 58.1461 42.749 58.2682 43.0375M58.2682 43.0375C58.3779 43.2965 58.4793 43.5876 58.5971 44C59.3971 46.7999 58.25 47 57.0971 46.5C56.4073 46.1659 56.4206 46.1987 56.4275 46.2158M58.2682 43.0375L59.75 41M56.4275 46.2158C56.4402 46.2209 56.4293 46.2204 56.4275 46.2158ZM54.7477 55L60.2503 55C61.0836 54.3334 62.6503 52.1 62.2503 48.5C61.7502 46.5 61.35 42.5 63.75 42.5C64.2827 42.5 65.4285 42.8 65.75 44C66.4167 44.5 67.65 45 67.25 43C66.75 40.5 62.75 38 59.75 41M26.25 23C26.4167 18.8333 28.25 10.4 34.25 9.99995C35.4883 9.86236 37.749 10.2246 38.5 12.3806C39.251 10.2246 41.5117 9.86236 42.75 9.99995C48.75 10.4 50.5833 18.8333 50.75 23M26.25 23C24.65 15.8 19.25 11 16.75 9.5M50.75 23C52.35 15.8 57.75 11 60.25 9.5M60.25 9.5H64.75M60.25 9.5H16.75M64.75 9.5C66.9167 11.1175 69.95 15.3672 64.75 19.4262M64.75 9.5C69.15 9.5 69.75 12.8333 69.75 14.5C69.3248 17.9017 67.4531 19.1338 64.75 19.4262M64.75 19.4262C64.2746 19.4776 63.7735 19.5 63.25 19.5C61.5055 19.5 59.75 16.5 60.25 15M60.25 15C61.0833 13.8333 63.05 12.2 64.25 15M16.75 15C17.25 16.5 15.4945 19.5 13.75 19.5C13.2265 19.5 12.7254 19.4776 12.25 19.4262M16.75 15C15.9167 13.8333 13.95 12.2 12.75 15M12.25 19.4262C7.05 15.3672 10.0833 11.1175 12.25 9.5M12.25 19.4262C9.5469 19.1338 7.67522 17.9017 7.25 14.5C7.25 12.8333 7.85 9.5 12.25 9.5M12.25 9.5H16.75" stroke="#2855AD" stroke-width="0.5"/>
<rect x="14" y="55" width="49" height="2" rx="1" fill="#F0F5FF" stroke="#2855AD" stroke-width="0.5"/>
<path d="M16 57H61C61 58.6569 59.6569 60 58 60H19C17.3431 60 16 58.6569 16 57Z" fill="#F0F5FF" stroke="#2855AD" stroke-width="0.5"/>
<rect x="18" y="60" width="41" height="2" rx="1" fill="#F0F5FF" stroke="#2855AD" stroke-width="0.5"/>
<path d="M36.0304 4.5C36.2383 2.80385 37.4887 1.5 39 1.5C40.5113 1.5 41.7617 2.80385 41.9696 4.5C41.9896 4.6633 42 4.83024 42 5C42 5.16976 41.9896 5.3367 41.9696 5.5C41.7617 7.19615 40.5113 8.5 39 8.5C37.4887 8.5 36.2383 7.19615 36.0304 5.5C36.0104 5.3367 36 5.16976 36 5C36 4.83024 36.0104 4.6633 36.0304 4.5Z" fill="#F0F5FF" stroke="#2855AD" stroke-width="0.5"/>
<path d="M58.2511 100L57.9531 62H58C58.5523 62 59 61.5523 59 61C59 60.4477 58.5523 60 58 60C59.6569 60 61 58.6569 61 57H62C62.5523 57 63 56.5523 63 56C63 55.4477 62.5523 55 62 55L60.2503 55C61.0836 54.3334 62.6503 52.1 62.2503 48.5C61.7502 46.5 61.35 42.5 63.75 42.5C64.2827 42.5 65.4285 42.8 65.75 44C66.4167 44.5 67.65 45 67.25 43C66.75 40.5 62.75 38 59.75 41C60.4167 40.1667 62.25 37.2 62.25 34C62.25 30 62.5325 24.1453 65.0325 23.6453L65.4247 23.7048C67.0511 25.0411 68.4772 26.5726 69.25 27.5C69.75 28 70.75 28.5 70.75 26.5C70.5833 24.1667 69.55 19.5 66.75 19.5C66.0573 19.5 65.3842 19.5 64.75 19.5194V19.4262C67.4531 19.1338 69.3248 17.9017 69.75 14.5C69.75 12.8333 69.15 9.5 64.75 9.5H70V3.5C71.1046 3.5 72 2.60457 72 1.5V0.5H5V1.5C5 2.60457 5.89543 3.5 7 3.5V9.5H12.25C7.85 9.5 7.25 12.8333 7.25 14.5C7.67522 17.9017 9.5469 19.1338 12.25 19.4262V19.5194C11.6158 19.5 10.9427 19.5 10.25 19.5C7.45 19.5 6.41667 24.1667 6.25 26.5C6.25 28.5 7.25 28 7.75 27.5C8.5343 26.5588 9.99149 24.9953 11.6481 23.6453H11.9675C14.4675 24.1453 14.75 30 14.75 34C14.75 37.2 16.5833 40.1667 17.25 41C14.25 38 10.25 40.5 9.74999 43C9.34999 45 10.5833 44.5 11.25 44C11.5715 42.8 12.7173 42.5 13.25 42.5C15.65 42.5 15.2498 46.5 14.7497 48.5C14.3497 52.1 15.9164 54.3334 16.7497 55L15 55C14.4477 55 14 55.4477 14 56C14 56.5523 14.4477 57 15 57H16C16 58.6569 17.3431 60 19 60C18.4477 60 18 60.4477 18 61C18 61.5523 18.4477 62 19 62H19.0469L18.7489 100" stroke="#2855AD" stroke-linecap="round"/>
</svg>
