<svg width="195" height="281" viewBox="0 0 195 281" fill="none" xmlns="http://www.w3.org/2000/svg">
<rect x="28.75" y="0.298584" width="136.562" height="7.18746" rx="3.59373" stroke="#173E88" stroke-width="0.596934"/>
<rect x="33.8623" y="7.48608" width="126.338" height="3.59373" rx="1.79687" stroke="#173E88" stroke-width="0.596934"/>
<rect x="36.2812" y="11.0798" width="121.499" height="14.3749" rx="1.79687" stroke="#173E88" stroke-width="0.596934"/>
<path d="M40.4775 25.4546H153.584V25.4546C153.584 31.4089 148.758 36.2358 142.803 36.2358H51.2587C45.3044 36.2358 40.4775 31.4089 40.4775 25.4546V25.4546Z" stroke="#173E88" stroke-width="0.596934"/>
<path d="M50.041 36.2358H144.021V39.4702C144.021 42.4473 141.608 44.8608 138.631 44.8608H55.4316C52.4545 44.8608 50.041 42.4473 50.041 39.4702V36.2358Z" stroke="#173E88" stroke-width="0.596934"/>
<rect x="55.0352" y="44.8608" width="83.9917" height="11.4043" stroke="#173E88" stroke-width="0.596934"/>
<rect x="51.7529" y="56.2651" width="90.5557" height="7.18746" rx="3.59373" stroke="#173E88" stroke-width="0.596934"/>
<path d="M97.0303 772.111V772.409H97.3287V772.111H97.0303ZM43.8428 772.111L43.5443 772.106L43.5396 772.409H43.8428V772.111ZM55.0381 63.4536V63.1551H54.7443L54.7397 63.4489L55.0381 63.4536ZM97.0303 63.4536H97.3287V63.1551H97.0303V63.4536ZM139.024 63.4526L139.323 63.4479L139.318 63.1542H139.024V63.4526ZM150.22 772.111V772.409H150.523L150.518 772.106L150.22 772.111ZM97.0322 772.111H96.7338V772.409H97.0322V772.111ZM97.0322 63.4526V63.1542H96.7338V63.4526H97.0322ZM97.0303 772.111V771.812H43.8428V772.111V772.409H97.0303V772.111ZM43.8428 772.111L44.1412 772.116L55.3365 63.4583L55.0381 63.4536L54.7397 63.4489L43.5443 772.106L43.8428 772.111ZM55.0381 63.4536V63.7521H97.0303V63.4536V63.1551H55.0381V63.4536ZM97.0303 63.4536H96.7318V772.111H97.0303H97.3287V63.4536H97.0303ZM139.024 63.4526L138.726 63.4574L149.921 772.116L150.22 772.111L150.518 772.106L139.323 63.4479L139.024 63.4526ZM150.22 772.111V771.812H97.0322V772.111V772.409H150.22V772.111ZM97.0322 772.111H97.3307V63.4526H97.0322H96.7338V772.111H97.0322ZM97.0322 63.4526V63.7511H139.024V63.4526V63.1542H97.0322V63.4526Z" fill="#173E88"/>
<path d="M44.0293 770.984H71.5712M150.039 770.984H123.883M97.7271 770.984H71.5712M97.7271 770.984H123.883M97.7271 770.984V63.4526M71.5712 770.984L74.5614 63.4526M123.883 770.984L120.893 63.4526M139.621 84.2061L139.321 63.4526H120.893M139.621 84.2061L140.754 158.876M139.621 84.2061H54.9524M140.754 158.876L141.886 233.546M140.754 158.876H53.7648M141.886 233.546L143.019 308.216M141.886 233.546H52.5772M143.019 308.216L144.152 382.885M143.019 308.216H51.3895M144.152 382.885L145.284 457.555M144.152 382.885H50.2019M145.284 457.555L146.417 532.225M145.284 457.555H49.0143M146.417 532.225L147.55 606.895M146.417 532.225H47.8267M147.55 606.895L148.682 681.564H45.4515L46.6391 606.895M147.55 606.895H46.6391M46.6391 606.895L47.8267 532.225M47.8267 532.225L49.0143 457.555M49.0143 457.555L50.2019 382.885M50.2019 382.885L51.3895 308.216M51.3895 308.216L52.5772 233.546M52.5772 233.546L53.7648 158.876M53.7648 158.876L54.9524 84.2061M54.9524 84.2061L55.2674 63.4526H74.5614M74.5614 63.4526H97.7271M97.7271 63.4526H120.893" stroke="#173E88" stroke-width="0.596934" stroke-linecap="round"/>
</svg>
