<svg width="175" height="195" viewBox="0 0 175 195" fill="none" xmlns="http://www.w3.org/2000/svg">
<path d="M102.751 97.9832C102.751 106.475 95.8678 113.358 87.3765 113.358C78.8851 113.358 72.0015 106.475 72.0015 97.9832M102.751 97.9832C102.751 89.4918 95.8678 82.6082 87.3765 82.6082C78.8851 82.6082 72.0015 89.4918 72.0015 97.9832M102.751 97.9832H87.3765M72.0015 97.9832H87.3765M46.1279 169.43C31.0617 160.731 37.3164 121.692 60.0981 82.2327C82.8799 42.7736 113.562 17.8372 128.628 26.5356M46.1279 169.43C61.1941 178.128 91.876 153.192 114.658 113.733C137.439 74.2736 143.694 35.2341 128.628 26.5356M46.1279 169.43L87.3765 97.9832M128.628 26.5356L87.3765 97.9832M169.875 97.9831C169.875 115.38 132.938 129.483 87.375 129.483C41.8115 129.483 4.875 115.38 4.875 97.9831C4.875 80.5861 41.8115 66.483 87.375 66.483C132.938 66.483 169.875 80.5861 169.875 97.9831ZM128.628 169.43C113.562 178.129 82.8799 153.192 60.0981 113.733C37.3164 74.274 31.0617 35.2345 46.1279 26.536C61.1941 17.8375 91.876 42.774 114.658 82.2331C137.439 121.692 143.694 160.732 128.628 169.43Z" stroke="#3561B9" stroke-width="0.375" stroke-dasharray="4.5 4.5"/>
<path d="M160.875 43.8091L100.875 2.55908" stroke="#2855AD" stroke-width="0.75"/>
<path d="M15.375 41.5591L75.375 0.309083" stroke="#2855AD" stroke-width="0.75"/>
<path d="M75.375 193.809L15.375 152.559" stroke="#2855AD" stroke-width="0.75"/>
<path d="M100.875 193.809L160.875 152.559" stroke="#2855AD" stroke-width="0.75"/>
<path d="M166.125 97.9832C166.125 95.0648 164.59 91.8558 160.879 88.5057C157.168 85.156 151.588 81.9673 144.374 79.2127C141.602 78.1544 138.617 77.1718 135.444 76.2735C133.287 83.2211 130.472 90.5248 127.039 97.9825C130.472 105.44 133.286 112.744 135.443 119.692C138.616 118.794 141.602 117.812 144.374 116.754C151.588 113.999 157.168 110.81 160.879 107.461C164.59 104.111 166.125 100.902 166.125 97.9832ZM130.212 128.754C123.117 130.36 115.384 131.574 107.208 132.33C102.466 139.032 97.5475 145.122 92.6089 150.464C94.9742 152.764 97.3185 154.859 99.6218 156.731C105.614 161.601 111.166 164.84 115.922 166.378C120.679 167.917 124.225 167.642 126.753 166.183C129.28 164.723 131.292 161.79 132.338 156.901C133.383 152.012 133.355 145.585 132.133 137.96C131.664 135.03 131.021 131.952 130.212 128.754ZM44.543 128.754C43.7342 131.952 43.092 135.029 42.6226 137.96C41.4009 145.585 41.3727 152.012 42.4182 156.9C43.4639 161.789 45.4755 164.723 48.0029 166.182C50.5304 167.641 54.0771 167.917 58.834 166.378C63.5903 164.84 69.1413 161.601 75.134 156.73C77.4371 154.858 79.7811 152.764 82.1462 150.464C77.2078 145.122 72.2891 139.033 67.5469 132.331C59.3715 131.575 51.6385 130.36 44.543 128.754ZM97.4224 133.003C94.1245 133.153 90.7716 133.233 87.375 133.233C83.9802 133.233 80.629 133.153 77.3328 133.003C80.6506 137.382 84.0183 141.421 87.3772 145.075C90.7363 141.421 94.1044 137.382 97.4224 133.003ZM87.375 70.2332C81.9998 70.2332 76.7563 70.4349 71.6917 70.814C68.8306 75.0111 66.0337 79.4518 63.3457 84.1075C60.6576 88.7633 58.2097 93.406 56.0054 97.9825C58.2098 102.559 60.6575 107.202 63.3457 111.858C66.0337 116.514 68.8306 120.955 71.6917 125.152C76.7563 125.531 81.9998 125.733 87.375 125.733C92.752 125.733 97.9972 125.531 103.063 125.152C105.925 120.954 108.722 116.513 111.41 111.857C114.098 107.202 116.546 102.559 118.75 97.9832C116.545 93.4068 114.098 88.7641 111.41 84.1082C108.722 79.4522 105.925 75.0113 103.063 70.814C97.9972 70.4347 92.752 70.2332 87.375 70.2332ZM52.0261 106.794C49.8927 111.856 48.0794 116.793 46.5945 121.529C51.4384 122.611 56.6201 123.508 62.0713 124.192C60.2928 121.412 58.5484 118.549 56.8506 115.608C55.1525 112.667 53.5448 109.724 52.0261 106.794ZM122.729 106.794C121.211 109.725 119.603 112.667 117.905 115.607C116.208 118.548 114.463 121.411 112.685 124.191C118.135 123.508 123.317 122.61 128.161 121.528C126.676 116.793 124.862 111.857 122.729 106.794ZM99.0015 97.9832C99.0014 91.5629 93.7968 86.3582 87.3765 86.3582C80.9562 86.3582 75.7515 91.5629 75.7515 97.9832C75.7515 104.404 80.9562 109.608 87.3765 109.608C93.7968 109.608 99.0015 104.404 99.0015 97.9832ZM62.0706 71.7735C56.6197 72.4573 51.4381 73.354 46.5945 74.4359C48.0793 79.1719 49.8928 84.1085 52.0261 89.1715C53.5446 86.241 55.1527 83.2983 56.8506 80.3575C58.5483 77.417 60.2921 74.5535 62.0706 71.7735ZM112.685 71.7742C114.463 74.5544 116.208 77.4176 117.905 80.3582C119.603 83.2989 121.211 86.2412 122.729 89.1715C124.862 84.109 126.675 79.1729 128.16 74.4373C123.317 73.3553 118.135 72.4582 112.685 71.7742ZM126.753 29.783C124.225 28.3238 120.679 28.0486 115.922 29.5875C111.166 31.1262 105.614 34.3645 99.6218 39.2349C97.3187 41.1068 94.9741 43.2013 92.6089 45.5008C97.5475 50.8427 102.466 56.9326 107.208 63.6348C115.384 64.3908 123.117 65.6059 130.212 67.212C131.021 64.0137 131.664 60.9361 132.133 58.0054C133.355 50.3804 133.383 43.9534 132.338 39.065C131.292 34.1762 129.28 31.2422 126.753 29.783ZM58.834 29.5882C54.0771 28.0493 50.5304 28.3245 48.0029 29.7838C45.4755 31.243 43.4639 34.1768 42.4182 39.0657C41.3726 43.9542 41.4009 50.381 42.6226 58.0062C43.092 60.9363 43.7343 64.013 44.543 67.2105C51.6385 65.6047 59.3716 64.3906 67.5469 63.6348C72.2891 56.9328 77.207 50.8427 82.1455 45.5008C79.7806 43.2017 77.4369 41.1073 75.134 39.2357C69.1414 34.3652 63.5902 31.1269 58.834 29.5882ZM87.3772 50.8907C84.0184 54.5444 80.6504 58.5831 77.3328 62.9617C80.629 62.8116 83.9802 62.7332 87.375 62.7332C90.7716 62.7332 94.1245 62.8115 97.4224 62.9617C94.1045 58.5829 90.7361 54.5445 87.3772 50.8907ZM8.625 97.9832C8.62505 100.902 10.1603 104.111 13.8713 107.461C17.5821 110.81 23.1621 113.999 30.3765 116.754C33.1497 117.813 36.1365 118.795 39.3113 119.694C41.4683 112.746 44.2826 105.441 47.7158 97.9825C44.2827 90.5244 41.4682 83.2199 39.3113 76.272C36.1364 77.1708 33.1498 78.1538 30.3765 79.2127C23.162 81.9673 17.5821 85.156 13.8713 88.5057C10.1602 91.8558 8.625 95.0648 8.625 97.9832ZM106.501 97.9832C106.501 108.546 97.9389 117.108 87.3765 117.108C76.814 117.108 68.2515 108.546 68.2515 97.9832C68.2515 87.4208 76.814 78.8582 87.3765 78.8582C97.9389 78.8582 106.501 87.4208 106.501 97.9832ZM173.625 97.9832C173.625 103.763 170.543 108.841 165.905 113.028C161.266 117.215 154.764 120.814 147.049 123.76C144.062 124.901 140.864 125.952 137.481 126.91C138.344 130.319 139.033 133.616 139.539 136.774C140.845 144.928 140.979 152.359 139.672 158.47C138.365 164.58 135.509 169.788 130.503 172.678C125.497 175.568 119.559 175.438 113.613 173.514C107.668 171.591 101.3 167.759 94.8911 162.551C92.4092 160.533 89.8983 158.289 87.3772 155.838C84.8564 158.289 82.3464 160.534 79.8647 162.551C73.4562 167.759 67.0883 171.59 61.1426 173.514C55.1973 175.437 49.2585 175.568 44.2529 172.678C39.2473 169.788 36.3907 164.579 35.0837 158.469C33.7767 152.358 33.9106 144.927 35.217 136.773C35.7229 133.616 36.4108 130.319 37.2729 126.911C33.889 125.953 30.6892 124.901 27.7009 123.76C19.9859 120.814 13.4841 117.215 8.84546 113.028C4.20717 108.841 1.12505 103.763 1.125 97.9832C1.125 92.2033 4.20721 87.1256 8.84546 82.9385C13.4842 78.7511 19.9858 75.1514 27.7009 72.2056C30.6895 71.0646 33.8894 70.0119 37.2737 69.054C36.4116 65.6458 35.7229 62.35 35.217 59.1927C33.9106 51.0383 33.7766 43.6079 35.0837 37.4969C36.3907 31.3865 39.2473 26.1786 44.2529 23.2886C49.2586 20.3986 55.1973 20.5289 61.1426 22.4522C67.0883 24.3758 73.4562 28.2066 79.8647 33.4151C82.3463 35.432 84.8571 37.6761 87.3779 40.127C89.8988 37.676 92.4095 35.432 94.8911 33.4151C101.3 28.2065 107.667 24.375 113.613 22.4515C119.559 20.5281 125.497 20.3979 130.503 23.2879C135.509 26.1779 138.365 31.3864 139.672 37.4969C140.979 43.6077 140.845 51.0379 139.539 59.192C139.033 62.3499 138.344 65.6466 137.481 69.0555C140.864 70.013 144.062 71.0651 147.049 72.2056C154.764 75.1514 161.266 78.7511 165.905 82.9385C170.543 87.1256 173.625 92.2033 173.625 97.9832Z" fill="#E9F1FF" style="mix-blend-mode:multiply"/>
<path d="M166.125 97.9832C166.125 95.0648 164.59 91.8558 160.879 88.5057C157.168 85.156 151.588 81.9673 144.374 79.2127C141.602 78.1544 138.617 77.1718 135.444 76.2735C133.287 83.2211 130.472 90.5248 127.039 97.9825C130.472 105.44 133.286 112.744 135.443 119.692C138.616 118.794 141.602 117.812 144.374 116.754C151.588 113.999 157.168 110.81 160.879 107.461C164.59 104.111 166.125 100.902 166.125 97.9832ZM130.212 128.754C123.117 130.36 115.384 131.574 107.208 132.33C102.466 139.032 97.5475 145.122 92.6089 150.464C94.9742 152.764 97.3185 154.859 99.6218 156.731C105.614 161.601 111.166 164.84 115.922 166.378C120.679 167.917 124.225 167.642 126.753 166.183C129.28 164.723 131.292 161.79 132.338 156.901C133.383 152.012 133.355 145.585 132.133 137.96C131.664 135.03 131.021 131.952 130.212 128.754ZM44.543 128.754C43.7342 131.952 43.092 135.029 42.6226 137.96C41.4009 145.585 41.3727 152.012 42.4182 156.9C43.4639 161.789 45.4755 164.723 48.0029 166.182C50.5304 167.641 54.0771 167.917 58.834 166.378C63.5903 164.84 69.1413 161.601 75.134 156.73C77.4371 154.858 79.7811 152.764 82.1462 150.464C77.2078 145.122 72.2891 139.033 67.5469 132.331C59.3715 131.575 51.6385 130.36 44.543 128.754ZM97.4224 133.003C94.1245 133.153 90.7716 133.233 87.375 133.233C83.9802 133.233 80.629 133.153 77.3328 133.003C80.6506 137.382 84.0183 141.421 87.3772 145.075C90.7363 141.421 94.1044 137.382 97.4224 133.003ZM87.375 70.2332C81.9998 70.2332 76.7563 70.4349 71.6917 70.814C68.8306 75.0111 66.0337 79.4518 63.3457 84.1075C60.6576 88.7633 58.2097 93.406 56.0054 97.9825C58.2098 102.559 60.6575 107.202 63.3457 111.858C66.0337 116.514 68.8306 120.955 71.6917 125.152C76.7563 125.531 81.9998 125.733 87.375 125.733C92.752 125.733 97.9972 125.531 103.063 125.152C105.925 120.954 108.722 116.513 111.41 111.857C114.098 107.202 116.546 102.559 118.75 97.9832C116.545 93.4068 114.098 88.7641 111.41 84.1082C108.722 79.4522 105.925 75.0113 103.063 70.814C97.9972 70.4347 92.752 70.2332 87.375 70.2332ZM52.0261 106.794C49.8927 111.856 48.0794 116.793 46.5945 121.529C51.4384 122.611 56.6201 123.508 62.0713 124.192C60.2928 121.412 58.5484 118.549 56.8506 115.608C55.1525 112.667 53.5448 109.724 52.0261 106.794ZM122.729 106.794C121.211 109.725 119.603 112.667 117.905 115.607C116.208 118.548 114.463 121.411 112.685 124.191C118.135 123.508 123.317 122.61 128.161 121.528C126.676 116.793 124.862 111.857 122.729 106.794ZM99.0015 97.9832C99.0014 91.5629 93.7968 86.3582 87.3765 86.3582C80.9562 86.3582 75.7515 91.5629 75.7515 97.9832C75.7515 104.404 80.9562 109.608 87.3765 109.608C93.7968 109.608 99.0015 104.404 99.0015 97.9832ZM62.0706 71.7735C56.6197 72.4573 51.4381 73.354 46.5945 74.4359C48.0793 79.1719 49.8928 84.1085 52.0261 89.1715C53.5446 86.241 55.1527 83.2983 56.8506 80.3575C58.5483 77.417 60.2921 74.5535 62.0706 71.7735ZM112.685 71.7742C114.463 74.5544 116.208 77.4176 117.905 80.3582C119.603 83.2989 121.211 86.2412 122.729 89.1715C124.862 84.109 126.675 79.1729 128.16 74.4373C123.317 73.3553 118.135 72.4582 112.685 71.7742ZM126.753 29.783C124.225 28.3238 120.679 28.0486 115.922 29.5875C111.166 31.1262 105.614 34.3645 99.6218 39.2349C97.3187 41.1068 94.9741 43.2013 92.6089 45.5008C97.5475 50.8427 102.466 56.9326 107.208 63.6348C115.384 64.3908 123.117 65.6059 130.212 67.212C131.021 64.0137 131.664 60.9361 132.133 58.0054C133.355 50.3804 133.383 43.9534 132.338 39.065C131.292 34.1762 129.28 31.2422 126.753 29.783ZM58.834 29.5882C54.0771 28.0493 50.5304 28.3245 48.0029 29.7838C45.4755 31.243 43.4639 34.1768 42.4182 39.0657C41.3726 43.9542 41.4009 50.381 42.6226 58.0062C43.092 60.9363 43.7343 64.013 44.543 67.2105C51.6385 65.6047 59.3716 64.3906 67.5469 63.6348C72.2891 56.9328 77.207 50.8427 82.1455 45.5008C79.7806 43.2017 77.4369 41.1073 75.134 39.2357C69.1414 34.3652 63.5902 31.1269 58.834 29.5882ZM87.3772 50.8907C84.0184 54.5444 80.6504 58.5831 77.3328 62.9617C80.629 62.8116 83.9802 62.7332 87.375 62.7332C90.7716 62.7332 94.1245 62.8115 97.4224 62.9617C94.1045 58.5829 90.7361 54.5445 87.3772 50.8907ZM8.625 97.9832C8.62505 100.902 10.1603 104.111 13.8713 107.461C17.5821 110.81 23.1621 113.999 30.3765 116.754C33.1497 117.813 36.1365 118.795 39.3113 119.694C41.4683 112.746 44.2826 105.441 47.7158 97.9825C44.2827 90.5244 41.4682 83.2199 39.3113 76.272C36.1364 77.1708 33.1498 78.1538 30.3765 79.2127C23.162 81.9673 17.5821 85.156 13.8713 88.5057C10.1602 91.8558 8.625 95.0648 8.625 97.9832ZM106.501 97.9832C106.501 108.546 97.9389 117.108 87.3765 117.108C76.814 117.108 68.2515 108.546 68.2515 97.9832C68.2515 87.4208 76.814 78.8582 87.3765 78.8582C97.9389 78.8582 106.501 87.4208 106.501 97.9832ZM173.625 97.9832C173.625 103.763 170.543 108.841 165.905 113.028C161.266 117.215 154.764 120.814 147.049 123.76C144.062 124.901 140.864 125.952 137.481 126.91C138.344 130.319 139.033 133.616 139.539 136.774C140.845 144.928 140.979 152.359 139.672 158.47C138.365 164.58 135.509 169.788 130.503 172.678C125.497 175.568 119.559 175.438 113.613 173.514C107.668 171.591 101.3 167.759 94.8911 162.551C92.4092 160.533 89.8983 158.289 87.3772 155.838C84.8564 158.289 82.3464 160.534 79.8647 162.551C73.4562 167.759 67.0883 171.59 61.1426 173.514C55.1973 175.437 49.2585 175.568 44.2529 172.678C39.2473 169.788 36.3907 164.579 35.0837 158.469C33.7767 152.358 33.9106 144.927 35.217 136.773C35.7229 133.616 36.4108 130.319 37.2729 126.911C33.889 125.953 30.6892 124.901 27.7009 123.76C19.9859 120.814 13.4841 117.215 8.84546 113.028C4.20717 108.841 1.12505 103.763 1.125 97.9832C1.125 92.2033 4.20721 87.1256 8.84546 82.9385C13.4842 78.7511 19.9858 75.1514 27.7009 72.2056C30.6895 71.0646 33.8894 70.0119 37.2737 69.054C36.4116 65.6458 35.7229 62.35 35.217 59.1927C33.9106 51.0383 33.7766 43.6079 35.0837 37.4969C36.3907 31.3865 39.2473 26.1786 44.2529 23.2886C49.2586 20.3986 55.1973 20.5289 61.1426 22.4522C67.0883 24.3758 73.4562 28.2066 79.8647 33.4151C82.3463 35.432 84.8571 37.6761 87.3779 40.127C89.8988 37.676 92.4095 35.432 94.8911 33.4151C101.3 28.2065 107.667 24.375 113.613 22.4515C119.559 20.5281 125.497 20.3979 130.503 23.2879C135.509 26.1779 138.365 31.3864 139.672 37.4969C140.979 43.6077 140.845 51.0379 139.539 59.192C139.033 62.3499 138.344 65.6466 137.481 69.0555C140.864 70.013 144.062 71.0651 147.049 72.2056C154.764 75.1514 161.266 78.7511 165.905 82.9385C170.543 87.1256 173.625 92.2033 173.625 97.9832Z" stroke="#173E88" stroke-width="1.125"/>
<path fill-rule="evenodd" clip-rule="evenodd" d="M87 117.108C97.5625 117.108 106.125 108.545 106.125 97.9829C106.125 87.4205 97.5624 78.8579 87 78.8579C76.4376 78.8579 67.875 87.4205 67.875 97.9829C67.875 108.545 76.4376 117.108 87 117.108Z" stroke="#173E88" stroke-width="2.25"/>
<path d="M173.625 97.9832C173.625 103.763 170.543 108.841 165.905 113.028C161.266 117.215 154.764 120.814 147.049 123.76C144.062 124.901 140.864 125.952 137.481 126.909C138.344 130.319 139.033 133.616 139.539 136.774C140.845 144.928 140.979 152.359 139.672 158.47C138.365 164.58 135.509 169.788 130.503 172.678C125.497 175.568 119.559 175.438 113.613 173.514C107.668 171.591 101.3 167.759 94.8911 162.551C92.4092 160.533 89.8983 158.289 87.3772 155.838C84.8564 158.289 82.3464 160.534 79.8647 162.551C73.4562 167.759 67.0883 171.59 61.1426 173.514C55.1973 175.437 49.2585 175.568 44.2529 172.678C39.2473 169.788 36.3907 164.579 35.0837 158.469C33.7767 152.358 33.9106 144.927 35.217 136.773C35.7229 133.616 36.4108 130.319 37.2729 126.911C33.889 125.953 30.6892 124.901 27.7009 123.76C19.9859 120.814 13.4841 117.215 8.84546 113.028C4.20717 108.841 1.12505 103.763 1.125 97.9832C1.125 92.2033 4.20721 87.1256 8.84546 82.9385C13.4842 78.7511 19.9858 75.1514 27.7009 72.2056C30.6895 71.0646 33.8894 70.0119 37.2737 69.054C36.4116 65.6458 35.7229 62.35 35.217 59.1927C33.9106 51.0383 33.7766 43.6079 35.0837 37.4969C36.3907 31.3865 39.2473 26.1786 44.2529 23.2886C49.2586 20.3986 55.1973 20.5289 61.1426 22.4522C67.0883 24.3758 73.4562 28.2066 79.8647 33.4151C82.3463 35.432 84.8571 37.6761 87.3779 40.127C89.8988 37.676 92.4095 35.432 94.8911 33.4151C101.3 28.2065 107.667 24.375 113.613 22.4515C119.559 20.5281 125.497 20.3979 130.503 23.2879C135.509 26.1779 138.365 31.3864 139.672 37.4969C140.979 43.6077 140.845 51.0379 139.539 59.192C139.033 62.3499 138.344 65.6466 137.481 69.0555C140.864 70.013 144.062 71.0651 147.049 72.2056C154.764 75.1514 161.266 78.7511 165.905 82.9385C170.543 87.1256 173.625 92.2033 173.625 97.9832Z" stroke="#173E88" stroke-width="2.25"/>
<line x1="174" y1="67.8091" x2="174" y2="127.809" stroke="#2855AD" stroke-width="0.75"/>
<line x1="1.5" y1="67.8091" x2="1.5" y2="127.809" stroke="#2855AD" stroke-width="0.75"/>
</svg>
