<svg width="104" height="22" viewBox="0 0 104 22" fill="none" xmlns="http://www.w3.org/2000/svg">
<path d="M6.25498 6.10504L3.20589 17.3308H0.623783L4.82658 3.99907H6.43811L6.25498 6.10504ZM8.66312 17.3308L5.61403 6.10504L5.40343 3.99907H7.03328L11.2544 17.3308H8.66312ZM8.74553 12.368V14.4099H2.62904V12.368H8.74553ZM14.5397 3.99907H18.6876C19.5727 3.99907 20.3266 4.15167 20.9492 4.45689C21.5718 4.7621 22.0449 5.21382 22.3684 5.81204C22.6981 6.41026 22.8629 7.14582 22.8629 8.01873C22.8629 8.71462 22.7622 9.31894 22.5607 9.8317C22.3654 10.3384 22.0846 10.7626 21.7183 11.1044C21.3582 11.4463 20.9217 11.7118 20.409 11.9011L19.6673 12.3222H16.2336L16.2245 10.2804H18.6326C19.0294 10.2804 19.359 10.1919 19.6215 10.0148C19.8901 9.83781 20.0885 9.59364 20.2167 9.28232C20.351 8.9649 20.4181 8.60169 20.4181 8.19271C20.4181 7.74709 20.3571 7.36558 20.235 7.04815C20.119 6.72463 19.9328 6.4774 19.6765 6.30648C19.4262 6.13556 19.0966 6.0501 18.6876 6.0501H16.9936V17.3308H14.5397V3.99907ZM20.6745 17.3308L18.1748 11.3608H20.7478L23.2932 17.2026V17.3308H20.6745ZM33.1254 12.9357H35.5702C35.5274 13.9185 35.326 14.7518 34.9658 15.4354C34.6118 16.113 34.1021 16.6288 33.4367 16.9829C32.7775 17.3369 31.9747 17.5139 31.0286 17.5139C30.3083 17.5139 29.6643 17.3888 29.0966 17.1385C28.5289 16.8821 28.0466 16.5128 27.6499 16.0306C27.2592 15.5484 26.9601 14.9562 26.7525 14.2543C26.5511 13.5462 26.4504 12.7373 26.4504 11.8278V9.51123C26.4504 8.60169 26.5572 7.79288 26.7709 7.08478C26.9845 6.37668 27.2897 5.77846 27.6865 5.29012C28.0894 4.80178 28.5777 4.43247 29.1515 4.18219C29.7253 3.93192 30.3724 3.80678 31.0927 3.80678C32.0449 3.80678 32.8416 3.98686 33.4825 4.34701C34.1235 4.70716 34.6179 5.23518 34.9658 5.93107C35.3138 6.62085 35.5183 7.46324 35.5793 8.45824H33.1346C33.1101 7.81119 33.0308 7.29843 32.8965 6.91996C32.7622 6.53539 32.5516 6.2607 32.2647 6.09589C31.9778 5.93107 31.5871 5.84866 31.0927 5.84866C30.7081 5.84866 30.3754 5.91886 30.0946 6.05926C29.8138 6.19966 29.5849 6.41941 29.4079 6.71852C29.2309 7.01153 29.0996 7.38694 29.0142 7.84476C28.9287 8.30258 28.886 8.85197 28.886 9.49292V11.8278C28.886 12.4443 28.9226 12.9815 28.9959 13.4393C29.0691 13.8972 29.1851 14.2787 29.3438 14.5839C29.5086 14.883 29.7284 15.1089 30.0031 15.2615C30.2778 15.408 30.6196 15.4812 31.0286 15.4812C31.523 15.4812 31.9168 15.408 32.2098 15.2615C32.5028 15.1089 32.7195 14.8494 32.8599 14.4832C33.0064 14.1108 33.0949 13.595 33.1254 12.9357ZM46.6018 9.4746V11.5165H41.0622V9.4746H46.6018ZM41.7031 3.99907V17.3308H39.2492V3.99907H41.7031ZM48.4423 3.99907V17.3308H46.0067V3.99907H48.4423Z" fill="#173E88"/>
<path d="M65.7687 1.96397e-05H69.695V14.7382C69.695 16.3693 69.3922 17.6927 68.7867 18.7084C68.1811 19.7242 67.3558 20.4664 66.3108 20.9353C65.2657 21.3943 64.0888 21.6238 62.7801 21.6238C61.442 21.6238 60.2505 21.3943 59.2054 20.9353C58.1604 20.4664 57.3399 19.7242 56.7442 18.7084C56.1582 17.6927 55.8652 16.3693 55.8652 14.7382V1.96397e-05H59.7768V14.7382C59.7768 15.7051 59.894 16.4523 60.1284 16.9797C60.3726 17.5071 60.7144 17.8685 61.1539 18.0638C61.5934 18.2591 62.1355 18.3568 62.7801 18.3568C63.4247 18.3568 63.9667 18.2591 64.4063 18.0638C64.8458 17.8685 65.1827 17.5071 65.4171 16.9797C65.6515 16.4523 65.7687 15.7051 65.7687 14.7382V1.96397e-05ZM80.2403 1.96397e-05V21.3308H76.3433V1.96397e-05H80.2403Z" fill="#173E88"/>
<path d="M86.501 17.1438C86.501 15.0725 88.1801 13.3933 90.2514 13.3933H99.3762C101.448 13.3933 103.127 15.0725 103.127 17.1438V17.5805C103.127 19.6518 101.448 21.3309 99.3762 21.3309H90.2514C88.1801 21.3309 86.501 19.6518 86.501 17.5805V17.1438Z" fill="#D4E0F5"/>
<path d="M90.9695 19.4158L89.7093 16.4848H90.1875L91.1664 18.8982L92.1509 16.4848H92.6178L91.352 19.4158H90.9695ZM93.8212 19.3933V15.8885L93.0786 16.1192L92.9717 15.7591L93.9337 15.4272H94.26V19.3933H93.8212ZM95.258 19.3933V18.8026H95.7756V19.3933H95.258ZM98.1024 19.4608C97.0842 19.4608 96.4428 18.5382 96.4428 17.4356V17.4243C96.4428 16.3217 97.101 15.3878 98.1137 15.3878C99.1263 15.3878 99.7676 16.3104 99.7676 17.4131V17.4243C99.7676 18.527 99.115 19.4608 98.1024 19.4608ZM98.1137 19.0558C98.8563 19.0558 99.3063 18.2963 99.3063 17.4356V17.4243C99.3063 16.5692 98.8394 15.7929 98.1024 15.7929C97.3654 15.7929 96.9041 16.5467 96.9041 17.4131V17.4243C96.9041 18.2794 97.3711 19.0558 98.1137 19.0558Z" fill="#173E88"/>
</svg>
