<svg width="229" height="46" viewBox="0 0 229 46" fill="none" xmlns="http://www.w3.org/2000/svg">
<rect y="18.6274" width="8" height="8" fill="#173E88"/>
<line x1="190" y1="23.1274" x2="8" y2="23.1275" stroke="#173E88"/>
<rect x="190.5" y="7.12744" width="31" height="31" rx="15.5" fill="#F0F5FF"/>
<rect x="190.5" y="7.12744" width="31" height="31" rx="15.5" stroke="#173E88"/>
<rect x="183.372" y="22.6274" width="32" height="32" transform="rotate(-45 183.372 22.6274)" fill="#173E88"/>
<rect x="184.079" y="22.6274" width="31" height="31" rx="15.5" transform="rotate(-45 184.079 22.6274)" fill="#F0F5FF"/>
<rect x="184.079" y="22.6274" width="31" height="31" rx="15.5" transform="rotate(-45 184.079 22.6274)" stroke="black"/>
<rect x="184.079" y="22.6274" width="31" height="31" rx="15.5" transform="rotate(-45 184.079 22.6274)" stroke="#173E88"/>
<path d="M204.898 23.7993C204.898 24.5337 204.812 25.1821 204.641 25.7446C204.474 26.3019 204.232 26.7681 203.914 27.1431C203.596 27.5233 203.208 27.8097 202.75 28.0024C202.292 28.1951 201.776 28.2915 201.203 28.2915C200.635 28.2915 200.122 28.1951 199.664 28.0024C199.206 27.8097 198.818 27.5233 198.5 27.1431C198.177 26.7681 197.927 26.3019 197.75 25.7446C197.578 25.1821 197.492 24.5337 197.492 23.7993V21.0806C197.492 20.3462 197.578 19.7004 197.75 19.1431C197.922 18.5806 198.169 18.1092 198.492 17.729C198.81 17.354 199.195 17.0701 199.648 16.8774C200.107 16.6847 200.62 16.5884 201.188 16.5884C201.76 16.5884 202.276 16.6847 202.734 16.8774C203.193 17.0701 203.583 17.354 203.906 17.729C204.224 18.1092 204.469 18.5806 204.641 19.1431C204.812 19.7004 204.898 20.3462 204.898 21.0806V23.7993ZM199.68 22.8618L202.711 20.604C202.701 20.1769 202.654 19.8123 202.57 19.5103C202.492 19.203 202.375 18.9582 202.219 18.7759C202.099 18.63 201.951 18.5233 201.773 18.4556C201.602 18.3826 201.406 18.3462 201.188 18.3462C200.943 18.3462 200.727 18.3931 200.539 18.4868C200.357 18.5754 200.203 18.7108 200.078 18.8931C199.943 19.0858 199.841 19.3358 199.773 19.6431C199.711 19.9504 199.68 20.3149 199.68 20.7368V21.9946C199.68 22.2446 199.68 22.4113 199.68 22.4946C199.68 22.578 199.68 22.7004 199.68 22.8618ZM202.711 24.1274V22.8071C202.711 22.6353 202.711 22.5103 202.711 22.4321C202.711 22.3488 202.711 22.2316 202.711 22.0806L199.68 24.3306C199.69 24.6743 199.724 24.979 199.781 25.2446C199.844 25.5103 199.93 25.7316 200.039 25.9087C200.164 26.1222 200.323 26.2811 200.516 26.3853C200.708 26.4894 200.938 26.5415 201.203 26.5415C201.448 26.5415 201.664 26.4972 201.852 26.4087C202.039 26.3149 202.195 26.1743 202.32 25.9868C202.451 25.7889 202.547 25.5363 202.609 25.229C202.677 24.9165 202.711 24.5493 202.711 24.1274ZM212.422 28.1274H210.227V19.4009L207.352 20.4321V18.5415L212.305 16.7524H212.422V28.1274Z" fill="#173E88"/>
</svg>
