<svg width="229" height="46" viewBox="0 0 229 46" fill="none" xmlns="http://www.w3.org/2000/svg">
<rect x="7.12793" y="7.12744" width="31" height="31" rx="15.5" fill="#F0F5FF"/>
<rect x="7.12793" y="7.12744" width="31" height="31" rx="15.5" stroke="#173E88"/>
<rect y="22.6274" width="32" height="32" transform="rotate(-45 0 22.6274)" fill="#173E88"/>
<rect x="0.707107" y="22.6274" width="31" height="31" rx="15.5" transform="rotate(-45 0.707107 22.6274)" fill="#F0F5FF"/>
<rect x="0.707107" y="22.6274" width="31" height="31" rx="15.5" transform="rotate(-45 0.707107 22.6274)" stroke="black"/>
<rect x="0.707107" y="22.6274" width="31" height="31" rx="15.5" transform="rotate(-45 0.707107 22.6274)" stroke="#173E88"/>
<path d="M21.5264 23.7993C21.5264 24.5337 21.4404 25.1821 21.2686 25.7446C21.1019 26.3019 20.8597 26.7681 20.542 27.1431C20.2243 27.5233 19.8363 27.8097 19.3779 28.0024C18.9196 28.1951 18.404 28.2915 17.8311 28.2915C17.2633 28.2915 16.7503 28.1951 16.292 28.0024C15.8337 27.8097 15.4456 27.5233 15.1279 27.1431C14.805 26.7681 14.555 26.3019 14.3779 25.7446C14.2061 25.1821 14.1201 24.5337 14.1201 23.7993V21.0806C14.1201 20.3462 14.2061 19.7004 14.3779 19.1431C14.5498 18.5806 14.7972 18.1092 15.1201 17.729C15.4378 17.354 15.8232 17.0701 16.2764 16.8774C16.7347 16.6847 17.2477 16.5884 17.8154 16.5884C18.3883 16.5884 18.904 16.6847 19.3623 16.8774C19.8206 17.0701 20.2113 17.354 20.5342 17.729C20.8519 18.1092 21.0967 18.5806 21.2686 19.1431C21.4404 19.7004 21.5264 20.3462 21.5264 21.0806V23.7993ZM16.3076 22.8618L19.3389 20.604C19.3285 20.1769 19.2816 19.8123 19.1982 19.5103C19.1201 19.203 19.0029 18.9582 18.8467 18.7759C18.7269 18.63 18.5785 18.5233 18.4014 18.4556C18.2295 18.3826 18.0342 18.3462 17.8154 18.3462C17.5706 18.3462 17.3545 18.3931 17.167 18.4868C16.9847 18.5754 16.8311 18.7108 16.7061 18.8931C16.5706 19.0858 16.4691 19.3358 16.4014 19.6431C16.3389 19.9504 16.3076 20.3149 16.3076 20.7368V21.9946C16.3076 22.2446 16.3076 22.4113 16.3076 22.4946C16.3076 22.578 16.3076 22.7004 16.3076 22.8618ZM19.3389 24.1274V22.8071C19.3389 22.6353 19.3389 22.5103 19.3389 22.4321C19.3389 22.3488 19.3389 22.2316 19.3389 22.0806L16.3076 24.3306C16.318 24.6743 16.3519 24.979 16.4092 25.2446C16.4717 25.5103 16.5576 25.7316 16.667 25.9087C16.792 26.1222 16.9508 26.2811 17.1436 26.3853C17.3363 26.4894 17.5654 26.5415 17.8311 26.5415C18.0758 26.5415 18.292 26.4972 18.4795 26.4087C18.667 26.3149 18.8232 26.1743 18.9482 25.9868C19.0785 25.7889 19.1748 25.5363 19.2373 25.229C19.305 24.9165 19.3389 24.5493 19.3389 24.1274ZM31.167 28.1274H23.4092V26.6431L27.0889 22.6899C27.3753 22.3774 27.6175 22.0936 27.8154 21.8384C28.0133 21.5832 28.1748 21.3488 28.2998 21.1353C28.4196 20.9269 28.5055 20.7316 28.5576 20.5493C28.6149 20.367 28.6436 20.1899 28.6436 20.0181C28.6436 19.7629 28.6071 19.5363 28.5342 19.3384C28.4613 19.1405 28.3597 18.9712 28.2295 18.8306C28.0941 18.6951 27.9326 18.591 27.7451 18.5181C27.5628 18.4451 27.3597 18.4087 27.1357 18.4087C26.8441 18.4087 26.5863 18.4504 26.3623 18.5337C26.1436 18.6118 25.9613 18.729 25.8154 18.8853C25.6644 19.0467 25.5498 19.2472 25.4717 19.4868C25.3936 19.7264 25.3545 19.9998 25.3545 20.3071H23.1748C23.1748 19.8019 23.2712 19.3254 23.4639 18.8774C23.6566 18.4243 23.93 18.0285 24.2842 17.6899C24.6331 17.3514 25.055 17.0858 25.5498 16.8931C26.0498 16.6951 26.6019 16.5962 27.2061 16.5962C27.7842 16.5962 28.2946 16.6769 28.7373 16.8384C29.1852 16.9998 29.5602 17.2264 29.8623 17.5181C30.1592 17.8097 30.3857 18.1613 30.542 18.5728C30.6982 18.979 30.7764 19.4295 30.7764 19.9243C30.7764 20.2993 30.7165 20.6587 30.5967 21.0024C30.4821 21.341 30.318 21.6769 30.1045 22.0103C29.8857 22.3436 29.6253 22.6847 29.3232 23.0337C29.0212 23.3774 28.6852 23.7394 28.3154 24.1196L26.1748 26.3853H31.167V28.1274Z" fill="#173E88"/>
<line x1="220.628" y1="23.1274" x2="38.6279" y2="23.1275" stroke="#173E88"/>
<rect x="220.628" y="18.6274" width="8" height="8" fill="#173E88"/>
</svg>
