<svg width="229" height="46" viewBox="0 0 229 46" fill="none" xmlns="http://www.w3.org/2000/svg">
<rect y="18.6274" width="8" height="8" fill="#173E88"/>
<line x1="190" y1="23.1274" x2="8" y2="23.1275" stroke="#173E88"/>
<rect x="190.5" y="7.12744" width="31" height="31" rx="15.5" fill="#F0F5FF"/>
<rect x="190.5" y="7.12744" width="31" height="31" rx="15.5" stroke="#173E88"/>
<rect x="183.372" y="22.6274" width="32" height="32" transform="rotate(-45 183.372 22.6274)" fill="#173E88"/>
<rect x="184.079" y="22.6274" width="31" height="31" rx="15.5" transform="rotate(-45 184.079 22.6274)" fill="#F0F5FF"/>
<rect x="184.079" y="22.6274" width="31" height="31" rx="15.5" transform="rotate(-45 184.079 22.6274)" stroke="black"/>
<rect x="184.079" y="22.6274" width="31" height="31" rx="15.5" transform="rotate(-45 184.079 22.6274)" stroke="#173E88"/>
<path d="M204.898 23.7993C204.898 24.5337 204.812 25.1821 204.641 25.7446C204.474 26.3019 204.232 26.7681 203.914 27.1431C203.596 27.5233 203.208 27.8097 202.75 28.0024C202.292 28.1951 201.776 28.2915 201.203 28.2915C200.635 28.2915 200.122 28.1951 199.664 28.0024C199.206 27.8097 198.818 27.5233 198.5 27.1431C198.177 26.7681 197.927 26.3019 197.75 25.7446C197.578 25.1821 197.492 24.5337 197.492 23.7993V21.0806C197.492 20.3462 197.578 19.7004 197.75 19.1431C197.922 18.5806 198.169 18.1092 198.492 17.729C198.81 17.354 199.195 17.0701 199.648 16.8774C200.107 16.6847 200.62 16.5884 201.188 16.5884C201.76 16.5884 202.276 16.6847 202.734 16.8774C203.193 17.0701 203.583 17.354 203.906 17.729C204.224 18.1092 204.469 18.5806 204.641 19.1431C204.812 19.7004 204.898 20.3462 204.898 21.0806V23.7993ZM199.68 22.8618L202.711 20.604C202.701 20.1769 202.654 19.8123 202.57 19.5103C202.492 19.203 202.375 18.9582 202.219 18.7759C202.099 18.63 201.951 18.5233 201.773 18.4556C201.602 18.3826 201.406 18.3462 201.188 18.3462C200.943 18.3462 200.727 18.3931 200.539 18.4868C200.357 18.5754 200.203 18.7108 200.078 18.8931C199.943 19.0858 199.841 19.3358 199.773 19.6431C199.711 19.9504 199.68 20.3149 199.68 20.7368V21.9946C199.68 22.2446 199.68 22.4113 199.68 22.4946C199.68 22.578 199.68 22.7004 199.68 22.8618ZM202.711 24.1274V22.8071C202.711 22.6353 202.711 22.5103 202.711 22.4321C202.711 22.3488 202.711 22.2316 202.711 22.0806L199.68 24.3306C199.69 24.6743 199.724 24.979 199.781 25.2446C199.844 25.5103 199.93 25.7316 200.039 25.9087C200.164 26.1222 200.323 26.2811 200.516 26.3853C200.708 26.4894 200.938 26.5415 201.203 26.5415C201.448 26.5415 201.664 26.4972 201.852 26.4087C202.039 26.3149 202.195 26.1743 202.32 25.9868C202.451 25.7889 202.547 25.5363 202.609 25.229C202.677 24.9165 202.711 24.5493 202.711 24.1274ZM209.289 21.4868H210.469C210.781 21.4868 211.049 21.4451 211.273 21.3618C211.503 21.2733 211.688 21.1509 211.828 20.9946C211.958 20.8592 212.055 20.6951 212.117 20.5024C212.185 20.3045 212.219 20.091 212.219 19.8618C212.219 19.6379 212.185 19.4347 212.117 19.2524C212.055 19.0649 211.958 18.9035 211.828 18.7681C211.698 18.6379 211.531 18.5363 211.328 18.4634C211.13 18.3905 210.898 18.354 210.633 18.354C210.414 18.354 210.208 18.3853 210.016 18.4478C209.828 18.5103 209.664 18.5988 209.523 18.7134C209.378 18.8332 209.263 18.9764 209.18 19.1431C209.096 19.3097 209.055 19.4972 209.055 19.7056H206.883C206.883 19.242 206.977 18.8201 207.164 18.4399C207.357 18.0597 207.62 17.7316 207.953 17.4556C208.286 17.1847 208.677 16.9738 209.125 16.8228C209.578 16.6717 210.065 16.5962 210.586 16.5962C211.148 16.5962 211.664 16.6665 212.133 16.8071C212.602 16.9425 213.003 17.1457 213.336 17.4165C213.669 17.6925 213.927 18.0337 214.109 18.4399C214.297 18.841 214.391 19.3071 214.391 19.8384C214.391 20.0832 214.354 20.3254 214.281 20.5649C214.208 20.7993 214.102 21.0233 213.961 21.2368C213.82 21.4504 213.646 21.6483 213.438 21.8306C213.229 22.0076 212.99 22.1613 212.719 22.2915C213.036 22.4061 213.31 22.5519 213.539 22.729C213.773 22.9061 213.966 23.1066 214.117 23.3306C214.268 23.5597 214.38 23.8097 214.453 24.0806C214.526 24.3514 214.562 24.6379 214.562 24.9399C214.562 25.4712 214.461 25.9451 214.258 26.3618C214.055 26.7785 213.776 27.1274 213.422 27.4087C213.068 27.6951 212.646 27.9139 212.156 28.0649C211.672 28.2108 211.148 28.2837 210.586 28.2837C210.102 28.2837 209.628 28.2186 209.164 28.0884C208.706 27.953 208.297 27.7498 207.938 27.479C207.578 27.2134 207.289 26.8774 207.07 26.4712C206.857 26.0649 206.75 25.5858 206.75 25.0337H208.922C208.922 25.2524 208.964 25.4556 209.047 25.6431C209.13 25.8254 209.25 25.9816 209.406 26.1118C209.557 26.2472 209.737 26.354 209.945 26.4321C210.154 26.505 210.383 26.5415 210.633 26.5415C210.914 26.5415 211.167 26.5024 211.391 26.4243C211.615 26.3462 211.802 26.2316 211.953 26.0806C212.099 25.9451 212.208 25.7785 212.281 25.5806C212.359 25.3826 212.398 25.1613 212.398 24.9165C212.398 24.6092 212.354 24.3462 212.266 24.1274C212.177 23.9087 212.049 23.729 211.883 23.5884C211.711 23.4478 211.505 23.3436 211.266 23.2759C211.031 23.2082 210.766 23.1743 210.469 23.1743H209.289V21.4868Z" fill="#173E88"/>
</svg>
