<svg width="175" height="703" viewBox="0 0 175 703" fill="none" xmlns="http://www.w3.org/2000/svg">
<path d="M38.75 113.25H114.75V116.25H38.75V113.25Z" fill="#F2F7FF" stroke="#173E88" stroke-width="0.5"/>
<path d="M41.75 116.25H111.75V122.25H41.75V116.25Z" fill="#F2F7FF" stroke="#173E88" stroke-width="0.5"/>
<path d="M43.75 122.25H109.75C109.75 125.564 107.064 128.25 103.75 128.25H49.75C46.4363 128.25 43.75 125.564 43.75 122.25Z" fill="#F2F7FF" stroke="#173E88" stroke-width="0.5"/>
<path d="M46.75 128.25H106.75V130.25H46.75V128.25Z" fill="#F2F7FF" stroke="#173E88" stroke-width="0.5"/>
<path d="M46.75 130.25H106.75L103.75 132.25H49.75L46.75 130.25Z" fill="#F2F7FF" stroke="#173E88" stroke-width="0.5"/>
<path d="M49.75 132.25H103.75V142.25H49.75V132.25Z" fill="#F2F7FF" stroke="#173E88" stroke-width="0.5"/>
<rect x="46.75" y="142.25" width="60" height="2" rx="1" fill="#F2F7FF" stroke="#173E88" stroke-width="0.5"/>
<path d="M48.75 144.25H104.75C104.75 146.459 102.959 148.25 100.75 148.25H52.75C50.5409 148.25 48.75 146.459 48.75 144.25Z" fill="#F2F7FF" stroke="#173E88" stroke-width="0.5"/>
<path d="M51.25 148.25H76.75H102.25L106.25 533.25H76.75H47.25L51.25 148.25Z" fill="#F2F7FF" stroke="#173E88" stroke-width="0.5"/>
<path d="M44.75 533.25H108.75V537.25H44.75V533.25Z" fill="#F2F7FF" stroke="#173E88" stroke-width="0.5"/>
<rect x="38.75" y="537.25" width="76" height="10" rx="5" fill="#F2F7FF" stroke="#173E88" stroke-width="0.5"/>
<path d="M34.75 547.25H118.75V559.25H34.75V547.25Z" fill="#F2F7FF" stroke="#173E88" stroke-width="0.5"/>
<rect x="23.25" y="559.25" width="107" height="4" fill="#F2F7FF" stroke="#173E88" stroke-width="0.5"/>
<rect x="25.25" y="563.25" width="103" height="6" fill="#F2F7FF" stroke="#173E88" stroke-width="0.5"/>
<path d="M25.25 569.25H128.25L123.75 576.25H29.75L25.25 569.25Z" fill="#F2F7FF" stroke="#173E88" stroke-width="0.5"/>
<rect x="30.25" y="576.25" width="93" height="3" fill="#F2F7FF" stroke="#173E88" stroke-width="0.5"/>
<rect x="33.25" y="579.25" width="87" height="3" fill="#F2F7FF" stroke="#173E88" stroke-width="0.5"/>
<rect x="36.25" y="582.25" width="81" height="89" fill="#F2F7FF" stroke="#173E88" stroke-width="0.5"/>
<rect x="34.25" y="671.25" width="85" height="3" fill="#F2F7FF" stroke="#173E88" stroke-width="0.5"/>
<rect x="31.25" y="674.25" width="91" height="4" fill="#F2F7FF" stroke="#173E88" stroke-width="0.5"/>
<rect x="25.25" y="678.25" width="103" height="3" fill="#F2F7FF" stroke="#173E88" stroke-width="0.5"/>
<rect x="25.25" y="681.25" width="103" height="21" fill="#F2F7FF" stroke="#173E88" stroke-width="0.5"/>
<rect x="0.25" y="0.25" width="174" height="2" fill="#F2F7FF" stroke="#173E88" stroke-width="0.5"/>
<path d="M0.25 2.25H174.25V11.25H8.75C8.4047 8.91667 6.22128 3.85 0.25 2.25Z" fill="#F2F7FF" stroke="#173E88" stroke-width="0.5"/>
<rect x="7.25" y="11.25" width="167" height="2" fill="#F2F7FF" stroke="#173E88" stroke-width="0.5"/>
<rect x="11.25" y="13.25" width="163" height="8" fill="#F2F7FF" stroke="#173E88" stroke-width="0.5"/>
<rect x="14.25" y="21.25" width="160" height="4" fill="#F2F7FF" stroke="#173E88" stroke-width="0.5"/>
<rect x="33.25" y="25.25" width="141" height="10" fill="#F2F7FF" stroke="#173E88" stroke-width="0.5"/>
<path d="M37.25 35.25H174.25V43.25H45.25C40.8317 43.25 37.25 39.6683 37.25 35.25Z" fill="#F2F7FF" stroke="#173E88" stroke-width="0.5"/>
<path d="M42.25 43.25H174.25V45.25H42.25V43.25Z" fill="#F2F7FF" stroke="#173E88" stroke-width="0.5"/>
<path d="M49.25 45.25H174.25V87.25H49.25V45.25Z" fill="#F2F7FF" stroke="#173E88" stroke-width="0.5"/>
<path d="M42.25 87.25H174.25V91.25H42.25V87.25Z" fill="#F2F7FF" stroke="#173E88" stroke-width="0.5"/>
<path d="M49.25 91.25H174.25V113.25H49.25V91.25Z" fill="#F2F7FF" stroke="#173E88" stroke-width="0.5"/>
<path d="M93.25 48.25H91.25V86.25H86.25V48.25H81.25V86.25H77.25V48.25H72.25V86.25H67.25V48.25H65.25V45.25H93.25V48.25Z" fill="#F2F7FF"/>
<path d="M93.25 48.25V48.5H93.5V48.25H93.25ZM91.25 48.25V48H91V48.25H91.25ZM91.25 86.25V86.5H91.5V86.25H91.25ZM86.25 86.25H86V86.5H86.25V86.25ZM86.25 48.25H86.5V48H86.25V48.25ZM81.25 48.25V48H81V48.25H81.25ZM81.25 86.25V86.5H81.5V86.25H81.25ZM77.25 86.25H77V86.5H77.25V86.25ZM77.25 48.25H77.5V48H77.25V48.25ZM72.25 48.25V48H72V48.25H72.25ZM72.25 86.25V86.5H72.5V86.25H72.25ZM67.25 86.25H67V86.5H67.25V86.25ZM67.25 48.25H67.5V48H67.25V48.25ZM65.25 48.25H65V48.5H65.25V48.25ZM65.25 45.25V45H65V45.25H65.25ZM93.25 45.25H93.5V45H93.25V45.25ZM93.25 48.25V48H91.25V48.25V48.5H93.25V48.25ZM91.25 48.25H91V86.25H91.25H91.5V48.25H91.25ZM91.25 86.25V86H86.25V86.25V86.5H91.25V86.25ZM86.25 86.25H86.5V48.25H86.25H86V86.25H86.25ZM86.25 48.25V48H81.25V48.25V48.5H86.25V48.25ZM81.25 48.25H81V86.25H81.25H81.5V48.25H81.25ZM81.25 86.25V86H77.25V86.25V86.5H81.25V86.25ZM77.25 86.25H77.5V48.25H77.25H77V86.25H77.25ZM77.25 48.25V48H72.25V48.25V48.5H77.25V48.25ZM72.25 48.25H72V86.25H72.25H72.5V48.25H72.25ZM72.25 86.25V86H67.25V86.25V86.5H72.25V86.25ZM67.25 86.25H67.5V48.25H67.25H67V86.25H67.25ZM67.25 48.25V48H65.25V48.25V48.5H67.25V48.25ZM65.25 48.25H65.5V45.25H65.25H65V48.25H65.25ZM65.25 45.25V45.5H93.25V45.25V45H65.25V45.25ZM93.25 45.25H93V48.25H93.25H93.5V45.25H93.25Z" fill="#173E88"/>
<path d="M163.25 48.25H161.25V86.25H156.25V48.25H151.25V86.25H147.25V48.25H142.25V86.25H137.25V48.25H135.25V45.25H163.25V48.25Z" fill="#F2F7FF"/>
<path d="M163.25 48.25V48.5H163.5V48.25H163.25ZM161.25 48.25V48H161V48.25H161.25ZM161.25 86.25V86.5H161.5V86.25H161.25ZM156.25 86.25H156V86.5H156.25V86.25ZM156.25 48.25H156.5V48H156.25V48.25ZM151.25 48.25V48H151V48.25H151.25ZM151.25 86.25V86.5H151.5V86.25H151.25ZM147.25 86.25H147V86.5H147.25V86.25ZM147.25 48.25H147.5V48H147.25V48.25ZM142.25 48.25V48H142V48.25H142.25ZM142.25 86.25V86.5H142.5V86.25H142.25ZM137.25 86.25H137V86.5H137.25V86.25ZM137.25 48.25H137.5V48H137.25V48.25ZM135.25 48.25H135V48.5H135.25V48.25ZM135.25 45.25V45H135V45.25H135.25ZM163.25 45.25H163.5V45H163.25V45.25ZM163.25 48.25V48H161.25V48.25V48.5H163.25V48.25ZM161.25 48.25H161V86.25H161.25H161.5V48.25H161.25ZM161.25 86.25V86H156.25V86.25V86.5H161.25V86.25ZM156.25 86.25H156.5V48.25H156.25H156V86.25H156.25ZM156.25 48.25V48H151.25V48.25V48.5H156.25V48.25ZM151.25 48.25H151V86.25H151.25H151.5V48.25H151.25ZM151.25 86.25V86H147.25V86.25V86.5H151.25V86.25ZM147.25 86.25H147.5V48.25H147.25H147V86.25H147.25ZM147.25 48.25V48H142.25V48.25V48.5H147.25V48.25ZM142.25 48.25H142V86.25H142.25H142.5V48.25H142.25ZM142.25 86.25V86H137.25V86.25V86.5H142.25V86.25ZM137.25 86.25H137.5V48.25H137.25H137V86.25H137.25ZM137.25 48.25V48H135.25V48.25V48.5H137.25V48.25ZM135.25 48.25H135.5V45.25H135.25H135V48.25H135.25ZM135.25 45.25V45.5H163.25V45.25V45H135.25V45.25ZM163.25 45.25H163V48.25H163.25H163.5V45.25H163.25Z" fill="#173E88"/>
<path d="M93.25 32.25H65.25V25.25H62.25V22.25H96.25V25.25H93.25V32.25Z" fill="#F2F7FF"/>
<path d="M93.25 32.25V32.5H93.5V32.25H93.25ZM65.25 32.25H65V32.5H65.25V32.25ZM65.25 25.25H65.5V25H65.25V25.25ZM62.25 25.25H62V25.5H62.25V25.25ZM62.25 22.25V22H62V22.25H62.25ZM96.25 22.25H96.5V22H96.25V22.25ZM96.25 25.25V25.5H96.5V25.25H96.25ZM93.25 25.25V25H93V25.25H93.25ZM93.25 32.25V32H65.25V32.25V32.5H93.25V32.25ZM65.25 32.25H65.5V25.25H65.25H65V32.25H65.25ZM65.25 25.25V25H62.25V25.25V25.5H65.25V25.25ZM62.25 25.25H62.5V22.25H62.25H62V25.25H62.25ZM62.25 22.25V22.5H96.25V22.25V22H62.25V22.25ZM96.25 22.25H96V25.25H96.25H96.5V22.25H96.25ZM96.25 25.25V25H93.25V25.25V25.5H96.25V25.25ZM93.25 25.25H93V32.25H93.25H93.5V25.25H93.25Z" fill="#173E88"/>
<path d="M163.25 32.25H135.25V25.25H132.25V22.25H166.25V25.25H163.25V32.25Z" fill="#F2F7FF"/>
<path d="M163.25 32.25V32.5H163.5V32.25H163.25ZM135.25 32.25H135V32.5H135.25V32.25ZM135.25 25.25H135.5V25H135.25V25.25ZM132.25 25.25H132V25.5H132.25V25.25ZM132.25 22.25V22H132V22.25H132.25ZM166.25 22.25H166.5V22H166.25V22.25ZM166.25 25.25V25.5H166.5V25.25H166.25ZM163.25 25.25V25H163V25.25H163.25ZM163.25 32.25V32H135.25V32.25V32.5H163.25V32.25ZM135.25 32.25H135.5V25.25H135.25H135V32.25H135.25ZM135.25 25.25V25H132.25V25.25V25.5H135.25V25.25ZM132.25 25.25H132.5V22.25H132.25H132V25.25H132.25ZM132.25 22.25V22.5H166.25V22.25V22H132.25V22.25ZM166.25 22.25H166V25.25H166.25H166.5V22.25H166.25ZM166.25 25.25V25H163.25V25.25V25.5H166.25V25.25ZM163.25 25.25H163V32.25H163.25H163.5V25.25H163.25Z" fill="#173E88"/>
</svg>
